<?xml version="1.0" encoding="UTF-8"?>
<svg id="Layer_2" data-name="Layer 2" xmlns="http://www.w3.org/2000/svg" xmlns:xlink="http://www.w3.org/1999/xlink" viewBox="0 0 2890.03 1516.13">
  <defs>
    <style>
      .cls-1 {
        fill: url(#linear-gradient);
      }

      .cls-2 {
        fill: #f99746;
      }

      .cls-3 {
        fill: #060632;
      }

      .cls-4 {
        fill: #ed975d;
      }

      .cls-5 {
        fill: #ebf3ff;
      }

      .cls-6 {
        fill: #ebf3fa;
      }

      .cls-7 {
        fill: #ed7d2b;
      }

      .cls-8 {
        fill: #e8945b;
      }

      .cls-9 {
        fill: #ffa412;
      }

      .cls-10 {
        fill: #fff;
      }

      .cls-11 {
        fill: #f2ccaa;
      }

      .cls-12 {
        fill: #ffb27d;
      }

      .cls-13 {
        fill: #eef6ff;
      }

      .cls-14 {
        fill: #f18886;
      }

      .cls-15 {
        fill: #98baf4;
      }

      .cls-16 {
        fill: #9e332e;
      }

      .cls-17 {
        fill: #bae8e3;
      }

      .cls-18 {
        fill: #b5453c;
      }

      .cls-19 {
        fill: #8da3da;
      }

      .cls-20 {
        fill: #b7d3f3;
      }

      .cls-21 {
        fill: #ceddfb;
      }

      .cls-22 {
        fill: #b0d0ff;
      }

      .cls-23 {
        fill: #a83f3f;
      }

      .cls-24 {
        fill: #a9453d;
      }

      .cls-25 {
        fill: #ab4e49;
      }

      .cls-26 {
        fill: #b0d4ff;
      }

      .cls-27 {
        fill: #c0d8fb;
      }

      .cls-28 {
        fill: #bed2fa;
      }

      .cls-29 {
        fill: #dfebfd;
      }

      .cls-30 {
        fill: #dfedfb;
      }

      .cls-31 {
        fill: #cae5ff;
      }

      .cls-32 {
        fill: #e2915a;
      }

      .cls-33 {
        fill: #213f7a;
      }

      .cls-34 {
        fill: #163560;
      }

      .cls-35 {
        fill: #1e3d70;
      }

      .cls-36 {
        fill: #233862;
      }

      .cls-37 {
        fill: #0d0d38;
      }

      .cls-38 {
        fill: #6d89cf;
      }

      .cls-39 {
        fill: #a1d6ce;
      }

      .cls-40 {
        fill: #95c0f4;
      }

      .cls-41 {
        fill: #2a4e96;
      }

      .cls-42 {
        fill: #2b478b;
      }

      .cls-43 {
        fill: #5c5c6b;
      }

      .cls-44 {
        fill: #3a49cd;
      }

      .cls-45 {
        fill: #2e3552;
      }

      .cls-46 {
        fill: #5f9aa8;
      }

      .cls-47 {
        fill: #78acea;
      }

      .cls-48 {
        fill: url(#linear-gradient-2);
      }
    </style>
    <linearGradient id="linear-gradient" x1="949.02" y1="831.91" x2="1187.97" y2="1085.11" gradientTransform="translate(0 1438) scale(1 -1)" gradientUnits="userSpaceOnUse">
      <stop offset="0" stop-color="#444b8c"/>
      <stop offset="1" stop-color="#26264f"/>
    </linearGradient>
    <linearGradient id="linear-gradient-2" x1="880.65" y1="555.88" x2="1169.69" y2="555.88" gradientUnits="userSpaceOnUse">
      <stop offset="0" stop-color="#e38ddd"/>
      <stop offset=".06" stop-color="#d989e0"/>
      <stop offset=".27" stop-color="#bb7ee9"/>
      <stop offset=".48" stop-color="#a677f0"/>
      <stop offset=".68" stop-color="#9972f4"/>
      <stop offset=".87" stop-color="#9571f6"/>
    </linearGradient>
  </defs>
  <g id="Layer_1-2" data-name="Layer 1">
    <g>
      <path class="cls-6" d="M130.65,1510.36c.13,.1,2590.53-.34,2590.53-.34,85.28-190.51,85.13-283.59,94.84-392.79,53.58-603.57-380.49-696.36-507.65-721.53C1919.02,318.65,2096.23-62.65,1081.61,8.89c-92.99,6.56-312.25,59.49-387.81,93.78-53,24.03-252.68,131.58-311.26,313.49-18.5,57.42-22.94,122.24-4.29,194.18,66.03,254.59-106.12,239.96-231.91,361.28-167.9,161.92-150.34,426.72-15.68,538.72Z"/>
      <g>
        <path class="cls-26" d="M1704.25,1510.21h.35c2.04,0,3.67-1.68,3.63-3.71l-5.5-238.41-16.2-1.89,13.82,240.31c.12,2.07,1.84,3.7,3.91,3.7Z"/>
        <path class="cls-40" d="M1798.67,1510.21h.35c2.04,0,3.67-1.68,3.63-3.71l-5.5-238.41-16.2-1.89,13.82,240.31c.12,2.07,1.84,3.7,3.91,3.7Z"/>
        <path class="cls-26" d="M1538.12,1510.21h-.35c-2.04,0-3.67-1.68-3.63-3.71l5.5-238.41,16.2-1.89-13.82,240.31c-.12,2.07-1.84,3.7-3.91,3.7Z"/>
        <path class="cls-26" d="M1809.4,1253.3v-163.37c0-28.75-23.3-52.05-52.05-52.05h-117.7c-28.75,0-52.05,23.3-52.05,52.05v169.61l221.8-6.24Z"/>
        <path class="cls-40" d="M1582.15,1253.3h227.26v25.79h-242.89v-10.16c0-8.63,7-15.63,15.63-15.63Z" transform="translate(3375.92 2532.4) rotate(180)"/>
        <rect class="cls-31" x="1527.73" y="1253.3" width="195.04" height="25.79" rx="11.56" ry="11.56" transform="translate(3250.5 2532.4) rotate(-180)"/>
      </g>
      <g>
        <rect class="cls-40" x="1256.93" y="393.47" width="678.53" height="585.74"/>
        <g>
          <rect class="cls-30" x="1269.84" y="403.23" width="652.42" height="564.3"/>
          <g>
            <polygon class="cls-10" points="1497.87 648.75 1354.91 648.75 1354.91 470.23 1379.15 448.38 1497.87 448.38 1497.87 648.75"/>
            <polygon class="cls-26" points="1354.91 470.23 1378.37 470.23 1379.15 448.38 1354.91 470.23"/>
            <rect class="cls-26" x="1403.5" y="465.75" width="45.77" height="2.18"/>
            <rect class="cls-26" x="1392.72" y="472.29" width="67.33" height="2.18"/>
            <rect class="cls-26" x="1371.83" y="514.29" width="111.79" height="2.8"/>
            <rect class="cls-26" x="1371.83" y="522.8" width="111.79" height="2.8"/>
            <rect class="cls-26" x="1371.83" y="531.32" width="111.79" height="2.8"/>
            <rect class="cls-26" x="1371.83" y="539.83" width="111.79" height="2.8"/>
            <rect class="cls-26" x="1371.83" y="630.91" width="111.79" height="2.8"/>
          </g>
          <g>
            <polygon class="cls-10" points="1662.95 896.43 1519.98 896.43 1519.98 717.91 1544.23 696.06 1662.95 696.06 1662.95 896.43"/>
            <polygon class="cls-26" points="1519.98 717.91 1543.45 717.91 1544.23 696.06 1519.98 717.91"/>
            <rect class="cls-26" x="1568.58" y="713.43" width="45.78" height="2.18"/>
            <rect class="cls-26" x="1557.8" y="719.97" width="67.33" height="2.18"/>
            <rect class="cls-26" x="1536.91" y="761.97" width="111.79" height="2.8"/>
            <rect class="cls-26" x="1536.91" y="770.48" width="111.79" height="2.8"/>
            <rect class="cls-26" x="1536.91" y="778.99" width="111.79" height="2.8"/>
            <rect class="cls-26" x="1536.91" y="787.51" width="111.79" height="2.8"/>
            <rect class="cls-26" x="1536.91" y="813.7" width="111.79" height="2.8"/>
            <rect class="cls-26" x="1536.91" y="822.21" width="111.79" height="2.8"/>
            <rect class="cls-26" x="1536.91" y="832.08" width="111.79" height="2.8"/>
          </g>
          <g>
            <rect class="cls-26" x="1664.68" y="448.38" width="78.94" height="69.6"/>
            <path class="cls-9" d="M1700.7,456.66c0-1.91,1.55-3.46,3.46-3.46s3.46,1.55,3.46,3.46-1.55,3.46-3.46,3.46-3.46-1.55-3.46-3.46Z"/>
          </g>
          <g>
            <rect class="cls-10" x="1664.68" y="542.51" width="78.94" height="69.6" transform="translate(-36.07 120.08) rotate(-3.99)"/>
            <path class="cls-26" d="M1699.16,555.4c-.13-1.9,1.3-3.56,3.21-3.69,1.9-.13,3.56,1.3,3.69,3.21s-1.3,3.56-3.21,3.69-3.56-1.3-3.69-3.21Z"/>
          </g>
          <g>
            <rect class="cls-10" x="1402.35" y="798.91" width="78.94" height="69.6" transform="translate(-54.56 102.43) rotate(-3.99)"/>
            <path class="cls-26" d="M1436.83,811.8c-.13-1.9,1.3-3.56,3.21-3.69,1.9-.13,3.56,1.3,3.69,3.21,.13,1.9-1.3,3.56-3.21,3.69-1.9,.13-3.56-1.3-3.69-3.21Z"/>
          </g>
          <g>
            <rect class="cls-10" x="1301.11" y="846.59" width="78.94" height="69.6" transform="translate(-8.97 13.79) rotate(-.59)"/>
            <path class="cls-26" d="M1336.89,859.23c-.02-1.91,1.51-3.47,3.42-3.49,1.91-.02,3.47,1.51,3.49,3.42,.02,1.91-1.51,3.47-3.42,3.49-1.91,.02-3.47-1.51-3.49-3.42Z"/>
          </g>
          <g>
            <rect class="cls-13" x="1776.17" y="588.28" width="78.94" height="69.6" transform="translate(137.94 -309.71) rotate(10.13)"/>
            <path class="cls-47" d="M1817.15,597.58c.29-1.63,1.85-2.72,3.49-2.43s2.72,1.85,2.43,3.49-1.85,2.72-3.49,2.43c-1.63-.29-2.72-1.85-2.43-3.49Z"/>
          </g>
          <g>
            <rect class="cls-13" x="1543.15" y="542.51" width="78.94" height="69.6" transform="translate(-52.93 173.64) rotate(-6.18)"/>
            <path class="cls-47" d="M1576.91,552.41c-.18-1.65,1.01-3.13,2.67-3.31,1.65-.18,3.13,1.01,3.31,2.66,.18,1.65-1.01,3.13-2.66,3.31-1.65,.18-3.13-1.01-3.31-2.66Z"/>
          </g>
          <g>
            <rect class="cls-17" x="1342.39" y="710.44" width="78.94" height="69.6" transform="translate(-125.03 304.56) rotate(-12.04)"/>
            <path class="cls-9" d="M1374.93,722.93c-1.39-.9-1.79-2.76-.89-4.16,.9-1.39,2.76-1.79,4.16-.89,1.39,.9,1.79,2.76,.89,4.16-.9,1.39-2.76,1.79-4.16,.89Z"/>
          </g>
          <g>
            <g>
              <polygon class="cls-10" points="1620.19 517.97 1545.06 517.97 1545.06 467.49 1565.86 448.38 1620.19 448.38 1620.19 517.97"/>
              <polygon class="cls-26" points="1544.65 467.49 1565.18 467.49 1565.86 448.38 1544.65 467.49"/>
            </g>
            <path class="cls-26" d="M1582.9,454.82c0-1.36,1.11-2.47,2.47-2.47s2.47,1.11,2.47,2.47-1.11,2.47-2.47,2.47-2.47-1.11-2.47-2.47Z"/>
          </g>
          <g>
            <g>
              <polygon class="cls-10" points="1839.73 931.23 1764.59 931.23 1764.59 880.74 1785.39 861.63 1839.73 861.63 1839.73 931.23"/>
              <polygon class="cls-26" points="1764.19 880.74 1784.71 880.74 1785.39 861.63 1764.19 880.74"/>
            </g>
            <path class="cls-26" d="M1802.43,868.07c0-1.36,1.11-2.47,2.47-2.47s2.47,1.11,2.47,2.47-1.11,2.47-2.47,2.47-2.47-1.11-2.47-2.47Z"/>
          </g>
          <g>
            <g>
              <polygon class="cls-10" points="1874 831.04 1798.86 831.04 1798.86 780.56 1819.67 761.44 1874 761.44 1874 831.04"/>
              <polygon class="cls-26" points="1798.46 780.56 1818.99 780.56 1819.67 761.44 1798.46 780.56"/>
            </g>
            <path class="cls-26" d="M1836.71,767.88c0-1.36,1.11-2.47,2.47-2.47s2.47,1.11,2.47,2.47-1.11,2.47-2.47,2.47-2.47-1.11-2.47-2.47Z"/>
          </g>
          <g>
            <g>
              <polygon class="cls-17" points="1774.85 831.04 1699.71 831.04 1699.71 780.56 1720.51 761.44 1774.85 761.44 1774.85 831.04"/>
              <polygon class="cls-39" points="1699.31 780.56 1719.83 780.56 1720.51 761.44 1699.31 780.56"/>
            </g>
            <path class="cls-2" d="M1737.55,767.88c0-1.36,1.11-2.47,2.47-2.47s2.47,1.11,2.47,2.47-1.11,2.47-2.47,2.47-2.47-1.11-2.47-2.47Z"/>
          </g>
          <g>
            <g>
              <polygon class="cls-17" points="1895.2 500.55 1820.07 500.55 1820.07 450.07 1840.87 430.96 1895.2 430.96 1895.2 500.55"/>
              <polygon class="cls-39" points="1819.67 450.07 1840.19 450.07 1840.87 430.96 1819.67 450.07"/>
            </g>
            <path class="cls-2" d="M1857.91,437.39c0-1.36,1.11-2.47,2.47-2.47s2.47,1.11,2.47,2.47-1.11,2.47-2.47,2.47-2.47-1.11-2.47-2.47Z"/>
          </g>
        </g>
      </g>
      <g>
        <rect class="cls-27" x="997.34" y="217.5" width="166.78" height="161.8" rx="11.93" ry="11.93"/>
        <path class="cls-29" d="M1015.46,224.51h130.54c6.01,0,10.9,4.88,10.9,10.9v125.99c0,6.01-4.88,10.9-10.9,10.9h-130.54c-6.01,0-10.9-4.88-10.9-10.9v-125.99c0-6.01,4.88-10.9,10.9-10.9Z"/>
        <g>
          <g>
            <path class="cls-20" d="M1077.28,239.28c0-1.91,1.55-3.45,3.45-3.45s3.45,1.55,3.45,3.45-1.55,3.45-3.45,3.45-3.45-1.55-3.45-3.45Z"/>
            <path class="cls-20" d="M1105.15,244.16c.93-1.67,3.03-2.27,4.7-1.34,1.67,.93,2.27,3.03,1.34,4.7-.93,1.67-3.03,2.27-4.7,1.34-1.67-.93-2.27-3.03-1.34-4.7Z"/>
            <path class="cls-20" d="M1129.04,263.13c1.6-1.03,3.74-.57,4.78,1.03,1.03,1.6,.57,3.74-1.03,4.78-1.6,1.03-3.74,.57-4.78-1.03-1.03-1.6-.57-3.74,1.03-4.78Z"/>
            <path class="cls-20" d="M1140.87,292.5c1.91,0,3.45,1.55,3.45,3.45s-1.55,3.45-3.45,3.45-3.45-1.55-3.45-3.45,1.55-3.45,3.45-3.45Z"/>
            <path class="cls-20" d="M1134.82,326.58c1.35,1.35,1.35,3.54,0,4.89-1.35,1.35-3.54,1.35-4.89,0-1.35-1.35-1.35-3.54,0-4.89,1.35-1.35,3.54-1.35,4.89,0Z"/>
            <path class="cls-20" d="M1113.13,348.34c1.35,1.35,1.35,3.54,0,4.89-1.35,1.35-3.54,1.35-4.89,0-1.35-1.35-1.35-3.54,0-4.89,1.35-1.35,3.54-1.35,4.89,0Z"/>
            <path class="cls-20" d="M1077.28,359.55c0-1.91,1.55-3.45,3.45-3.45s3.45,1.55,3.45,3.45-1.55,3.45-3.45,3.45-3.45-1.55-3.45-3.45Z"/>
          </g>
          <g>
            <path class="cls-20" d="M1056.2,244.16c-.93-1.67-3.03-2.27-4.7-1.34-1.67,.93-2.27,3.03-1.34,4.7,.93,1.67,3.03,2.27,4.7,1.34,1.67-.93,2.27-3.03,1.34-4.7Z"/>
            <path class="cls-20" d="M1032.32,263.13c-1.6-1.03-3.74-.57-4.78,1.03-1.03,1.6-.57,3.74,1.03,4.78,1.6,1.03,3.74,.57,4.78-1.03,1.03-1.6,.57-3.74-1.03-4.78Z"/>
            <path class="cls-20" d="M1020.49,292.5c-1.91,0-3.45,1.55-3.45,3.45s1.55,3.45,3.45,3.45,3.46-1.55,3.46-3.45-1.55-3.45-3.46-3.45Z"/>
            <path class="cls-20" d="M1026.53,326.58c-1.35,1.35-1.35,3.54,0,4.89,1.35,1.35,3.54,1.35,4.89,0s1.35-3.54,0-4.89c-1.35-1.35-3.54-1.35-4.89,0Z"/>
            <path class="cls-20" d="M1048.22,348.34c-1.35,1.35-1.35,3.54,0,4.89,1.35,1.35,3.54,1.35,4.89,0,1.35-1.35,1.35-3.54,0-4.89-1.35-1.35-3.54-1.35-4.89,0Z"/>
          </g>
        </g>
        <g>
          <path class="cls-20" d="M1079.8,295.96c0-1.91,1.55-3.45,3.46-3.45s3.45,1.55,3.45,3.45-1.55,3.45-3.45,3.45-3.46-1.55-3.46-3.45Z"/>
          <rect class="cls-20" x="1082.78" y="252.8" width=".94" height="43.16"/>
          <rect class="cls-20" x="1079.71" y="285.5" width="29.09" height="2.83" transform="translate(56.42 737.05) rotate(-38.14)"/>
        </g>
      </g>
      <g>
        <g>
          <path class="cls-12" d="M2032.03,1501.68c-.68,9.28-13.78,9.38-28.64,7.66-14.86-1.72-10.91,2.04-31.72,2.33-20.81,.29-27.98-6.59-28.99-9.56-.9-2.64,9.12-4.86,19.84-7.47,1.35-.32,2.7-.66,4.05-1.01,12.09-3.07,20.09-12.12,30.44-20.02,9.8-7.48,22.43-34.57,22.43-34.57l28.42-1.28s-11.97,24.28-16.47,34.74c-2.64,6.16-1.52,13.72-.37,19.53,.62,3.16,1.23,6.39,.98,9.66Z"/>
          <path class="cls-36" d="M2003.39,1509.34c-14.86-1.72-10.91,2.04-31.72,2.33-20.81,.29-27.98-6.59-28.99-9.56-.9-2.64,9.12-4.86,19.84-7.47l.13,.2s13.4,7.19,30.53,5.47c13.97-1.4,28.22-7.23,37.85-8.27,.62,3.16,1.23,6.39,.98,9.66-.68,9.28-13.78,9.38-28.64,7.66Z"/>
        </g>
        <g>
          <path class="cls-12" d="M2228.34,1503.6c-.67,9.28-13.77,9.4-28.63,7.69-14.86-1.71-10.91,2.05-31.71,2.36-20.81,.31-27.99-6.56-29-9.53-.9-2.64,9.12-4.87,19.84-7.49,1.35-.33,2.7-.67,4.05-1.01,12.09-3.08,20.08-12.14,30.42-20.05,9.79-7.49,0-51.86,0-51.86l31.26-3.04s-1.5,37.35-1.48,54.34c0,6.7,3.09,13.14,4.25,18.95,.62,3.16,1.24,6.38,.99,9.65Z"/>
          <path class="cls-36" d="M2199.71,1511.29c-14.86-1.71-10.91,2.05-31.71,2.36-20.81,.31-27.99-6.56-29-9.53-.9-2.64,9.12-4.87,19.84-7.49l.13,.2s13.4,7.18,30.54,5.44c13.96-1.41,28.21-7.26,37.84-8.31,.62,3.16,1.24,6.38,.99,9.65-.67,9.28-13.77,9.4-28.63,7.69Z"/>
        </g>
        <path class="cls-24" d="M2137.1,736.87c-5.38-22.14,2.42-32.44,9.46-37.93,3.34-8.15,7.15-14.02,11.04-16.23,7.11-4.04,15.62-4.48,21.58-4.13-1.53-1.58-4.55-2.16-4.55-2.16,3.69-.55,11.94,3.11,11.94,3.11,51.37-19.79,59.45,55.85,58.37,73.42-1.07,17.57-.93,38.27,25.8,52.11,51,26.42-16.95,125.97-16.95,125.97,1.3-14.2-64.23-89.14-98.41-111.58-8.32-12.25-11.28-33.89-11.5-35.6,1.44,17.16,4.37,26.79,7,32.21-15.58-14.34-17.89-48.77-13.76-79.19Z"/>
        <path class="cls-12" d="M2157.39,820.57c-.17,.08,16.51,8.74,29.05,5.31,11.8-3.22,19.51-18.52,19.35-18.55-5-.99-6.44-7.86-6.33-37.37l-2.26,.44-37.98,7.52s.86,11.95,.89,23.21c.03,9.46-.55,18.42-2.71,19.43Z"/>
        <path class="cls-4" d="M2159.22,777.92s.86,11.95,.89,23.21c21.25-.6,32.49-19.99,37.09-30.74l-37.98,7.52Z"/>
        <path class="cls-41" d="M2004.68,1454.09c-1.86,5.84,2.32,11.85,8.45,12.14l14.84,.69,15.7,.48c3.93,.12,7.68-1.59,10.16-4.64,12.53-15.37,51.11-66.62,74.51-141.07,.66-2.09,1.35-4.2,2.09-6.34,15.45-45.06,47.49-101.62,64.37-152.81,2.69-8.15,5.1-15.83,7.26-23.09,.69-2.33,1.37-4.61,2.01-6.86,12.44-43.23,16.04-71.61,19.36-101.93l-121.91,.98s-25.66,199.47-96.84,422.45Z"/>
        <path class="cls-10" d="M2118.59,961.58c.31,58.01-8.51,82.9-8.51,82.9,0,0,52.2,26.52,114.23,7,.73-.23,51.36-11.79,51.36-11.79-1.04-2.35-10.27-41.44-11.28-43.6-13.1-28.13-23.04-40.46-24.6-49.11-2.88-16.14-2.95-32.85-1.51-48.6,3.78-41.7,15.04-76.32,15.04-76.32-16.9-3.85-32.73-10.6-50.32-17.2-4.05,5.04-16.42,10.31-27.15,10.07-12.36-.27-16.36-5.56-15.72-11.34-13.17,7.33-23.68,14.25-23.68,14.25-11.19,19.44-33.89,38.32-35.53,68.14-.41,7.33,17.65,73.97,17.66,75.6Z"/>
        <path class="cls-46" d="M2223.43,968.05c5.33,7.54,15.55,53.38,40.96,59.15-13.1-32.67-23.04-47-24.6-57.04-2.88-18.75-2.95-38.15-1.51-56.45-8.51-14.91-14.86-25.14-14.86-25.14-.67-2.41-13.52-42.16-17.64-6.63-4.11,35.53,11.69,77.68,17.64,86.12Z"/>
        <path class="cls-12" d="M2152.12,788.58s50.29,.83,50.32-30.5c.03-31.32,6.55-52.31-25.56-54.17-32.11-1.85-38.36,10.09-40.91,20.54-2.55,10.45,3.07,63.1,16.15,64.12Z"/>
        <path class="cls-24" d="M2153.98,703.15s13.77,36.75,34.9,42.18c21.13,5.43,30.3-.23,30.3-.23,0,0-16.21-12.88-19.57-35.35,0,0-35.24-24.1-45.62-6.6Z"/>
        <path class="cls-24" d="M2157.39,706.14s-10.28,8.21-12.79,16.18c-2.51,7.98-3.63,24.4-8.42,23.84,0,0-10.37-24.98,1.28-39.11,12.36-14.98,19.93-.91,19.93-.91Z"/>
        <polygon class="cls-12" points="2072.99 1001.85 2049.24 1074.26 2062.79 1079.69 2102.06 1015.72 2072.99 1001.85"/>
        <path class="cls-2" d="M2137.03,813.58s-28.01,11.11-36.11,28.44c-8.11,17.33-20.38,133.55-25.27,145.48-4.89,11.94-8.56,21.38-8.56,21.38,0,0,14.12,11.9,28.32,12.77,14.2,.88,41.62-208.08,41.62-208.08Z"/>
        <path class="cls-2" d="M2160.13,803.6s-29.09,71.88-29.95,86.42c-.86,14.55-3.42,237.87-3.42,237.87,0,0,1.71,10.27-17.97,5.99s-24.81-8.56-24.81-8.56c0,0,18.82-137.76,13.69-185.68-5.13-47.92,39.36-126.07,39.36-126.07l23.1-9.98Z"/>
        <path class="cls-35" d="M2027.96,1466.92l17.05,.52c3.05,.09,5.96-1.22,7.91-3.57,11.46-13.88,51.42-65.82,75.42-142.17,.66-2.09,1.35-4.2,2.09-6.34,15.45-45.06,47.49-101.62,64.37-152.81,2.69-8.15,5.1-15.83,7.26-23.09,.69-2.33,1.37-4.61,2.01-6.86l-17.95-13.62s-53.9,87.28-70.58,169.41c-14.5,71.34-72.54,157.19-87.57,178.54Z"/>
        <path class="cls-41" d="M2184.24,1296.03c-.29,37.79,1.5,122.01,6.1,163.18,.42,3.77,3.61,6.61,7.4,6.61h12.72c5.36,0,9.37-.04,12.04-.08,2.31-.03,4.28-1.69,4.72-3.95,12.65-64.37,21.7-117.84,28.33-164.05,5.54-38.68,10.47-71.83,14.26-100.38,3.82-28.72,6.47-52.78,7.42-73.1,.15-3.2,.26-6.31,.32-9.33,.06-3.04,.08-5.99,.05-8.86l-105.33-10.27c1.33,69.98,12.15,177.01,11.98,200.22Z"/>
        <path class="cls-35" d="M2210.46,1465.82c4.82,0,8.54-.03,11.18-.07,2.8-.04,5.2-2.04,5.74-4.79,12.56-64,21.57-117.21,28.17-163.22,5.54-38.68,10.47-71.83,14.26-100.38,3.82-28.72,6.47-52.78,7.42-73.1l-38.65,22.74s24.67,8.7,15.26,74.59c-9.41,65.88-30.27,234.9-43.37,244.23Z"/>
        <path class="cls-2" d="M2205.48,1123.62s7.42,26.81,33.09,23.38c25.67-3.42,62.17-18.82,62.17-18.82,0,0-10.97-34.66-24.61-80.2-16.51-55.13-36.96-126.2-46.59-171.03-2.7-12.56-4.55-23.05-5.24-30.56l-21.3-41.32s-31.75,71.27-33.46,89.24c-1.71,17.97,35.94,229.32,35.94,229.32Z"/>
        <path class="cls-12" d="M2231.11,891.62l-28.11-86.56c.08,.04,35.5,10.54,53.32,19.54,0,0,11.14,14.36,18.03,47.49,0,0,7.28,79.54-8.98,108.63,0,0-51.34,10.27-133.48-17.97v-18.82s89.84,4.71,108.24,6.84l-9.02-59.15Z"/>
        <path class="cls-7" d="M2206.62,931.95c1.15,29.09,7.99,85.57,69.03,115.8,.16,.08,.32,.16,.49,.23-16.51-55.13-36.96-126.2-46.59-171.03-11.21,16.75-23.55,38.98-22.92,55Z"/>
        <path class="cls-2" d="M2203.01,805.06s52.1,3.67,64.65,31.62c12.55,27.95,16.54,120.93,.57,148.31,0,0-21.99,6.26-60.88-1.01-.48-.09-.96-.18-1.44-.27,0,0-12.41-30.38-1.28-36.37,0,0,32.8,1.71,29.38-9.13-3.42-10.84-31-133.16-31-133.16Z"/>
        <g>
          <path class="cls-24" d="M2072.37,955.56l1.54,4.93,85.5-26.6s1.14-1.3,.58-3.02c-.62-1.91-2.11-1.91-2.11-1.91l-85.5,26.6Z"/>
          <polygon class="cls-24" points="2066.19 960.22 2072.37 955.56 2073.9 960.49 2066.19 960.22"/>
        </g>
        <path class="cls-12" d="M2052.61,1072.28s-21.69,11.99-24.54,21.12c-2.85,9.13-.89,28.25,2.55,27.97,3.44-.29,8.58-20.55,11.43-21.97,2.85-1.43,6.85-5.7,6.85-2.57s-2.85,8.84-1.43,9.7c1.43,.86,5.99-7.99,9.13-9.7,3.14-1.71,4.46-15.83,7.51-19.61,3.05-3.79-11.5-4.93-11.5-4.93Z"/>
        <path class="cls-12" d="M2131.9,943.93s-19.4-11.95-27.53-10.11c-8.14,1.84-28.87,16.86-18.9,20.11,9.97,3.25,18.05-.16,21.89,2.2,3.84,2.36,6.67,6.68,24.54,6.62,17.88-.06,0-18.82,0-18.82Z"/>
      </g>
      <g>
        <path class="cls-34" d="M606.5,815.59c-3.25-6.27,70.94-28.85,72.11,33.04,0,0,138.98-3.42,72.62-80.88-22.97-26.82-20.61-48.99-19.92-69.63,.7-20.64-14.31-80.63-65.75-74.59,0,0-13.47-5.48-30.28,3.24-38.23,19.83-123.88,211.65-28.78,188.82Z"/>
        <path class="cls-12" d="M833.71,884.78s9.05-13.77,16.34-14.04c7.29-.27,20.79-4.05,19.71-1.35-1.08,2.7-9.45,2.97-10.26,4.59-.81,1.62,12.42,4.05,16.2,4.32,3.78,.27,12.69,0,12.42,1.89-.27,1.89-16.06,9.72-27.2,8.64-11.14-1.08-24.91,3.24-24.91,3.24l-2.3-7.29Z"/>
        <path class="cls-22" d="M702.88,889.24s4.92,9.74,13.84,20.92c10.75,13.46,27.32,29.02,48.14,32.09,9.94,1.47,19.66-.67,28.6-4.64,.02,0,.03,0,.03,0,25.27-11.22,44.28-37.02,44.28-37.02,4.46-12.15-2.83-20.39-2.83-20.39,0,0-51.04,11.48-55.9,9.05-4.86-2.43-33.21-84.11-39.96-94.38-6.76-10.26-29.76-15.59-29.76-15.59l-6.42,109.97Z"/>
        <path class="cls-15" d="M716.72,910.16c10.75,13.46,27.32,29.02,48.14,32.09,9.94,1.47,19.66-.67,28.6-4.64-.99,.13-26.23,3.25-36.29-14.75-10.26-18.37-21.36-47.53-36.61-37.81-6.58,4.2-6.29,14.62-3.83,25.11Z"/>
        <path class="cls-36" d="M512.47,1440.14s-15.57,14.21-12.53,24.31c3.04,10.1,17.09,16.83,18.99,29.17,1.9,12.34,9.5,19.07,16.33,19.07h32.6s5.03-8.69-7.12-11.3c-12.15-2.62-16.74-17.12-15.98-30.59,.76-13.46-1.14-31.42-1.14-31.42l-25.83-5.98-5.32,6.73Z"/>
        <path class="cls-36" d="M644.28,1446.18s-5.6,60.21,1.23,63.57l87.5-.18s0-10.1-14.05-12.34c-14.05-2.24-38.74-10.47-42.92-28.8-4.18-18.33-31.76-22.25-31.76-22.25Z"/>
        <path class="cls-12" d="M581.93,1014.24c18.01-40.38,29.02-51.97,26.92-64.5-1.57-9.33,4.77-173.92,4.77-173.92,2.14-.66,6.42-1.25,8.76-1.77,7.39-1.64,13.5-6.83,16.04-13.95,3.06-8.58,5.5-21.26,5.44-37.14l2.31,.45,38.78,7.68s-.88,12.2-.91,23.7c0,.1,0,.19,0,.29-.05,9.99,6.5,18.8,16.1,21.57,4.9,1.41,9.16,2.62,9.16,2.62,0,0,14.24,40.66,16.96,82.42,2.72,41.77-25.9,59.91,.22,143.37,26.66,85.24-154.49,31.49-144.54,9.18Z"/>
        <path class="cls-8" d="M684.95,731.09s-.88,12.2-.91,23.7c-21.7-.61-33.17-20.41-37.87-31.38l38.78,7.68Z"/>
        <path class="cls-12" d="M692.2,741.98s-51.35,.85-51.38-31.14c-.04-31.98-6.69-53.41,26.09-55.31,32.78-1.89,39.16,10.3,41.77,20.98s-3.13,64.42-16.49,65.47Z"/>
        <path class="cls-34" d="M690.3,654.75s-14.06,37.52-35.63,43.07c-21.57,5.55-30.93-.23-30.93-.23,0,0,16.55-13.15,19.98-36.09,0,0,35.98-24.6,46.58-6.74Z"/>
        <path class="cls-34" d="M686.81,657.79s10.42,3.9,14.72,11.5c4.2,7.44,7.77,17.28,6.94,29.36,0,0,10.59-25.5-1.31-39.93-12.62-15.3-20.34-.93-20.34-.93Z"/>
        <path class="cls-6" d="M681.03,722.13s3.54,4.66,10.63,4.33c5.71-.27,7.91-5.22,7.91-5.22,0,0-10.49-2.52-18.54,.9Z"/>
        <path class="cls-22" d="M576.98,848.63s-1.3,18.38,0,40.44c.87,14.62,15.66,34.21,17.76,39.05,5.27,12.15,11.2,14.13,11.2,14.13l45.94,11.26,16.15,3.95,50.94-15.21s23.2-64.76,13.89-101.21c-9.32-36.45-23.55-61.77-23.55-61.77,0,0-41.57,40.7-95.69-3.45l-36.64,72.81Z"/>
        <path class="cls-11" d="M590.42,895.04c.87,14.62,2.21,28.24,4.31,33.08,5.27,12.15,11.2,14.13,11.2,14.13l45.94,11.26,19.95-5.87s-66.61-10.09-59.23-67.4l-22.18,14.79Z"/>
        <path class="cls-7" d="M715.73,952.08s25.23,78.52,26.85,105.25-48.22,379.77-50.23,392.09c-1.89,11.61-16.31,19.01-16.31,19.01,0,0-6.63,3.91-16.1,1.24-13.13-3.71-17.28-8.15-17.28-8.15,0,0-19.63-251.78-7.48-341.72,12.15-89.94,12.29-167.72,12.29-167.72h68.26Z"/>
        <path class="cls-2" d="M608.85,949.74s-38.48,51.63-42.07,86.53c-3.59,34.9-5.63,157.5-13.27,191.52-7.64,34.02-35.72,99.5-35.72,205.62,0,0,2.92,6.08,11.93,9.32,2.88,1.04,6.74,2.04,10.49,2.9,7.43,1.7,15.06-1.93,18.45-8.76,18.98-38.22,79.46-161.5,82.56-187.09,2.19-18.11,21.29-137.96,62.94-208.29,10-16.88-6.14-84.03-6.14-84.03l-89.17-7.72Z"/>
        <path class="cls-10" d="M682.17,722.99s.89,3.77,10.26,3.19c0,0,7.87-.49,7.63-4.63,0,0-7.63-2.95-17.9,1.44Z"/>
        <path class="cls-36" d="M719.76,939.96s-10.13,8.01-30.25,8.42c-24.03,.48-83.57-6.13-83.57-6.13,0,0-2.65,7.39-2.54,15.2,0,0,72.72,18.34,114.86,2.68,0,0,5.43-10.23,1.5-20.17Z"/>
        <path class="cls-10" d="M684.31,956.67c0-6.84,4.92-12.41,10.96-12.41s10.97,5.57,10.97,12.41-4.92,12.41-10.97,12.41-10.96-5.57-10.96-12.41Zm3.63,0c0,4.84,3.29,8.78,7.33,8.78s7.33-3.94,7.33-8.78-3.29-8.78-7.33-8.78-7.33,3.94-7.33,8.78Z"/>
        <rect class="cls-18" x="559.91" y="867.99" width="98.8" height="135.24" transform="translate(454.42 2041.33) rotate(-138.95)"/>
        <path class="cls-12" d="M622.74,954.4s27.3,3.19,27.21,9.67c-.09,6.48-6.8,19.79-10.17,20.38-3.37,.59-22.22-18-22.22-18l5.18-12.05Z"/>
        <path class="cls-22" d="M613.61,775.81s-36.45,2.56-50.42,36.52c-13.97,33.96-40.48,90.99-40.48,100.58s14.81,39.17,94.33,56.17c0,0,8.23-8.65,7.73-15.49,0,0-49.64-42.64-49.51-47.62,.25-9.43,8.14-21.87,51.72-65.47,11.85-11.85-13.37-64.68-13.37-64.68Z"/>
      </g>
      <g>
        <g>
          <path class="cls-26" d="M1016.3,1510.84h-.35c-2.04,0-3.67-1.68-3.63-3.71l5.5-238.41,16.2-1.89-13.82,240.31c-.12,2.07-1.84,3.69-3.91,3.69Z"/>
          <path class="cls-40" d="M921.88,1510.84h-.35c-2.04,0-3.67-1.68-3.63-3.71l5.5-238.41,16.2-1.89-13.82,240.31c-.12,2.07-1.84,3.69-3.91,3.69Z"/>
          <path class="cls-26" d="M1182.42,1510.84h.35c2.04,0,3.67-1.68,3.63-3.71l-5.5-238.41-16.2-1.89,13.82,240.31c.12,2.07,1.84,3.69,3.91,3.69Z"/>
          <path class="cls-26" d="M911.14,1253.94v-163.37c0-28.75,23.3-52.05,52.05-52.05h117.7c28.75,0,52.05,23.3,52.05,52.05v169.61l-221.8-6.24Z"/>
          <path class="cls-40" d="M911.14,1253.94h242.89v25.79h-227.26c-8.63,0-15.63-7-15.63-15.63v-10.16h0Z"/>
          <rect class="cls-26" x="997.78" y="1253.94" width="195.04" height="25.79" rx="11.56" ry="11.56"/>
        </g>
        <g>
          <path class="cls-36" d="M1174.59,1213.23c-16.86,29.35-38.07,40.68-38.07,40.68h-88.23s139.16-63.06,126.3-40.68Z"/>
          <g>
            <path class="cls-12" d="M1106.83,1440.3c-2.3,2.64-2.59,5.58-1.45,8.72,0,.01,0,.03,.02,.04,2.1,5.81,9.06,12.31,17.13,18.79,1.03,.83,1.95,1.59,2.75,2.29,.21,.18,.42,.37,.62,.55,.16,.14,.32,.29,.47,.43,7.53,6.94,4.7,8.53,18.23,22.62,15.43,16.05,26.05,16.34,29.07,14.88,2.56-1.25-2.64-9.76-8.39-19.33-.28-.46-.55-.93-.84-1.4-.77-1.27-1.53-2.56-2.29-3.84-6.74-11.52-5.01-16.92-3.41-34.06,1.3-13.93,21.66-77.8,21.66-77.8l-29.56-5.09s-8.9,50.86-18.71,58.7c-5.25,4.17-11.12,4.23-16.16,7.32-.36,.21-.71,.44-1.05,.66-2.87,1.9-5.78,3.86-8.09,6.5Z"/>
            <path class="cls-36" d="M1106.83,1440.3c-2.3,2.64-2.59,5.58-1.45,8.72,0,.01,0,.03,.02,.04,2.58,5.81,9.35,12.27,17.16,18.73,1.02,.85,1.92,1.62,2.72,2.35,.21,.18,.42,.37,.62,.55,.16,.14,.32,.29,.47,.43,7.53,6.94,4.7,8.53,18.23,22.62,15.43,16.05,26.05,16.34,29.07,14.88,2.56-1.25-2.64-9.76-8.39-19.33-3-1.1-16.95-6.77-27.5-20.26-9.29-11.85-15.48-27.08-21.81-35.91-.36,.21-.71,.44-1.05,.66-2.87,1.9-5.78,3.86-8.09,6.5Z"/>
            <path class="cls-12" d="M1345.2,1421.83c1.83,9.13,14.83,7.6,29.37,4.05,14.53-3.55,11.08,.67,31.76-1.62,20.68-2.29,26.95-10,27.58-13.08,.56-2.73-9.65-3.69-20.62-4.95-1.38-.15-2.76-.33-4.15-.5-12.38-1.55-21.44-9.54-32.68-16.1-10.65-6.21-26.54-31.52-26.54-31.52l-28.36,2.25s14.88,22.61,20.64,32.44c3.39,5.78,3.21,13.43,2.78,19.33-.22,3.21-.43,6.49,.22,9.7Z"/>
            <path class="cls-36" d="M1374.57,1425.88c14.53-3.55,11.08,.67,31.76-1.62,20.68-2.29,26.95-10,27.58-13.08,.56-2.73-9.65-3.69-20.62-4.95l-.1,.21s-12.4,8.79-29.62,9.21c-14.03,.34-28.89-3.68-38.58-3.52-.22,3.21-.43,6.49,.22,9.7,1.83,9.13,14.83,7.6,29.37,4.05Z"/>
            <path class="cls-36" d="M1236.5,1240.46l-26.52,71.35-34.62,93.16s-9.39,.91-18.39-1.68c-8.28-2.39-17.79-8.66-17.79-8.66,0,0,9.61-100.03,27.54-157.45,4.6-14.74,9.75-26.66,15.43-33.37,27.8-32.85,54.34,36.65,54.34,36.65Z"/>
            <path class="cls-42" d="M1209.54,1127.15c-17.37-5.6-66.92,1.59-116.69,11.33l-10.42-17.19-107.5-8.4s-35.47,78.67-16.05,128.79c2.85,7.37,8.53,12.09,18.19,12.25,0,0,1.57,0,1.57,0,0,0,63.98-.04,84.76-.04,53.46,0,113.14-36.75,120.87-38.29,12.64-2.53,17.69,22.75,30.33,49.28,12.64,26.54,118.79,117.53,118.79,117.53,0,0,16.31,.16,23.05-2.37,7.25-2.72,9.9-6.25,9.9-6.25,0,0-117.62-234.02-156.8-246.66Z"/>
            <path class="cls-36" d="M1078.21,808.27c-13.77-7.23-34.73-8.21-38.13-8.67-40.74-5.47-65.25,53.72-66.7,71.66-2.66,33.06-20.15,38.1-44.76,58.81-49.36,41.51-34.88,89.75-7.89,107.68,16.19,10.75,44.74,0,44.74,0,.4,.28,78.06-43.41,116.34-64.49,57.39-8.16,31.5-146.55-3.6-164.98Z"/>
            <path class="cls-12" d="M1049.72,955.31c.17,.11-18.84,6.6-31.54,.97-11.95-5.28-21.01-24.95-20.83-24.96,5.44-.25,11.41-5,16.01-36.2l2.32,.83,38.93,14.01s-2.82,12.49-4.65,24.39c-1.54,9.99-2.36,19.55-.24,20.96Z"/>
            <path class="cls-4" d="M1054.6,909.96s-2.82,12.49-4.65,24.39c-22.36-4.03-31.14-26.31-34.29-38.4l38.93,14.01Z"/>
            <path class="cls-12" d="M1060.4,922.35s-53.27-7.15-48.31-40.25c4.96-33.1,1.43-56.32,35.65-53.16,34.22,3.17,38.92,16.79,39.95,28.24,1.03,11.45-13.31,66.18-27.3,65.17Z"/>
            <path class="cls-36" d="M1085.75,839.04s-34.1,29.39-57.29,31.75c-23.19,2.37-31.98-5.08-31.98-5.08,0,0,13.67-11.35,21.9-29.67,2.42-5.4,7.55-9.1,13.45-9.61,16.56-1.43,47.96-2.08,53.93,12.61Z"/>
            <path class="cls-36" d="M1064.44,836.4s11.41,11.03,15,19.21c3.47,7.89,4.51,26.78,1.75,34.28,0,0,17.77-34.56,7.71-51.35-10.67-17.81-24.46-2.14-24.46-2.14Z"/>
            <path class="cls-10" d="M1094.57,1033.78c-1.61,107.83-.44,85.3-12.24,95.53-2.84,2.46-10.83,3.93-21.35,4.63-33.06,2.19-91.19-3.25-93.4-9.36-7.63-21.14-2.24-27.71-8.61-60.08-.66-3.44-1.48-7.17-2.45-11.23-5.31-22.23-10.47-29.8,8.35-65.51,17.07-32.35,34.8-58.61,36.4-57.66,45.03,26.73,48.66,4.26,48.66,4.26,0,0,45.41,46.83,44.62,99.43Z"/>
            <path class="cls-42" d="M1209.99,1311.81l-34.62,93.16s-9.39,.91-18.39-1.68c-8.28-2.39-17.79-8.66-17.79-8.66,0,0,9.61-100.03,27.54-157.45l43.25,74.63Z"/>
            <path class="cls-10" d="M1049.95,934.34s46.34,7.86,51.78,27.81c5.44,19.95,37.46,137.24,37.46,137.24,0,0-23.56,4.23-34.44-6.65-10.88-10.88-37.87-100.96-37.87-100.96l-16.94-57.43Z"/>
            <path class="cls-5" d="M1060.99,1133.93c-33.06,2.19-91.19-3.25-93.4-9.36-7.63-21.14-2.24-27.71-8.61-60.08l15.95-44.91s-2.64,50.01,12.11,63.16c14.73,13.15,60.38,25.39,67.55,36.38,3.46,5.27,5.73,10.56,6.39,14.81Z"/>
            <path class="cls-12" d="M1023.11,1112.9s32.62-7.26,37.88-4.37c5.26,2.89,18.13,13.44,19.74,17.11,1.61,3.67-11.72-2.79-16.05-3.95-2.81-.75-10.2,1.81-13.86,3.03-15.4,5.13-24.83,2.49-24.83,2.49l-2.88-14.32Z"/>
            <path class="cls-10" d="M1001.26,930.06s-43.8,2.7-58.96,23.84c-21.34,29.77-63.68,156.64-39.42,173.56,27.33,19.05,124.37,4.98,124.37,4.98,0,0,3.23-15.09-1.26-22.4-4.49-7.3-77.51-19.1-80.88-22.47-3.37-3.37,42.13-65.72,42.13-75.83s14.03-81.7,14.03-81.7Z"/>
            <path class="cls-12" d="M1062.57,1117.61s6.83,8.82,9.08,9.87c2.24,1.05,3.69,.79,3.69,.79l-4.61-8.29-8.16-2.37Z"/>
            <path class="cls-12" d="M1060.99,1108.53l19.87,9.65s-.85,1.38-3.29,1.27c-2.45-.11-8.62-2.37-8.62-2.37l-7.96-8.55Z"/>
          </g>
          <g>
            <g>
              <polygon class="cls-2" points="1071.64 1140.98 1228.83 1140.98 1276.12 1023.4 1119.17 1023.4 1071.64 1140.98"/>
              <polygon class="cls-7" points="1230.67 1136.4 1023.11 1136.4 1023.11 1140.98 1228.83 1140.98 1230.67 1136.4"/>
            </g>
            <path class="cls-10" d="M1189.15,1082.19c1.19-4.13-1.2-7.48-5.34-7.48s-8.44,3.35-9.63,7.48c-1.19,4.13,1.2,7.48,5.34,7.48s8.45-3.35,9.63-7.48Z"/>
          </g>
        </g>
      </g>
      <g>
        <path class="cls-47" d="M1892.62,1515.2h.46c2.69,0,4.86-2.35,4.8-5.2l-7.27-333.8-21.43-2.65,18.27,336.47c.16,2.9,2.43,5.17,5.17,5.17Z"/>
        <path class="cls-47" d="M1023.89,1515.2h-.46c-2.69,0-4.86-2.35-4.8-5.2l7.27-333.8,21.43-2.65-18.27,336.47c-.16,2.9-2.43,5.17-5.17,5.17Z"/>
        <path class="cls-47" d="M1001.68,1142.06h916.75c7.5,0,13.6,6.09,13.6,13.6v13.09c0,7.5-6.09,13.6-13.6,13.6H1001.68c-7.5,0-13.6-6.09-13.6-13.6v-13.08c0-7.5,6.09-13.6,13.6-13.6Z"/>
      </g>
      <path class="cls-30" d="M411.89,495.96c-3.46-85.71,68.38-123.79,141.83-123.79s153.39,19.03,160.32,133c4.46,73.32-34.63,118.43-147.18,118.43-37.96,0-67.46-5.99-90.05-16.66l-56.26,49.99,27.65-69.1c-24.49-22.77-34.81-54.89-36.3-91.88Z"/>
      <g>
        <path class="cls-36" d="M2471.39,1514.83s2.07-16.1,6.85-25.67c4.79-9.57,35.25-3.48,35.25-3.48,0,0,6.09,5.22,7.4,29.59l-49.5-.44Z"/>
        <path class="cls-36" d="M2367.61,1514.61c7.16-4.37,3.08-36.96,3.08-36.96,0,0-33.35-26.68-37.94-6.25-4.59,20.43-31.68,29.6-47.11,32.1-10.65,1.73-13.94,7.62-14.97,11.11h96.93Z"/>
        <path class="cls-33" d="M2436.69,1277.57c-1.36,7.48-2.22,13.62-2.45,18.01-3.1,60.48-50.91,198.75-59.46,201.98-13.23,4.99-34.07-5.62-44.97-9.09-4.52-1.44-7.57-6-6.56-10.62,23.67-108.84,32.38-265.56,35.54-358.34,1.6-46.74,9.62-79.02,9.62-79.02,0,0,116.6-31.11,117.29,8.24,.61,34.82-38.62,171.39-49.02,228.84Z"/>
        <path class="cls-36" d="M2436.69,1277.57l-77.89-158.07c1.6-46.74,9.62-79.02,9.62-79.02,0,0,116.6-31.11,117.29,8.24,.61,34.82-38.62,171.39-49.02,228.84Z"/>
        <path class="cls-33" d="M2410.75,1048.87l61.64,446.74s27.07,6.53,48.12,1.31c0,0,18.05-237.59,16.54-295.03-1.5-57.44,12.95-153.7-3.3-164.32-16.25-10.62-123,11.31-123,11.31Z"/>
        <path class="cls-22" d="M2545.76,1041.42c.3,4.04-2.29,7.71-6.17,8.84-8.6,2.5-18.51,4.23-37.63,8.19-17.96,3.73-42.12,7.03-71.8,7.21-47.21,.3-65.09-15.97-65.09-15.97-2.03,.04,1.07-9.84,3.87-56.83,.95-15.92,1.86-36.09,2.52-61.59,.6-22.94,1-50.2,1.04-82.53,.05-38.9,60.26-80.74,61.37-80.74v.02c.01,5.6,8.84,15.94,22.43,16.83,16.14,1.06,35.93-6.98,35.93-16.27,0-.09,29.17,46.66,39.53,96.48,5.23,25.08,3.12,24.4,14,176.36Z"/>
        <path class="cls-22" d="M2433.87,768.01s-55.98-.48-69.46,18.42c-13.47,18.9-43.01,120.55-27.6,154.37,15.42,33.82,44.26-13.99,60.27-34.71,16.01-20.72,36.79-138.08,36.79-138.08Z"/>
        <path class="cls-12" d="M2433.3,759.46l.03,5.79s-1.58,18.1,20.71,20.74c22.29,2.65,38.83-3.38,38.22-17.35-2.01-10.81-3.87-21.92-4.02-30.87-.05-3.33,.17-6.85,.79-10.84l-43.19-.86-12.72,2.08,.16,31.31Z"/>
        <path class="cls-32" d="M2433.13,728.16l.16,31.31c4.59,2.13,9.76,3.43,15.57,3.43,19.85,0,32.68-14.55,39.38-25.12-.05-3.33,.17-6.85,.79-10.84l-43.19-.86-12.72,2.08Z"/>
        <path class="cls-12" d="M2492.35,719.99c-5.01,26.97-39.81,26.08-54.84,24.39-4.23-.47-6.89-1.01-6.89-1.01-4.77-1.27-7.43-8.79-8.67-18.63-2.46-19.48,.65-48.08,3.94-55.4,4.95-11.01,14.28-22.91,49.33-14.32,35.05,8.6,23.58,30.43,17.15,64.98Z"/>
        <path class="cls-15" d="M2376.62,843.76s-21.65,47.82-21.02,62.15c0,0,10.72-.37,21.02,2.7,16.93,5.05,0-64.85,0-64.85Z"/>
        <path class="cls-36" d="M2415.12,643.67s15.42-1.19,33.62-9.1c14.76-6.42,33.39,.65,39.44,3.84-.16-.97-.55-2.3-1.47-3.64,0,0,2.71,1.92,3.12,4.62,.28,.21,.4,.35,.33,.4,0,0,3.08-.56,5.06,.33,0,0-1.38-.2-1.88,.69-.05,.09-.13,.17-.22,.25,23.03,11.13,25.16,47.53,17.75,55.95-8.92,10.13-22.38,33.06-22.38,33.06,0,0-1.13-5.5,.5-14.42,1.62-8.92-6.08-8.92-15.81-12.97-9.73-4.05-1.62-15.4-10.13-22.29-8.51-6.89-39.72-2.84-39.32-8.11-11.59-4.22-8.58-27.42-8.58-28.6Z"/>
        <path class="cls-15" d="M2499.4,933.34c-9.14,36.7-107.99,55.67-130.46,59.53,.95-15.92,1.86-36.09,2.52-61.59l127.94,2.06Z"/>
        <path class="cls-12" d="M2477.7,945.27c.94,0,21.98-3.14,25.74-5.02s21-26.37,9.71-32.65c-11.28-6.28-41.57,18.83-41.57,18.83l6.12,18.84Z"/>
        <path class="cls-22" d="M2349.77,952.54s81.35,4.41,135.94-7.28c0,0,1.38-15.77-15.78-22.78,0,0-85.08-18.03-105.53-13.01-20.44,5.02-14.63,43.06-14.63,43.06Z"/>
        <path class="cls-22" d="M2536.59,888.7c-16.88,20.36-38.95,36.97-63.28,40.87h0c-.2-.31-7.37-11.19-6.02-27.17,.62-7.4,3.06-15.89,8.86-24.94,1.78-2.78,3.37-6.03,4.78-9.64,13.29-33.9,11.31-99.23,11.31-99.23,0,0,56.42,5.91,74,31.02,10.77,15.38-2.96,56.92-29.64,89.1Z"/>
        <path class="cls-32" d="M2437.5,744.38c-4.23-.47-6.89-1.01-6.89-1.01-4.77-1.27-7.43-8.79-8.67-18.63,8.95,2.2,13.05,9.12,14.75,12.06,.77,1.32,.93,4.29,.81,7.58Z"/>
        <path class="cls-12" d="M2414.77,759.63s-19.49-32.15-4.33-33.55c15.15-1.4,21.24,8.86,23.43,12.62,2.19,3.77-.57,20.76-.57,20.76l-18.52,.17Z"/>
        <path class="cls-22" d="M2489.04,901.32c-.6,4.08-1.81,7.82-3.32,11.16-4.76,10.57-12.41,17.09-12.41,17.09h0c-50.61-22.85-60.85-101.29-62.56-144.38-.69-17.32,0-28.94,0-28.94,22.83-7.56,29.25,5.58,29.25,5.58,0,0,26.95,64.1,40.94,105.99,5.35,16.03,8.8,28.81,8.11,33.5Z"/>
        <path class="cls-15" d="M2536.59,888.7c-16.88,20.36-38.95,36.97-63.28,40.87h0c-50.61-22.85-60.85-101.29-62.56-144.38,0,0,23.95,86.85,56.54,117.21,5.89,5.49,12.07,9.14,18.43,10.08,0,0,41.1-11.62,49.72-22.55,.62-.79,.99-1.17,1.16-1.22Z"/>
      </g>
      <g>
        <g>
          <polygon class="cls-42" points="1614.88 1142.06 1457.69 1142.06 1410.4 1024.47 1567.35 1024.47 1614.88 1142.06"/>
          <polygon class="cls-42" points="1455.85 1137.48 1663.41 1137.48 1663.41 1142.06 1457.69 1142.06 1455.85 1137.48"/>
        </g>
        <path class="cls-10" d="M1497.37,1083.27c-1.19-4.13,1.2-7.48,5.34-7.48s8.44,3.35,9.63,7.48c1.19,4.13-1.2,7.48-5.34,7.48s-8.45-3.35-9.63-7.48Z"/>
      </g>
      <path class="cls-45" d="M2890.03,1512.22v1c0,1.6-1.48,2.91-3.28,2.91H3.27c-1.8,0-3.27-1.32-3.27-2.91v-1c0-1.6,1.48-2.92,3.27-2.92H2886.76c1.8,0,3.28,1.32,3.28,2.92Z"/>
      <g id="Layer_2-2" data-name="Layer 2">
        <g id="Illustration">
          <g>
            <path class="cls-1" d="M1080.12,434h-182.38c-3.5,0-6.86,.53-10.07,1.16-.1,.02-.19,.14-.29,.16,.03-.18,.06-.31,.09-.49-20.62,4.04-34.46,20.36-32.19,39.81l.06,.5,19.15,164.45,.06,.49c2.61,22.43,25.79,39.57,51.52,38.29l180.99-8.97c7.96-.4,15.17-2.71,21.13-6.42,11.76-7.29,18.71-20,17.09-34.1l-17.81-156.15c-2.43-21.28-23.52-38.73-47.34-38.73Z"/>
            <g>
              <g>
                <path class="cls-48" d="M1139.03,472.64l17.76,155.67c1.6,14.06-4.99,26.77-16.68,34.04-5.93,3.7-12.78,6.02-20.7,6.41l-180.03,8.93c-25.59,1.27-49.36-15.78-51.96-38.16l-19.14-164.5c-2.26-19.41,12.01-35.86,32.52-39.89,3.19-.63,6.89-1.16,10.37-1.16h181.41c23.68,0,44.03,17.41,46.46,38.64Z"/>
                <g>
                  <path class="cls-48" d="M982.47,642.9c-3.62,.16-7-.43-10.05-1.73-11.2-4.79-16.61-18.71-15.19-39.15,1.36-19.53,8.7-42.94,20.62-65.84,21.38-41.06,51.7-69.61,73.75-69.75,3.5-.02,6.77,.66,9.7,2.05,10.73,5.05,15.9,18.73,14.59,38.56-1.26,19-8.23,41.82-19.69,64.33-20.87,41.01-51.19,70.57-73.73,71.53h0Zm69.73-171.26c-9.17,.07-20.99,6.52-33.31,18.22-12.88,12.23-25.49,29.56-35.49,48.8-11.61,22.34-18.76,45.1-20.07,63.99-1.23,17.77,2.98,30.08,11.53,33.75,2.07,.89,4.43,1.29,6.99,1.18,9.43-.39,21.48-7.33,33.91-19.47,12.85-12.56,25.28-30.03,35.04-49.18,11.22-22.01,18.04-44.23,19.26-62.66,1.15-17.29-2.89-29.41-11.11-33.26-2-.94-4.27-1.41-6.76-1.38h0Z"/>
                  <path class="cls-48" d="M1018.72,591.65c-28.45,.93-55.88-1.79-77.1-7.7-22.44-6.25-35.64-15.53-37.01-26.1-1.4-10.78,9.7-21.05,31.09-28.88,20.29-7.42,47.61-11.92,76.8-12.71,1.15-.03,2.31-.06,3.45-.08,28.12-.48,54.62,2.6,74.73,8.62,20.91,6.26,33.06,15.24,34.34,25.34,1.31,10.3-8.83,20.19-28.67,27.91-19.14,7.45-45.44,12.25-74.2,13.48-1.15,.05-2.3,.09-3.44,.13Zm-2.15-70.21c-1.12,.02-2.25,.05-3.38,.08-28.49,.8-55.07,5.2-74.71,12.4-18.6,6.82-28.72,15.48-27.65,23.71,1.04,8.04,12.87,15.8,32.33,21.24,20.53,5.74,47.19,8.4,74.96,7.52,1.12-.03,2.25-.08,3.38-.12,28.09-1.17,53.71-5.8,72.27-13,17.3-6.71,26.6-15.06,25.59-22.93-.98-7.71-11.91-15.22-30.09-20.63-19.48-5.81-45.26-8.76-72.7-8.26h0Z"/>
                  <path class="cls-48" d="M1071.32,637.79h0c-21.92,.8-58.53-25.24-89.21-64.96-17.13-22.18-29.81-44.78-35.67-64.15-6.14-20.29-3.96-34.26,6.09-39.59,2.73-1.45,5.97-2.12,9.61-2.14,22.67-.15,59.66,27.85,89.84,67.65,16.55,21.83,28.71,44.19,34.3,62.99,5.83,19.62,3.77,32.82-5.73,38.35-2.6,1.51-5.74,1.87-9.22,1.87h0Zm-108.56-165.46c-2.58,.02-4.83,.53-6.69,1.52-7.66,4.08-9.01,16.56-3.68,34.2,5.67,18.75,18.02,41.03,34.71,62.67,14.37,18.63,30.88,35.2,46.48,46.71,14.91,11,28.13,16.81,37.25,16.43h0c2.47-.1,4.62-.67,6.39-1.7,7.28-4.23,8.52-16.44,3.43-33.55-5.43-18.24-17.3-39.99-33.49-61.32-14.1-18.58-30.49-35.36-46.17-47.23-15.17-11.49-28.76-17.81-38.24-17.73h0Z"/>
                  <path class="cls-48" d="M1035.84,553.45c1.04,9.04-6.38,16.61-16.61,16.89-10.27,.29-19.49-6.86-20.54-15.97-1.05-9.11,6.46-16.68,16.75-16.9,10.24-.22,19.35,6.94,20.39,15.98h0Z"/>
                  <path class="cls-48" d="M1140.08,661.75c-5.93,3.7-13.13,5.81-21.05,6.2l-180.05,8.89c-25.59,1.26-49.02-15.38-51.62-37.76l-19.14-164.51c-2.26-19.41,11.87-35.66,32.38-39.69-.27,1.66-.34,2.9-.39,3.54-1.06,13.12,1.59,26.98,9.65,39.05,15.71,23.56,44.19,29.35,70.43,37.79,28.05,9.01,58,29.22,67.88,54.58,4.31,11.06,4.46,22.8,7.59,34.03,9.39,33.71,35.35,61.3,76.09,58.75,2.68-.17,5.44-.53,8.24-.88h0Z"/>
                </g>
              </g>
              <g>
                <path class="cls-15" d="M1139.03,472.64l17.76,155.67c1.6,14.06-4.99,26.77-16.68,34.04-5.93,3.7-12.78,6.02-20.7,6.41l-180.03,8.93c-25.59,1.27-49.36-15.78-51.96-38.16l-19.14-164.5c-2.26-19.41,12.01-35.86,32.52-39.89,3.19-.63,6.89-1.16,10.37-1.16h181.41c23.68,0,44.03,17.41,46.46,38.64Z"/>
                <g>
                  <path class="cls-10" d="M982.47,642.9c-3.62,.16-7-.43-10.05-1.73-11.2-4.79-16.61-18.71-15.19-39.15,1.36-19.53,8.7-42.94,20.62-65.84,21.38-41.06,51.7-69.61,73.75-69.75,3.5-.02,6.77,.66,9.7,2.05,10.73,5.05,15.9,18.73,14.59,38.56-1.26,19-8.23,41.82-19.69,64.33-20.87,41.01-51.19,70.57-73.73,71.53h0Zm69.73-171.26c-9.17,.07-20.99,6.52-33.31,18.22-12.88,12.23-25.49,29.56-35.49,48.8-11.61,22.34-18.76,45.1-20.07,63.99-1.23,17.77,2.98,30.08,11.53,33.75,2.07,.89,4.43,1.29,6.99,1.18,9.43-.39,21.48-7.33,33.91-19.47,12.85-12.56,25.28-30.03,35.04-49.18,11.22-22.01,18.04-44.23,19.26-62.66,1.15-17.29-2.89-29.41-11.11-33.26-2-.94-4.27-1.41-6.76-1.38h0Z"/>
                  <path class="cls-10" d="M1018.72,591.65c-28.45,.93-55.88-1.79-77.1-7.7-22.44-6.25-35.64-15.53-37.01-26.1-1.4-10.78,9.7-21.05,31.09-28.88,20.29-7.42,47.61-11.92,76.8-12.71,1.15-.03,2.31-.06,3.45-.08,28.12-.48,54.62,2.6,74.73,8.62,20.91,6.26,33.06,15.24,34.34,25.34,1.31,10.3-8.83,20.19-28.67,27.91-19.14,7.45-45.44,12.25-74.2,13.48-1.15,.05-2.3,.09-3.44,.13Zm-2.15-70.21c-1.12,.02-2.25,.05-3.38,.08-28.49,.8-55.07,5.2-74.71,12.4-18.6,6.82-28.72,15.48-27.65,23.71,1.04,8.04,12.87,15.8,32.33,21.24,20.53,5.74,47.19,8.4,74.96,7.52,1.12-.03,2.25-.08,3.38-.12,28.09-1.17,53.71-5.8,72.27-13,17.3-6.71,26.6-15.06,25.59-22.93-.98-7.71-11.91-15.22-30.09-20.63-19.48-5.81-45.26-8.76-72.7-8.26h0Z"/>
                  <path class="cls-10" d="M1071.32,637.79h0c-21.92,.8-58.53-25.24-89.21-64.96-17.13-22.18-29.81-44.78-35.67-64.15-6.14-20.29-3.96-34.26,6.09-39.59,2.73-1.45,5.97-2.12,9.61-2.14,22.67-.15,59.66,27.85,89.84,67.65,16.55,21.83,28.71,44.19,34.3,62.99,5.83,19.62,3.77,32.82-5.73,38.35-2.6,1.51-5.74,1.87-9.22,1.87h0Zm-108.56-165.46c-2.58,.02-4.83,.53-6.69,1.52-7.66,4.08-9.01,16.56-3.68,34.2,5.67,18.75,18.02,41.03,34.71,62.67,14.37,18.63,30.88,35.2,46.48,46.71,14.91,11,28.13,16.81,37.25,16.43h0c2.47-.1,4.62-.67,6.39-1.7,7.28-4.23,8.52-16.44,3.43-33.55-5.43-18.24-17.3-39.99-33.49-61.32-14.1-18.58-30.49-35.36-46.17-47.23-15.17-11.49-28.76-17.81-38.24-17.73h0Z"/>
                  <path class="cls-10" d="M1035.84,553.45c1.04,9.04-6.38,16.61-16.61,16.89-10.27,.29-19.49-6.86-20.54-15.97-1.05-9.11,6.46-16.68,16.75-16.9,10.24-.22,19.35,6.94,20.39,15.98h0Z"/>
                </g>
              </g>
            </g>
          </g>
        </g>
      </g>
      <path class="cls-25" d="M205.71,1051.57l5.88,.34c-.05-.13,2.29-100.17,11.29-140.64,16.78-75.41,60.62-134.44,61.1-134.95l-10.54-3.29c-.52,.55-8.84,13.1-20.61,36.26-10.85,21.34-28.3,56.89-36,98.3-7.61,40.89-11.35,143.44-11.13,143.98Z"/>
      <path class="cls-23" d="M312.07,630.15s-38.47-8-56.93,22.49c-18.46,30.49-19.49,83.48-31.8,100.81-12.31,17.33-34.02,90.47-10.94,106.83,23.08,16.36,165.26-.6,173.24-8.06,7.98-7.46-.48-84.27-14.37-106.52-13.89-22.25,19.96-126.88-59.2-115.55Z"/>
      <path class="cls-12" d="M369.38,963.91c43.53-10.8,91.37-76.6,91.37-76.6l-12.26-10.36c-12.69,14.58-65.45,39.69-65.45,39.69,.28-13.34-.07-25.51-.94-36.59-5.85-75.28-34.97-100.36-42.92-105.86-1.28-.89-2.02-1.27-2.02-1.27,0,0-.03,.55-.08,1.58-.12,2.24-.33,6.75-.54,12.93-1.61,46.08-3.54,185.51,32.83,176.48Z"/>
      <path class="cls-12" d="M448.49,876.94c.18-1.78,1.41-27.64,6.68-32.56,5.27-4.92,15.68-11.63,18.67-11.09,2.99,.54,13.15,17.01,8.35,28.35-4.8,11.34-21.45,25.66-21.45,25.66l-12.26-10.36Z"/>
      <path class="cls-12" d="M274.6,1401.58c2.65,10.27,5.57,20.06,8.54,29.16,.64,1.95,1.27,3.87,1.9,5.75,.32,.93,.64,1.86,.95,2.77,.63,1.8,1.24,3.57,1.86,5.3,.8,2.25,1.61,4.45,2.4,6.57,.58,1.58,1.17,3.12,1.74,4.63,8.83,23.07,16.22,37.69,16.22,37.69l17.59-1.18s-6.6-30.61-7.92-74.46c-.04-1.57-.09-3.14-.12-4.74-.07-3.4-.11-6.86-.11-10.4,0-1.45,.01-2.92,.02-4.4,.35-37.76,5.15-82.39,20.46-125.01,12.45-34.64,21.47-67.06,28-96.35,21.06-94.56,16.11-156.68,16.11-156.68l-98.94,11.28-4.61,.53c-.42,44.29-1.59,104.41-2.61,151.42-.18,8.16-.34,15.93-.51,23.15-.68,30.18-1.2,50.82-1.2,50.82-19.03,39.92-12.12,96.27,.23,144.14Z"/>
      <path class="cls-12" d="M227.39,1009.42c18.7-40.87,27.64-52.42,27.96-65.28,.25-10.17-4.9-21.14-14.89-48.04-2.35-6.34-3.98-12.86-4.98-19.45-7.9-51.86,22.87-107.93,42-111.75,5.32-1.37,14.34-20.1,14.23-50.29l2.4,.46,40.27,7.77s-.92,12.35-.94,23.99c-.03,9.7,.51,19.56,2.76,20.72,2.9,.26,34.52,5.76,40.27,14.6,5.65,8.69-.65,9.49,1.56,41.13,2.94,42.26-27.63,92.37-.52,176.84,27.68,86.27-160.44,31.87-150.11,9.29Z"/>
      <path class="cls-8" d="M334.38,722.84s-.92,12.35-.94,23.99c-22.54-.62-34.45-20.66-39.33-31.76l40.27,7.77Z"/>
      <path class="cls-12" d="M341.9,733.86s-53.32,.86-53.36-31.52c-.04-32.37-6.94-54.06,27.1-55.97,34.04-1.92,40.67,10.43,43.38,21.23,2.71,10.8-3.25,65.2-17.12,66.26Z"/>
      <path class="cls-23" d="M339.93,645.58s-14.6,37.98-37,43.59c-22.4,5.61-32.12-.24-32.12-.24,0,0,17.19-13.31,20.75-36.53,0,0,37.36-24.9,48.38-6.82Z"/>
      <path class="cls-23" d="M336.31,648.66s10.9,8.48,13.56,16.72c2.66,8.24,3.86,25.21,8.93,24.64,0,0,11-25.81-1.36-40.42-13.11-15.48-21.13-.94-21.13-.94Z"/>
      <path class="cls-12" d="M158.04,1052.83l16.01,4.68s52.81-85.39,57.61-107.6c1.57-7.23,5.4-21.71,9.89-37.93,9.27-33.59,21.24-74.68,21.24-74.68l3.94-16.64,13.44-56.73s-25.74,2.56-40.79,8.7c-4.98,2.03-8.79,4.45-10.12,7.29-11.06,23.7-22.1,83.51-29.86,126.18-4.32,23.78-7.62,42.24-9.35,46.15-4.8,10.91-19.47,70.96-32.01,100.59Z"/>
      <path class="cls-23" d="M338.34,649.95s-10.4,39.77-38.67,52.51c0,0,28.27-24.43,30.67-50.69,2.4-26.25,8-1.82,8-1.82Z"/>
      <path class="cls-12" d="M217.84,1393.28c5.69,59.16,30.74,97.43,30.74,97.43l8.55,7.58s7.79-43.32,13.42-92.92c5.36-47.14,12.71-97.02,21.02-112.25,12.43-22.75,21.58-69.28,28.18-118.43,10.9-81.34,14.76-169.9,14.76-169.9l-100.32-4.85c-10.09,16.53-14.48,43.64-15.53,74.47-1.1,32.41,1.52,68.93,5.15,101.57,5.07,45.69,12.14,83.78,13.78,92.34,0,.01,0,.02,.01,.04,.22,1.13-.12,2.25-.66,3.27-19.96,38.51-22.85,82.56-19.09,121.65Z"/>
      <path class="cls-19" d="M408.03,926.21c-1.56,19.88-9.22,46.64-38.62,50.82-10.4,1.48-17.84-7.67-23.12-22.89-6.9-19.9-10.1-50.15-11.38-80.57-1.22-28.81-.72-57.79,0-78.26,12.06-1.33,34.2-11.29,40.99-13.77,.2,.2,.39,.41,.57,.62,.14,.16,.28,.33,.4,.5,.24,.32,.43,.63,.61,.95,2.93,5.43,3.36,35.89,4.82,64.64,1.26,25.16,3.31,49.02,8.49,53.7,2.35,2.1,16.81,2.17,16.81,2.17,0,0,1.41,9.72,.43,22.09Z"/>
      <path class="cls-38" d="M334.91,873.57c2.26,53.7,10.5,106.88,34.49,103.46,29.41-4.18,37.07-30.93,38.63-50.82-7.22-.36-19.93-2.07-24.98-9.58-7.23-10.75-29.79-79.93-29.79-79.93,0,0-8.87,15.53-18.34,36.87Z"/>
      <path class="cls-33" d="M366.12,946.51s-59.01,14.43-110.78-2.37c0,0-28.42,58.81-36.24,84.02-7.82,25.2-66.89,347.79-66.89,347.79,0,0,129.99,36.64,216.39,5,0,0,25.46-344.87,14.13-381.01-11.33-36.14-16.62-53.43-16.62-53.43Z"/>
      <path class="cls-19" d="M382.29,848.03c-4.32,41.57-16.17,97.97-16.17,97.97-6.53,3.37-13.19,5.84-19.84,7.59-45.85,12.14-90.93-9.96-90.93-9.96,0,0-.07-1.28-.18-2.84-.09-1.29-.22-2.73-.38-3.8-.34-2.35-11.22-27.59-11.22-27.59,0,0-.41,1.97-1.13,5.31-3.98,18.45-17.63,79.08-26.01,84.54-4.85,3.15-20.37,3.2-34.94-.67-15.16-4.02-29.28-12.29-29.28-25.74,0-17.21,32.12-95.06,55.26-148.39,.01-.06,.02-.08,.02-.08,12.32-28.44,19.48-48.22,28.9-50.43,0,0,63.39,25.14,98.5,21.29,12.06-1.33,34.2-11.25,40.99-13.73,.2,.2,.39,.41,.57,.62,.14,.16,.28,.33,.4,.5,.14,.18,.26,.37,.37,.55,5.14,7.39,4.33,19.64,4.6,24.32,.51,9.14,2.39,21.92,.46,40.53Z"/>
      <path class="cls-38" d="M243.56,909.82s10.88,25.31,11.23,27.67c.15,1.06,.29,2.52,.38,3.81,5.26,4.18,11.62,7.36,18.1,9.28,18.41,5.44,26.41-28.96,25.31-46.12-1.1-17.16-27.14-66.14-35.81-67.16-8.66-1.01-19.22,72.53-19.22,72.53Z"/>
      <path class="cls-14" d="M242.44,915.14c.72-3.36,1.12-5.32,1.12-5.32-.57,1.81-.95,3.58-1.12,5.32Z"/>
      <path class="cls-3" d="M318.46,957.48c33.61,0,46.95-9.19,47.97-9.96l2.17-15.43c-.32,.23-45.42,26.63-115.21,1.35l1.48,11.69c26.84,9.72,46.13,12.35,63.59,12.35Z"/>
      <path class="cls-38" d="M152.22,973.45c0,13.49,14.12,21.78,29.28,25.82-20.89-24.24,24.82-170.91,25.98-174.66-23.13,53.5-55.26,131.58-55.26,148.84Z"/>
      <g>
        <path class="cls-36" d="M298.09,1507.83h11.22c3.76-.58,6.54-1.64,10.39-2.13,5.86-.75,8.55,1.59,9.09,2.13,.07,.07,.11,.11,.11,.11h47.69c1.2-1.67,.05-5.54-1.08-8.38-.76-1.93-2.42-3.4-4.46-3.98-5.06-1.43-15.03-2.7-24.15-10.75-5.14-4.52-24.8-16.63-24.8-16.63l-.1-.02c-.43,0-2.49,.62-11.43,7.98-4.62,3.8-12.51-5.36-12.51-5.36,0,0-1.48,1.19-2.58,3.42-.89,1.75-1.54,4.16-1.02,7.14,.71,4.19-1.58,11.97-3.42,17.23-1.11,3.19-2.05,5.45-2.05,5.45,0,0-.54,2.63,9.12,3.81Z"/>
        <path class="cls-44" d="M295.45,1474.2c2.68,1.84,8.34,5.47,12.09,5.94,5.06,.65,14.54-11.95,14.54-11.95l-.1-.02c-.43,0-2.49,.62-11.43,7.98-4.62,3.8-12.51-5.36-12.51-5.36,0,0-1.48,1.19-2.58,3.42Z"/>
        <path class="cls-44" d="M298.09,1507.83h11.22c3.76-.58,6.54-1.64,10.39-2.13,5.86-.75,8.55,1.59,9.09,2.13,.07,.07,.11,.11,.11,.11h47.69c1.2-1.67,.05-5.54-1.08-8.38-1.45-1.26-1.86,5.45-2.66,6.52-.8,1.07-38.9,.39-41.1-1.17-2.2-1.56-8.8-4.29-18-2.15-8.01,1.87-19.81-2.92-22.73-4.19-1.11,3.19-2.05,5.45-2.05,5.45,0,0-.54,2.63,9.12,3.81Z"/>
      </g>
      <g>
        <path class="cls-37" d="M238.18,1507.83h11.23c3.76-.58,6.54-1.64,10.39-2.13,5.86-.75,8.55,1.59,9.09,2.13,.07,.07,.1,.11,.1,.11h47.69c1.2-1.67,.05-5.54-1.08-8.38-.76-1.93-2.42-3.4-4.46-3.98-5.06-1.43-15.03-2.7-24.16-10.75-5.14-4.52-24.8-16.63-24.8-16.63l-.1-.02c-.43,0-2.49,.62-11.43,7.98-4.62,3.8-12.51-5.36-12.51-5.36,0,0-1.48,1.19-2.58,3.42-.89,1.75-1.54,4.16-1.02,7.14,.71,4.19-1.58,11.97-3.42,17.23-1.11,3.19-2.05,5.45-2.05,5.45,0,0-.54,2.63,9.12,3.81Z"/>
        <path class="cls-44" d="M235.55,1474.2c2.68,1.84,8.34,5.47,12.09,5.94,5.06,.65,14.54-11.95,14.54-11.95l-.1-.02c-.43,0-2.49,.62-11.43,7.98-4.62,3.8-12.51-5.36-12.51-5.36,0,0-1.48,1.19-2.58,3.42Z"/>
        <path class="cls-44" d="M238.18,1507.83h11.23c3.76-.58,6.54-1.64,10.39-2.13,5.86-.75,8.55,1.59,9.09,2.13,.07,.07,.1,.11,.1,.11h47.69c1.2-1.67,.05-5.54-1.08-8.38-1.45-1.26-1.86,5.45-2.66,6.52-.8,1.07-38.9,.39-41.1-1.17-2.2-1.56-8.8-4.29-18-2.15-8.01,1.87-19.81-2.92-22.73-4.19-1.11,3.19-2.05,5.45-2.05,5.45,0,0-.54,2.63,9.12,3.81Z"/>
      </g>
      <path class="cls-12" d="M159.18,1050.23s-4.87,11.18-9.94,14.3c-5.07,3.12-9.88,10.6-10.94,16.64-1.93,11.07,6.77,17.93,13.18,17.93s12.52-8.51,16.28-28.82c.21-1.12,6.28-12.77,6.28-12.77l-14.87-7.28Z"/>
      <g>
        <polygon class="cls-12" points="472.7 819.27 471.95 826.77 469.6 850.38 468.09 865.51 437.15 865.51 435.25 850.38 432.28 826.77 431.33 819.27 472.7 819.27"/>
        <polygon class="cls-18" points="474.9 819.27 428.89 819.27 429.79 814.77 473.78 814.77 474.9 819.27"/>
        <polygon class="cls-18" points="471.95 826.77 469.6 850.38 435.25 850.38 432.28 826.77 471.95 826.77"/>
      </g>
      <path class="cls-12" d="M476.02,835.27s-7.81-8.5-15.63-2.01c-7.82,6.5,.52,20.37,7.3,24.17s8.95,5.77,8.95,5.77l-.62-27.93Z"/>
      <path class="cls-25" d="M298.69,1052.03l-5.88-.43c.07-.12,11.5-100.23,8.15-141.79-6.26-77.43-41.59-142.08-42-142.65l10.89-1.9c.44,.61,6.96,14.23,15.44,38.88,7.82,22.72,20.22,60.48,22.16,102.8,1.92,41.79-8.47,144.58-8.77,145.09Z"/>
      <g>
        <path class="cls-43" d="M227.45,1030.02s5.71-13.7,14.79-17.12l46.37,8.52s-11.45,10.61-12.52,17.54l-48.64-8.93Z"/>
        <path class="cls-16" d="M285.66,1107.34l-79.25-14.56c-3.72-.68-6.17-4.18-5.47-7.81l9.9-51.21c.7-3.63,4.29-6.02,8.01-5.33l79.26,14.56c3.72,.68,6.17,4.18,5.47,7.81l-9.9,51.21c-.7,3.63-4.29,6.02-8.01,5.33Z"/>
        <g>
          <rect class="cls-12" x="219.02" y="1001.74" width="37.9" height="47.35" transform="translate(8.75 -1.99) rotate(.49)"/>
          <rect class="cls-12" x="216.85" y="1001.72" width="37.9" height="47.35" transform="translate(8.72 -1.97) rotate(.49)"/>
        </g>
        <g>
          <polygon class="cls-28" points="248.49 1067.78 218.4 1045.33 247.93 1007.73 278.02 1030.18 248.49 1067.78"/>
          <polygon class="cls-21" points="245.13 1065.27 215.03 1042.82 244.56 1005.22 274.66 1027.67 245.13 1065.27"/>
        </g>
        <path class="cls-25" d="M266.3,1103.79l-75.89-13.94c-4.65-.86-7.72-5.23-6.84-9.76l9.27-47.92c.88-4.54,5.36-7.52,10.02-6.67l75.89,13.94c4.65,.85,7.72,5.23,6.84,9.76l-9.27,47.92c-.88,4.54-5.36,7.52-10.02,6.66Z"/>
      </g>
    </g>
  </g>
</svg>