<?xml version="1.0" encoding="UTF-8"?>
<svg xmlns="http://www.w3.org/2000/svg" viewBox="0 0 500 500">
  <defs>
    <style>
      .cls-1 {
        opacity: .1;
      }

      .cls-2 {
        fill: #fab27b;
      }

      .cls-3 {
        fill: #ed847e;
      }

      .cls-4 {
        fill: #ebebeb;
      }

      .cls-5 {
        fill: #f0f0f0;
      }

      .cls-6 {
        fill: #ebb376;
      }

      .cls-7 {
        fill: #f5f5f5;
      }

      .cls-8, .cls-9, .cls-10, .cls-11, .cls-12, .cls-13, .cls-14, .cls-15, .cls-16, .cls-17 {
        fill: #fff;
      }

      .cls-18 {
        fill: #ffc3bd;
      }

      .cls-19 {
        fill: #e6ae76;
      }

      .cls-20 {
        fill: #d08245;
      }

      .cls-21 {
        fill: #de5753;
      }

      .cls-22 {
        fill: #e0e0e0;
      }

      .cls-23, .cls-24 {
        fill: #407bff;
      }

      .cls-25 {
        fill: #263238;
      }

      .cls-9, .cls-10, .cls-11, .cls-26 {
        isolation: isolate;
      }

      .cls-9, .cls-15 {
        opacity: .7;
      }

      .cls-10, .cls-27, .cls-13, .cls-24 {
        opacity: .6;
      }

      .cls-11, .cls-17 {
        opacity: .4;
      }

      .cls-12, .cls-28, .cls-26 {
        opacity: .2;
      }

      .cls-29, .cls-16 {
        opacity: .3;
      }

      .cls-27 {
        fill: #fafafa;
      }

      .cls-14 {
        opacity: .5;
      }
    </style>
  </defs>
  <g id="Background_Complete" data-name="Background Complete">
    <g>
      <rect class="cls-4" y="382.4" width="500" height=".25"/>
      <rect class="cls-4" x="416.78" y="398.49" width="33.12" height=".25"/>
      <rect class="cls-4" x="322.53" y="401.21" width="8.69" height=".25"/>
      <rect class="cls-4" x="396.59" y="389.21" width="19.19" height=".25"/>
      <rect class="cls-4" x="52.46" y="390.89" width="43.19" height=".25"/>
      <rect class="cls-4" x="104.56" y="390.89" width="6.33" height=".25"/>
      <rect class="cls-4" x="131.47" y="395.11" width="93.68" height=".25"/>
      <path class="cls-4" d="M237.01,337.8H43.91c-3.15,0-5.71-2.56-5.71-5.71V60.66c0-3.15,2.56-5.71,5.71-5.71H237.01c3.15,0,5.71,2.56,5.71,5.71V332.09c0,3.15-2.56,5.71-5.71,5.71ZM43.91,55.2c-3.01,0-5.46,2.45-5.46,5.46V332.09c0,3.01,2.45,5.46,5.46,5.46H237.01c3.01,0,5.46-2.45,5.46-5.46V60.66c0-3.01-2.45-5.46-5.46-5.46H43.91Z"/>
      <path class="cls-4" d="M453.31,337.8h-193.1c-3.15,0-5.71-2.56-5.71-5.71V60.66c0-3.15,2.56-5.71,5.71-5.71h193.1c3.15,0,5.71,2.56,5.71,5.71V332.09c0,3.15-2.56,5.71-5.71,5.71ZM260.21,55.2c-3.01,0-5.46,2.45-5.46,5.46V332.09c0,3.01,2.45,5.46,5.46,5.46h193.1c3.01,0,5.46-2.45,5.46-5.46V60.66c0-3.01-2.45-5.46-5.46-5.46h-193.1Z"/>
    </g>
    <g>
      <path class="cls-22" d="M407.79,344.39s11.93-17.08,3.71-36.68c-8.23-19.6-3.39-27.07-3.39-27.07l7.97,15.87s7.5-11.73,4.55-25.5c-2.95-13.77,3.84-36.92,3.84-36.92,0,0-2.44,26.81,1.84,37.45,0,0,6.26-10.32,8.49-20.74,2.24-10.42,9.07-31,9.07-31l-10.48,63.8,22.96-28.79s-23.41,39-26.53,46.61l25.44-12.69s-12.47,19.56-22.33,23.3c-9.87,3.74-20.58,34.24-20.58,34.24l-4.56-1.87Z"/>
      <path class="cls-5" d="M416.27,352.06s-10.36-20.96,2.07-41.33c12.43-20.36,8.33-29.46,8.33-29.46l-11.52,16.27s-6.34-14.28-.75-29.05c5.59-14.78,1.97-41.61,1.97-41.61,0,0-1.81,30.15-8.35,41.24,0,0-5.2-12.51-5.93-24.44-.72-11.94-4.84-35.93-4.84-35.93l.88,72.56-20.62-35.82s19.4,47.21,21.58,56.18l-26.08-18.37c1.64-.66,16.41,21.44,20.85,29.61,5.65,10.4,17.06,41.45,17.06,41.45l5.37-1.3Z"/>
      <polygon class="cls-7" points="381.82 342.94 443.63 342.94 438.63 382.62 386.82 382.62 381.82 342.94"/>
    </g>
    <g>
      <path class="cls-22" d="M384.11,152.8c-2.14-1.12-3.82-2.68-5.03-4.69-1.22-2.01-1.82-4.29-1.82-6.84s.61-4.83,1.82-6.83c1.21-2.01,2.89-3.57,5.03-4.69,2.14-1.12,4.54-1.68,7.21-1.68,2.45,0,4.64,.43,6.56,1.3,1.92,.87,3.51,2.12,4.76,3.75l-5.37,4.8c-1.56-1.97-3.4-2.96-5.52-2.96-1.78,0-3.21,.57-4.29,1.71-1.08,1.14-1.62,2.68-1.62,4.6s.54,3.46,1.62,4.6c1.08,1.14,2.51,1.71,4.29,1.71,2.12,0,3.95-.98,5.52-2.96l5.37,4.8c-1.25,1.63-2.84,2.89-4.76,3.75-1.92,.87-4.11,1.3-6.56,1.3-2.67,0-5.07-.56-7.21-1.68Z"/>
      <path class="cls-22" d="M423.06,144.35h-5.95v5.77h-6.49v-5.77h-5.95v-6.13h5.95v-5.77h6.49v5.77h5.95v6.13Z"/>
    </g>
    <g>
      <path class="cls-22" d="M114.6,226.43c-1.32-.69-2.35-1.65-3.1-2.89-.75-1.24-1.12-2.64-1.12-4.21s.37-2.97,1.12-4.21c.75-1.24,1.78-2.2,3.1-2.89,1.32-.69,2.8-1.03,4.44-1.03,1.51,0,2.86,.27,4.04,.8s2.16,1.3,2.93,2.31l-3.31,2.96c-.96-1.21-2.1-1.82-3.4-1.82-1.1,0-1.98,.35-2.64,1.06-.67,.7-1,1.65-1,2.83s.33,2.13,1,2.83c.67,.7,1.55,1.06,2.64,1.06,1.3,0,2.44-.61,3.4-1.82l3.31,2.96c-.77,1.01-1.75,1.78-2.93,2.31-1.19,.53-2.53,.8-4.04,.8-1.64,0-3.13-.34-4.44-1.03Z"/>
      <path class="cls-22" d="M138.6,221.22h-3.67v3.56h-4v-3.56h-3.67v-3.78h3.67v-3.55h4v3.55h3.67v3.78Z"/>
    </g>
    <g>
      <path class="cls-22" d="M262.51,87.86c-1.16-.61-2.07-1.45-2.73-2.54-.66-1.09-.99-2.33-.99-3.71s.33-2.62,.99-3.71c.66-1.09,1.57-1.94,2.73-2.54,1.16-.61,2.47-.91,3.91-.91,1.33,0,2.52,.23,3.56,.7,1.04,.47,1.9,1.15,2.58,2.04l-2.92,2.6c-.85-1.07-1.85-1.6-2.99-1.6-.97,0-1.74,.31-2.33,.93-.59,.62-.88,1.45-.88,2.49s.29,1.88,.88,2.5c.59,.62,1.36,.93,2.33,.93,1.15,0,2.15-.53,2.99-1.6l2.92,2.6c-.68,.89-1.54,1.57-2.58,2.03-1.04,.47-2.23,.7-3.56,.7-1.45,0-2.75-.3-3.91-.91Z"/>
      <path class="cls-22" d="M275.49,88.39c-1.08-.25-1.96-.6-2.65-1.03l1.49-3.37c.65,.38,1.38,.68,2.19,.91,.81,.23,1.58,.34,2.33,.34,.64,0,1.1-.06,1.37-.19,.27-.12,.41-.31,.41-.56,0-.29-.18-.5-.54-.65-.36-.14-.95-.3-1.77-.47-1.06-.22-1.94-.46-2.64-.71-.7-.25-1.32-.67-1.84-1.25-.52-.58-.78-1.37-.78-2.36,0-.86,.24-1.64,.72-2.35,.48-.7,1.2-1.26,2.16-1.66,.96-.4,2.12-.61,3.49-.61,.94,0,1.86,.1,2.77,.3,.91,.2,1.71,.5,2.4,.89l-1.39,3.35c-1.34-.68-2.62-1.02-3.82-1.02s-1.78,.29-1.78,.86c0,.27,.18,.48,.53,.62,.35,.14,.93,.28,1.74,.44,1.04,.2,1.92,.42,2.64,.68,.72,.25,1.34,.67,1.87,1.24,.53,.57,.79,1.36,.79,2.35,0,.86-.24,1.64-.72,2.34-.48,.7-1.2,1.25-2.16,1.66-.96,.41-2.12,.62-3.49,.62-1.13,0-2.24-.13-3.32-.38Z"/>
      <path class="cls-22" d="M288.35,88.39c-1.08-.25-1.96-.6-2.65-1.03l1.49-3.37c.65,.38,1.38,.68,2.19,.91,.81,.23,1.58,.34,2.33,.34,.64,0,1.1-.06,1.37-.19,.27-.12,.41-.31,.41-.56,0-.29-.18-.5-.54-.65-.36-.14-.95-.3-1.77-.47-1.06-.22-1.94-.46-2.64-.71-.7-.25-1.32-.67-1.84-1.25-.52-.58-.78-1.37-.78-2.36,0-.86,.24-1.64,.72-2.35,.48-.7,1.2-1.26,2.16-1.66,.96-.4,2.12-.61,3.49-.61,.94,0,1.86,.1,2.77,.3,.91,.2,1.71,.5,2.4,.89l-1.39,3.35c-1.34-.68-2.62-1.02-3.82-1.02s-1.78,.29-1.78,.86c0,.27,.18,.48,.53,.62,.35,.14,.93,.28,1.74,.44,1.04,.2,1.92,.42,2.64,.68,.72,.25,1.34,.67,1.87,1.24,.53,.57,.79,1.36,.79,2.35,0,.86-.24,1.64-.72,2.34-.48,.7-1.2,1.25-2.16,1.66-.96,.41-2.12,.62-3.49,.62-1.13,0-2.24-.13-3.32-.38Z"/>
    </g>
    <g>
      <path class="cls-22" d="M153.09,261.91c-.58-.3-1.04-.73-1.36-1.27-.33-.54-.49-1.16-.49-1.85s.16-1.31,.49-1.85c.33-.54,.78-.97,1.36-1.27,.58-.3,1.23-.45,1.96-.45,.67,0,1.26,.12,1.78,.35,.52,.23,.95,.57,1.29,1.02l-1.46,1.3c-.42-.53-.92-.8-1.5-.8-.48,0-.87,.15-1.16,.46-.29,.31-.44,.73-.44,1.25s.15,.94,.44,1.25c.29,.31,.68,.46,1.16,.46,.57,0,1.07-.27,1.5-.8l1.46,1.3c-.34,.44-.77,.78-1.29,1.02-.52,.23-1.12,.35-1.78,.35-.72,0-1.38-.15-1.96-.45Z"/>
      <path class="cls-22" d="M159.58,262.17c-.54-.13-.98-.3-1.33-.51l.74-1.68c.33,.19,.69,.34,1.1,.45,.4,.11,.79,.17,1.16,.17,.32,0,.55-.03,.69-.09,.14-.06,.21-.15,.21-.28,0-.14-.09-.25-.27-.32-.18-.07-.47-.15-.89-.23-.53-.11-.97-.23-1.32-.36-.35-.13-.66-.34-.92-.63-.26-.29-.39-.68-.39-1.18,0-.43,.12-.82,.36-1.17,.24-.35,.6-.63,1.08-.83,.48-.2,1.06-.3,1.75-.3,.47,0,.93,.05,1.38,.15s.85,.25,1.2,.45l-.69,1.67c-.67-.34-1.31-.51-1.91-.51s-.89,.14-.89,.43c0,.14,.09,.24,.26,.31,.18,.07,.47,.14,.87,.22,.52,.1,.96,.21,1.32,.34,.36,.13,.67,.33,.93,.62,.26,.29,.4,.68,.4,1.17,0,.43-.12,.82-.36,1.17-.24,.35-.6,.63-1.08,.83-.48,.21-1.06,.31-1.75,.31-.57,0-1.12-.06-1.66-.19Z"/>
      <path class="cls-22" d="M166.01,262.17c-.54-.13-.98-.3-1.33-.51l.74-1.68c.33,.19,.69,.34,1.1,.45,.4,.11,.79,.17,1.16,.17,.32,0,.55-.03,.69-.09,.14-.06,.21-.15,.21-.28,0-.14-.09-.25-.27-.32-.18-.07-.47-.15-.89-.23-.53-.11-.97-.23-1.32-.36-.35-.13-.66-.34-.92-.63-.26-.29-.39-.68-.39-1.18,0-.43,.12-.82,.36-1.17,.24-.35,.6-.63,1.08-.83,.48-.2,1.06-.3,1.75-.3,.47,0,.93,.05,1.38,.15,.45,.1,.85,.25,1.2,.45l-.69,1.67c-.67-.34-1.31-.51-1.91-.51s-.89,.14-.89,.43c0,.14,.09,.24,.26,.31,.18,.07,.47,.14,.87,.22,.52,.1,.96,.21,1.32,.34,.36,.13,.67,.33,.93,.62,.26,.29,.4,.68,.4,1.17,0,.43-.12,.82-.36,1.17-.24,.35-.6,.63-1.08,.83-.48,.21-1.06,.31-1.75,.31-.57,0-1.12-.06-1.66-.19Z"/>
    </g>
    <g>
      <path class="cls-22" d="M208.3,82c.58,.26,1.02,.62,1.33,1.1,.31,.48,.47,1.04,.47,1.68s-.16,1.2-.47,1.68c-.31,.48-.76,.85-1.33,1.1-.58,.26-1.25,.38-2.03,.38h-1.21v2.06h-2.83v-8.4h4.04c.78,0,1.45,.13,2.03,.38Zm-1.34,3.51c.19-.17,.29-.41,.29-.73s-.1-.55-.29-.73c-.19-.17-.48-.26-.86-.26h-1.03v1.97h1.03c.38,0,.67-.09,.86-.26Z"/>
      <path class="cls-22" d="M219.3,81.61v8.4h-2.83v-3.1h-2.62v3.1h-2.83v-8.4h2.83v2.98h2.62v-2.98h2.83Z"/>
      <path class="cls-22" d="M226.74,82c.58,.26,1.02,.62,1.33,1.1,.31,.48,.47,1.04,.47,1.68s-.16,1.2-.47,1.68c-.31,.48-.76,.85-1.33,1.1-.58,.26-1.25,.38-2.03,.38h-1.21v2.06h-2.83v-8.4h4.04c.78,0,1.45,.13,2.03,.38Zm-1.34,3.51c.19-.17,.29-.41,.29-.73s-.1-.55-.29-.73c-.19-.17-.48-.26-.86-.26h-1.03v1.97h1.03c.38,0,.67-.09,.86-.26Z"/>
    </g>
    <g>
      <path class="cls-22" d="M321.05,272.9v12.83h-4.33v-4.73h-4v4.73h-4.33v-12.83h4.33v4.55h4v-4.55h4.33Z"/>
      <path class="cls-22" d="M330.4,285.39c-.62,.35-1.47,.53-2.55,.53-1.41,0-2.49-.34-3.24-1.02-.76-.68-1.14-1.7-1.14-3.05v-2.57h-1.37v-3.02h1.37v-2.8h4.14v2.8h2.05v3.02h-2.05v2.53c0,.3,.08,.54,.24,.71,.16,.17,.37,.26,.62,.26,.35,0,.67-.09,.94-.28l.99,2.88Z"/>
      <path class="cls-22" d="M347.62,276.64c.73,.75,1.09,1.87,1.09,3.37v5.72h-4.14v-5c0-1.15-.37-1.72-1.12-1.72-.39,0-.71,.15-.94,.44-.24,.29-.36,.76-.36,1.39v4.89h-4.14v-5c0-1.15-.37-1.72-1.12-1.72-.39,0-.71,.15-.94,.44-.24,.29-.36,.76-.36,1.39v4.89h-4.14v-10.03h3.94v.93c.75-.75,1.69-1.12,2.84-1.12,.67,0,1.28,.13,1.81,.38,.54,.25,.98,.63,1.32,1.15,.4-.49,.89-.86,1.47-1.13,.57-.26,1.2-.39,1.89-.39,1.21,0,2.18,.37,2.91,1.12Z"/>
      <path class="cls-22" d="M350.51,272.13h4.14v13.6h-4.14v-13.6Z"/>
    </g>
    <g>
      <path class="cls-22" d="M108.5,130.69v8.26h-2.78v-3.04h-2.57v3.04h-2.78v-8.26h2.78v2.93h2.57v-2.93h2.78Z"/>
      <path class="cls-22" d="M114.52,138.72c-.4,.23-.95,.34-1.64,.34-.9,0-1.6-.22-2.09-.65-.49-.44-.73-1.09-.73-1.96v-1.65h-.88v-1.95h.88v-1.81h2.67v1.81h1.32v1.95h-1.32v1.63c0,.2,.05,.35,.15,.46,.1,.11,.24,.17,.4,.17,.23,0,.43-.06,.6-.18l.64,1.85Z"/>
      <path class="cls-22" d="M125.61,133.09c.47,.48,.7,1.2,.7,2.17v3.68h-2.67v-3.22c0-.74-.24-1.11-.72-1.11-.25,0-.45,.09-.61,.28-.15,.19-.23,.49-.23,.9v3.15h-2.67v-3.22c0-.74-.24-1.11-.72-1.11-.25,0-.45,.09-.61,.28-.15,.19-.23,.49-.23,.9v3.15h-2.67v-6.45h2.54v.6c.48-.48,1.09-.72,1.83-.72,.43,0,.82,.08,1.17,.24s.63,.41,.85,.74c.26-.31,.57-.56,.94-.73,.37-.17,.77-.25,1.22-.25,.78,0,1.4,.24,1.87,.72Z"/>
      <path class="cls-22" d="M127.46,130.19h2.67v8.75h-2.67v-8.75Z"/>
    </g>
  </g>
  <g id="Shadow">
    <ellipse id="_Path_" data-name="&amp;lt;Path&amp;gt;" class="cls-7" cx="250" cy="416.24" rx="193.89" ry="11.32"/>
  </g>
  <g id="Board">
    <g>
      <g>
        <g>
          <g>
            <rect class="cls-25" x="138.42" y="111.71" width="220.92" height="137.1"/>
            <rect class="cls-14" x="138.42" y="111.71" width="220.92" height="137.1"/>
          </g>
          <rect class="cls-7" x="140.77" y="114.29" width="216.21" height="131.94"/>
        </g>
        <g>
          <rect class="cls-25" x="133.26" y="248.82" width="230.44" height="3.86"/>
          <rect class="cls-16" x="133.26" y="248.82" width="230.44" height="3.86"/>
        </g>
      </g>
      <g>
        <g>
          <path class="cls-23" d="M212.37,145.94c-.97-.51-1.72-1.23-2.28-2.14-.55-.92-.83-1.95-.83-3.11s.28-2.2,.83-3.11c.55-.92,1.31-1.63,2.28-2.14,.97-.51,2.06-.77,3.27-.77,1.06,0,2.01,.19,2.86,.56,.85,.38,1.56,.92,2.12,1.62l-2.09,1.89c-.75-.9-1.66-1.36-2.73-1.36-.63,0-1.19,.14-1.68,.41-.49,.28-.87,.66-1.14,1.17-.27,.5-.41,1.08-.41,1.73s.13,1.23,.41,1.73c.27,.5,.65,.89,1.14,1.17,.49,.28,1.05,.41,1.68,.41,1.07,0,1.98-.45,2.73-1.36l2.09,1.89c-.56,.71-1.27,1.25-2.12,1.62-.85,.38-1.8,.56-2.86,.56-1.21,0-2.3-.26-3.27-.77Z"/>
          <path class="cls-23" d="M224.37,145.93c-.98-.52-1.74-1.24-2.3-2.15s-.84-1.95-.84-3.1,.28-2.18,.84-3.1,1.32-1.63,2.3-2.15c.98-.52,2.08-.78,3.3-.78s2.33,.26,3.3,.78c.98,.52,1.74,1.24,2.3,2.15s.84,1.95,.84,3.1-.28,2.18-.84,3.1-1.32,1.63-2.3,2.15-2.08,.78-3.3,.78-2.33-.26-3.3-.78Zm4.89-2.35c.47-.28,.85-.66,1.13-1.17,.28-.5,.41-1.08,.41-1.73s-.14-1.23-.41-1.73c-.28-.5-.65-.89-1.13-1.17-.47-.28-1-.41-1.59-.41s-1.11,.14-1.59,.41c-.47,.28-.85,.66-1.13,1.17-.28,.5-.41,1.08-.41,1.73s.14,1.23,.41,1.73c.28,.5,.65,.89,1.13,1.17,.47,.28,1,.41,1.59,.41s1.11-.14,1.59-.41Z"/>
          <path class="cls-23" d="M235.84,134.89h5.48c1.27,0,2.39,.24,3.38,.71,.98,.47,1.74,1.15,2.28,2.02,.54,.87,.81,1.89,.81,3.06s-.27,2.19-.81,3.06c-.54,.87-1.3,1.55-2.28,2.02-.98,.47-2.11,.71-3.38,.71h-5.48v-11.59Zm5.35,8.97c.99,0,1.79-.28,2.39-.84,.6-.56,.9-1.34,.9-2.33s-.3-1.77-.9-2.33c-.6-.56-1.4-.84-2.39-.84h-2.07v6.36h2.07Z"/>
          <path class="cls-23" d="M249.51,134.89h3.28v11.59h-3.28v-11.59Z"/>
          <path class="cls-23" d="M266.15,134.89v11.59h-2.7l-5.12-6.17v6.17h-3.21v-11.59h2.7l5.12,6.17v-6.17h3.21Z"/>
          <path class="cls-23" d="M276.23,140.43h2.9v4.8c-.66,.47-1.42,.84-2.28,1.09-.86,.25-1.72,.38-2.58,.38-1.21,0-2.31-.26-3.28-.77-.97-.51-1.73-1.23-2.28-2.14-.55-.92-.83-1.95-.83-3.11s.28-2.2,.83-3.11c.55-.92,1.32-1.63,2.3-2.14,.98-.51,2.09-.77,3.33-.77,1.08,0,2.05,.18,2.91,.55,.86,.36,1.58,.89,2.15,1.57l-2.09,1.89c-.78-.86-1.72-1.29-2.81-1.29-.99,0-1.79,.3-2.4,.9-.61,.6-.91,1.4-.91,2.41,0,.64,.14,1.21,.41,1.71,.28,.5,.66,.89,1.16,1.18,.5,.28,1.07,.42,1.71,.42s1.22-.13,1.77-.38v-3.18Z"/>
        </g>
        <g class="cls-28">
          <path class="cls-8" d="M212.37,145.94c-.97-.51-1.72-1.23-2.28-2.14-.55-.92-.83-1.95-.83-3.11s.28-2.2,.83-3.11c.55-.92,1.31-1.63,2.28-2.14,.97-.51,2.06-.77,3.27-.77,1.06,0,2.01,.19,2.86,.56,.85,.38,1.56,.92,2.12,1.62l-2.09,1.89c-.75-.9-1.66-1.36-2.73-1.36-.63,0-1.19,.14-1.68,.41-.49,.28-.87,.66-1.14,1.17-.27,.5-.41,1.08-.41,1.73s.13,1.23,.41,1.73c.27,.5,.65,.89,1.14,1.17,.49,.28,1.05,.41,1.68,.41,1.07,0,1.98-.45,2.73-1.36l2.09,1.89c-.56,.71-1.27,1.25-2.12,1.62-.85,.38-1.8,.56-2.86,.56-1.21,0-2.3-.26-3.27-.77Z"/>
          <path class="cls-8" d="M224.37,145.93c-.98-.52-1.74-1.24-2.3-2.15s-.84-1.95-.84-3.1,.28-2.18,.84-3.1,1.32-1.63,2.3-2.15c.98-.52,2.08-.78,3.3-.78s2.33,.26,3.3,.78c.98,.52,1.74,1.24,2.3,2.15s.84,1.95,.84,3.1-.28,2.18-.84,3.1-1.32,1.63-2.3,2.15-2.08,.78-3.3,.78-2.33-.26-3.3-.78Zm4.89-2.35c.47-.28,.85-.66,1.13-1.17,.28-.5,.41-1.08,.41-1.73s-.14-1.23-.41-1.73c-.28-.5-.65-.89-1.13-1.17-.47-.28-1-.41-1.59-.41s-1.11,.14-1.59,.41c-.47,.28-.85,.66-1.13,1.17-.28,.5-.41,1.08-.41,1.73s.14,1.23,.41,1.73c.28,.5,.65,.89,1.13,1.17,.47,.28,1,.41,1.59,.41s1.11-.14,1.59-.41Z"/>
          <path class="cls-8" d="M235.84,134.89h5.48c1.27,0,2.39,.24,3.38,.71,.98,.47,1.74,1.15,2.28,2.02,.54,.87,.81,1.89,.81,3.06s-.27,2.19-.81,3.06c-.54,.87-1.3,1.55-2.28,2.02-.98,.47-2.11,.71-3.38,.71h-5.48v-11.59Zm5.35,8.97c.99,0,1.79-.28,2.39-.84,.6-.56,.9-1.34,.9-2.33s-.3-1.77-.9-2.33c-.6-.56-1.4-.84-2.39-.84h-2.07v6.36h2.07Z"/>
          <path class="cls-8" d="M249.51,134.89h3.28v11.59h-3.28v-11.59Z"/>
          <path class="cls-8" d="M266.15,134.89v11.59h-2.7l-5.12-6.17v6.17h-3.21v-11.59h2.7l5.12,6.17v-6.17h3.21Z"/>
          <path class="cls-8" d="M276.23,140.43h2.9v4.8c-.66,.47-1.42,.84-2.28,1.09-.86,.25-1.72,.38-2.58,.38-1.21,0-2.31-.26-3.28-.77-.97-.51-1.73-1.23-2.28-2.14-.55-.92-.83-1.95-.83-3.11s.28-2.2,.83-3.11c.55-.92,1.32-1.63,2.3-2.14,.98-.51,2.09-.77,3.33-.77,1.08,0,2.05,.18,2.91,.55,.86,.36,1.58,.89,2.15,1.57l-2.09,1.89c-.78-.86-1.72-1.29-2.81-1.29-.99,0-1.79,.3-2.4,.9-.61,.6-.91,1.4-.91,2.41,0,.64,.14,1.21,.41,1.71,.28,.5,.66,.89,1.16,1.18,.5,.28,1.07,.42,1.71,.42s1.22-.13,1.77-.38v-3.18Z"/>
        </g>
      </g>
      <g>
        <g>
          <rect class="cls-23" x="269.19" y="157.5" width="28.01" height="3.6" rx="1.76" ry="1.76"/>
          <rect class="cls-23" x="269.19" y="165.9" width="68.96" height="3.6" rx="1.76" ry="1.76"/>
          <path class="cls-23" d="M270.95,173.1h63.41c.97,0,1.76,.79,1.76,1.76v.08c0,.97-.79,1.76-1.76,1.76h-63.41c-.97,0-1.76-.79-1.76-1.76v-.08c0-.97,.79-1.76,1.76-1.76Z"/>
          <path class="cls-23" d="M270.95,180.3h70.16c.97,0,1.76,.79,1.76,1.76v.08c0,.97-.79,1.76-1.76,1.76h-70.16c-.97,0-1.76-.79-1.76-1.76v-.07c0-.97,.79-1.76,1.76-1.76Z"/>
          <rect class="cls-23" x="269.19" y="187.5" width="67.39" height="3.6" rx="1.76" ry="1.76"/>
          <rect class="cls-23" x="269.19" y="194.7" width="67.39" height="3.6" rx="1.76" ry="1.76"/>
          <path class="cls-23" d="M270.95,201.9h67.94c.97,0,1.76,.79,1.76,1.76v.08c0,.97-.79,1.76-1.76,1.76h-67.94c-.97,0-1.76-.79-1.76-1.76v-.08c0-.97,.79-1.76,1.76-1.76Z"/>
          <path class="cls-23" d="M326.14,212.7h-55.19c-.97,0-1.76-.79-1.76-1.76h0c0-.97,.79-1.76,1.76-1.76h55.19c.97,0,1.76,.79,1.76,1.76h0c0,.97-.79,1.76-1.76,1.76Z"/>
        </g>
        <g class="cls-29">
          <rect class="cls-8" x="269.19" y="157.5" width="28.01" height="3.6" rx="1.76" ry="1.76"/>
          <rect class="cls-8" x="269.19" y="165.9" width="68.96" height="3.6" rx="1.76" ry="1.76"/>
          <path class="cls-8" d="M270.95,173.1h63.41c.97,0,1.76,.79,1.76,1.76v.08c0,.97-.79,1.76-1.76,1.76h-63.41c-.97,0-1.76-.79-1.76-1.76v-.08c0-.97,.79-1.76,1.76-1.76Z"/>
          <path class="cls-8" d="M270.95,180.3h70.16c.97,0,1.76,.79,1.76,1.76v.08c0,.97-.79,1.76-1.76,1.76h-70.16c-.97,0-1.76-.79-1.76-1.76v-.07c0-.97,.79-1.76,1.76-1.76Z"/>
          <rect class="cls-8" x="269.19" y="187.5" width="67.39" height="3.6" rx="1.76" ry="1.76"/>
          <rect class="cls-8" x="269.19" y="194.7" width="67.39" height="3.6" rx="1.76" ry="1.76"/>
          <path class="cls-8" d="M270.95,201.9h67.94c.97,0,1.76,.79,1.76,1.76v.08c0,.97-.79,1.76-1.76,1.76h-67.94c-.97,0-1.76-.79-1.76-1.76v-.08c0-.97,.79-1.76,1.76-1.76Z"/>
          <path class="cls-8" d="M326.14,212.7h-55.19c-.97,0-1.76-.79-1.76-1.76h0c0-.97,.79-1.76,1.76-1.76h55.19c.97,0,1.76,.79,1.76,1.76h0c0,.97-.79,1.76-1.76,1.76Z"/>
        </g>
      </g>
      <g>
        <path class="cls-23" d="M169.58,203.76c18.22-2.19,36.65-4.22,55.14-4.77,3.63-.11,7.27-.15,10.9-.06-.01,0,.05-1.78,0-1.78-15.95-.4-32.05,1.15-47.8,2.78-6.09,.63-12.17,1.32-18.24,2.05-.15,.02,.12,1.77,0,1.78h0Z"/>
        <path class="cls-23" d="M178.33,207.21c11.53-2.27,23.19-4.37,34.9-4.94,2.3-.11,4.6-.15,6.9-.06,0,0,.03-1.84,0-1.84-10.09-.41-20.28,1.19-30.25,2.88-3.85,.65-7.7,1.37-11.54,2.12-.1,.02,.07,1.83,0,1.84h0Z"/>
      </g>
      <g>
        <g>
          <path class="cls-23" d="M156.03,155.88l-1.75,.64,1.75,.64v.66l-2.5-.95v-.68l2.5-.95v.65Z"/>
          <path class="cls-23" d="M157.91,153.94h.73l-1.73,4.95h-.73l1.73-4.95Z"/>
          <path class="cls-23" d="M161.24,156.18v.68l-2.5,.95v-.66l1.75-.64-1.75-.64v-.65l2.5,.95Z"/>
        </g>
        <g class="cls-28">
          <path d="M160.87,163.39h-7.15c-.36,0-.66-.29-.66-.66s.29-.66,.66-.66h7.15c.36,0,.66,.29,.66,.66s-.29,.66-.66,.66Z"/>
          <path d="M160.87,167.68h-7.15c-.36,0-.66-.29-.66-.66s.29-.66,.66-.66h7.15c.36,0,.66,.29,.66,.66s-.29,.66-.66,.66Z"/>
          <path d="M160.87,171.97h-7.15c-.36,0-.66-.29-.66-.66s.29-.66,.66-.66h7.15c.36,0,.66,.29,.66,.66s-.29,.66-.66,.66Z"/>
          <path d="M160.87,176.26h-7.15c-.36,0-.66-.29-.66-.66s.29-.66,.66-.66h7.15c.36,0,.66,.29,.66,.66s-.29,.66-.66,.66Z"/>
          <path d="M160.87,180.55h-7.15c-.36,0-.66-.29-.66-.66s.29-.66,.66-.66h7.15c.36,0,.66,.29,.66,.66s-.29,.66-.66,.66Z"/>
          <path d="M160.87,184.84h-7.15c-.36,0-.66-.29-.66-.66s.29-.66,.66-.66h7.15c.36,0,.66,.29,.66,.66s-.29,.66-.66,.66Z"/>
          <path d="M160.87,189.13h-7.15c-.36,0-.66-.29-.66-.66s.29-.66,.66-.66h7.15c.36,0,.66,.29,.66,.66s-.29,.66-.66,.66Z"/>
          <path d="M160.87,193.42h-7.15c-.36,0-.66-.29-.66-.66s.29-.66,.66-.66h7.15c.36,0,.66,.29,.66,.66s-.29,.66-.66,.66Z"/>
          <path d="M160.87,197.7h-7.15c-.36,0-.66-.29-.66-.66s.29-.66,.66-.66h7.15c.36,0,.66,.29,.66,.66s-.29,.66-.66,.66Z"/>
        </g>
        <path class="cls-23" d="M181.54,184.76h-14.66c-.36,0-.66-.29-.66-.66s.29-.66,.66-.66h14.66c.36,0,.66,.29,.66,.66s-.29,.66-.66,.66Z"/>
        <path class="cls-23" d="M181.54,163.39h-14.66c-.36,0-.66-.29-.66-.66s.29-.66,.66-.66h14.66c.36,0,.66,.29,.66,.66s-.29,.66-.66,.66Z"/>
        <path class="cls-25" d="M223.65,184.76h-38.21c-.36,0-.66-.29-.66-.66s.29-.66,.66-.66h38.21c.36,0,.66,.29,.66,.66s-.29,.66-.66,.66Z"/>
        <g class="cls-28">
          <path class="cls-25" d="M228.4,167.68h-11.07c-.36,0-.66-.29-.66-.66s.29-.66,.66-.66h11.07c.36,0,.66,.29,.66,.66s-.29,.66-.66,.66Z"/>
        </g>
        <path class="cls-25" d="M191.55,188.47h-22.7c-.36,0-.66-.29-.66-.66s.29-.66,.66-.66h22.7c.36,0,.66,.29,.66,.66s-.29,.66-.66,.66Z"/>
        <path class="cls-23" d="M218.58,188.47h-22.36c-.36,0-.66-.29-.66-.66s.29-.66,.66-.66h22.36c.36,0,.66,.29,.66,.66s-.29,.66-.66,.66Z"/>
        <path class="cls-25" d="M246.35,188.47h-24.13c-.36,0-.66-.29-.66-.66s.29-.66,.66-.66h24.13c.36,0,.66,.29,.66,.66s-.29,.66-.66,.66Z"/>
        <g class="cls-28">
          <path class="cls-25" d="M193.65,192.76h-13.62c-.36,0-.66-.29-.66-.66s.29-.66,.66-.66h13.62c.36,0,.66,.29,.66,.66s-.29,.66-.66,.66Z"/>
        </g>
        <path class="cls-25" d="M212.94,192.76h-14.87c-.36,0-.66-.29-.66-.66s.29-.66,.66-.66h14.87c.36,0,.66,.29,.66,.66s-.29,.66-.66,.66Z"/>
        <g class="cls-28">
          <path class="cls-25" d="M240.43,192.76h-24.11c-.36,0-.66-.29-.66-.66s.29-.66,.66-.66h24.11c.36,0,.66,.29,.66,.66s-.29,.66-.66,.66Z"/>
        </g>
        <g class="cls-28">
          <path class="cls-25" d="M187.17,167.68h-18.33c-.36,0-.66-.29-.66-.66s.29-.66,.66-.66h18.33c.36,0,.66,.29,.66,.66s-.29,.66-.66,.66Z"/>
        </g>
        <path class="cls-23" d="M189.47,171.97h-20.62c-.36,0-.66-.29-.66-.66s.29-.66,.66-.66h20.62c.36,0,.66,.29,.66,.66s-.29,.66-.66,.66Z"/>
        <g class="cls-28">
          <path class="cls-25" d="M223.91,171.97h-31.06c-.36,0-.66-.29-.66-.66s.29-.66,.66-.66h31.06c.36,0,.66,.29,.66,.66s-.29,.66-.66,.66Z"/>
        </g>
        <path class="cls-25" d="M242.66,163.39h-31.06c-.36,0-.66-.29-.66-.66s.29-.66,.66-.66h31.06c.36,0,.66,.29,.66,.66s-.29,.66-.66,.66Z"/>
        <path class="cls-25" d="M246.35,171.97h-18.67c-.36,0-.66-.29-.66-.66s.29-.66,.66-.66h18.67c.36,0,.66,.29,.66,.66s-.29,.66-.66,.66Z"/>
        <g class="cls-28">
          <path class="cls-25" d="M187.23,176.26h-11.8c-.36,0-.66-.29-.66-.66s.29-.66,.66-.66h11.8c.36,0,.66,.29,.66,.66s-.29,.66-.66,.66Z"/>
        </g>
        <g class="cls-28">
          <path class="cls-25" d="M213.9,176.26h-22.65c-.36,0-.66-.29-.66-.66s.29-.66,.66-.66h22.65c.36,0,.66,.29,.66,.66s-.29,.66-.66,.66Z"/>
        </g>
        <g class="cls-28">
          <path class="cls-25" d="M207.89,163.39h-22.65c-.36,0-.66-.29-.66-.66s.29-.66,.66-.66h22.65c.36,0,.66,.29,.66,.66s-.29,.66-.66,.66Z"/>
        </g>
        <path class="cls-25" d="M240.43,176.26h-22.11c-.36,0-.66-.29-.66-.66s.29-.66,.66-.66h22.11c.36,0,.66,.29,.66,.66s-.29,.66-.66,.66Z"/>
        <path class="cls-25" d="M213.63,167.68h-22.11c-.36,0-.66-.29-.66-.66s.29-.66,.66-.66h22.11c.36,0,.66,.29,.66,.66s-.29,.66-.66,.66Z"/>
        <path class="cls-25" d="M195.91,180.55h-13.91c-.36,0-.66-.29-.66-.66s.29-.66,.66-.66h13.91c.36,0,.66,.29,.66,.66s-.29,.66-.66,.66Z"/>
        <g class="cls-28">
          <path class="cls-25" d="M212.03,180.55h-13.26c-.36,0-.66-.29-.66-.66s.29-.66,.66-.66h13.26c.36,0,.66,.29,.66,.66s-.29,.66-.66,.66Z"/>
        </g>
        <path class="cls-23" d="M240.43,180.55h-24.24c-.36,0-.66-.29-.66-.66s.29-.66,.66-.66h24.24c.36,0,.66,.29,.66,.66s-.29,.66-.66,.66Z"/>
        <g class="cls-28">
          <path class="cls-25" d="M199.01,197.05h-17.01c-.36,0-.66-.29-.66-.66s.29-.66,.66-.66h17.01c.36,0,.66,.29,.66,.66s-.29,.66-.66,.66Z"/>
        </g>
      </g>
    </g>
  </g>
  <g id="Desk_1" data-name="Desk 1">
    <g>
      <g>
        <g>
          <g>
            <polygon class="cls-25" points="229.64 417.31 227.17 417.31 224 311.47 227.26 311.47 229.64 417.31"/>
            <polygon class="cls-13" points="229.64 417.31 227.17 417.31 224 311.47 227.26 311.47 229.64 417.31"/>
          </g>
          <g>
            <polygon class="cls-25" points="189.87 311.47 189.87 417.31 192.48 417.31 195.55 316.31 227.05 316.31 229.35 417.31 231.94 417.31 231.94 311.47 189.87 311.47"/>
            <polygon class="cls-17" points="189.87 311.47 189.87 417.31 192.48 417.31 195.55 316.31 227.05 316.31 229.35 417.31 231.94 417.31 231.94 311.47 189.87 311.47"/>
          </g>
          <g>
            <polygon class="cls-25" points="189.87 417.31 187.4 417.31 186.61 311.47 189.87 311.47 189.87 417.31"/>
            <polygon class="cls-13" points="189.87 417.31 187.4 417.31 186.61 311.47 189.87 311.47 189.87 417.31"/>
          </g>
        </g>
        <g>
          <g>
            <polygon class="cls-25" points="142.15 417.31 139.68 417.31 136.5 311.47 139.76 311.47 142.15 417.31"/>
            <polygon class="cls-13" points="142.15 417.31 139.68 417.31 136.5 311.47 139.76 311.47 142.15 417.31"/>
          </g>
          <g>
            <polygon class="cls-25" points="102.37 311.47 102.37 417.31 104.98 417.31 108.05 316.31 139.55 316.31 141.86 417.31 144.44 417.31 144.44 311.47 102.37 311.47"/>
            <polygon class="cls-16" points="102.37 311.47 102.37 417.31 104.98 417.31 108.05 316.31 139.55 316.31 141.86 417.31 144.44 417.31 144.44 311.47 102.37 311.47"/>
          </g>
          <g>
            <polygon class="cls-25" points="102.37 417.31 99.91 417.31 99.11 311.47 102.37 311.47 102.37 417.31"/>
            <polygon class="cls-13" points="102.37 417.31 99.91 417.31 99.11 311.47 102.37 311.47 102.37 417.31"/>
          </g>
        </g>
      </g>
      <g>
        <rect class="cls-25" x="94.8" y="305.39" width="93.04" height="6.09"/>
        <rect class="cls-17" x="94.8" y="305.39" width="93.04" height="6.09"/>
        <rect class="cls-25" x="184.04" y="305.39" width="52.21" height="6.09"/>
        <rect class="cls-16" x="184.04" y="305.39" width="52.21" height="6.09"/>
      </g>
    </g>
  </g>
  <g id="Device_1" data-name="Device 1">
    <g>
      <g>
        <path class="cls-23" d="M135.3,304.93h32.5c.86,0,1.65-.7,1.77-1.55l3.28-23.34c.12-.86-.48-1.55-1.34-1.55h-32.5c-.86,0-1.65,.7-1.77,1.55l-3.28,23.34c-.12,.86,.48,1.55,1.34,1.55Z"/>
        <path class="cls-12" d="M135.3,304.93h32.5c.86,0,1.65-.7,1.77-1.55l3.28-23.34c.12-.86-.48-1.55-1.34-1.55h-32.5c-.86,0-1.65,.7-1.77,1.55l-3.28,23.34c-.12,.86,.48,1.55,1.34,1.55Z"/>
        <g>
          <g>
            <path class="cls-25" d="M137.48,301.45l28.88-.13c.79,0,1.52-.64,1.63-1.43l2.57-17.62c.11-.79-.44-1.43-1.23-1.43l-28.88,.13c-.79,0-1.52,.64-1.63,1.43l-2.57,17.62c-.11,.79,.44,1.43,1.23,1.43Z"/>
            <path class="cls-15" d="M137.48,301.45l28.88-.13c.79,0,1.52-.64,1.63-1.43l2.57-17.62c.11-.79-.44-1.43-1.23-1.43l-28.88,.13c-.79,0-1.52,.64-1.63,1.43l-2.57,17.62c-.11,.79,.44,1.43,1.23,1.43Z"/>
          </g>
          <g>
            <g>
              <path class="cls-8" d="M141.23,283.31l-.52,.19,.52,.19v.19l-.74-.28v-.2l.74-.28v.19Z"/>
              <path class="cls-8" d="M141.79,282.73h.22l-.51,1.47h-.22l.51-1.47Z"/>
              <path class="cls-8" d="M142.77,283.39v.2l-.74,.28v-.19l.52-.19-.52-.19v-.19l.74,.28Z"/>
            </g>
            <g class="cls-28">
              <path d="M142.42,285.53h-2.12c-.11,0-.19-.09-.19-.2s.09-.19,.19-.19h2.12c.11,0,.19,.09,.19,.19s-.09,.2-.19,.2Z"/>
              <path d="M142.21,286.81h-2.12c-.11,0-.19-.09-.19-.19s.09-.19,.19-.19h2.12c.11,0,.2,.09,.2,.19s-.09,.19-.2,.19Z"/>
              <path d="M142.09,288.08h-2.12c-.11,0-.19-.09-.19-.19s.09-.19,.19-.19h2.12c.11,0,.19,.09,.19,.19s-.09,.19-.19,.19Z"/>
              <path d="M141.84,289.35h-2.12c-.11,0-.2-.09-.2-.19s.09-.19,.2-.19h2.12c.11,0,.19,.09,.19,.19s-.09,.19-.19,.19Z"/>
              <path d="M141.68,290.62h-2.12c-.11,0-.19-.09-.19-.19s.09-.19,.19-.19h2.12c.11,0,.2,.09,.2,.19s-.09,.19-.2,.19Z"/>
              <path d="M141.45,291.9h-2.12c-.11,0-.19-.09-.19-.2s.09-.19,.19-.19h2.12c.11,0,.19,.09,.19,.19s-.09,.2-.19,.2Z"/>
              <path d="M141.26,293.17h-2.12c-.11,0-.19-.09-.19-.19s.09-.19,.19-.19h2.12c.11,0,.19,.09,.19,.19s-.09,.19-.19,.19Z"/>
              <path d="M141.02,294.44h-2.12c-.11,0-.2-.09-.2-.19s.09-.19,.2-.19h2.12c.11,0,.19,.09,.19,.19s-.09,.19-.19,.19Z"/>
              <path d="M140.78,295.71h-2.12c-.11,0-.19-.09-.19-.19s.09-.19,.19-.19h2.12c.11,0,.19,.09,.19,.19s-.09,.19-.19,.19Z"/>
            </g>
            <g>
              <path class="cls-23" d="M148.55,285.53h-4.35c-.11,0-.19-.09-.19-.2s.09-.19,.19-.19h4.35c.11,0,.19,.09,.19,.19s-.09,.2-.19,.2Z"/>
              <path class="cls-25" d="M161.04,285.53h-11.34c-.11,0-.2-.09-.2-.2s.09-.19,.2-.19h11.34c.11,0,.19,.09,.19,.19s-.09,.2-.19,.2Z"/>
              <g class="cls-28">
                <path class="cls-25" d="M166.21,285.53h-3.28c-.11,0-.19-.09-.19-.2s.09-.19,.19-.19h3.28c.11,0,.19,.09,.19,.19s-.09,.2-.19,.2Z"/>
              </g>
              <g class="cls-28">
                <path class="cls-25" d="M155.94,286.81h-11.36c-.11,0-.19-.09-.19-.19s.09-.19,.19-.19h11.36c.11,0,.19,.09,.19,.19s-.09,.19-.19,.19Z"/>
              </g>
              <path class="cls-23" d="M167.57,286.81h-10.59c-.11,0-.19-.09-.19-.19s.09-.19,.19-.19h10.59c.11,0,.19,.09,.19,.19s-.09,.19-.19,.19Z"/>
              <path class="cls-25" d="M151.19,288.08h-6.73c-.11,0-.19-.09-.19-.19s.09-.19,.19-.19h6.73c.11,0,.19,.09,.19,.19s-.09,.19-.19,.19Z"/>
              <path class="cls-23" d="M159.21,288.08h-6.63c-.11,0-.19-.09-.19-.19s.09-.19,.19-.19h6.63c.11,0,.19,.09,.19,.19s-.09,.19-.19,.19Z"/>
              <path class="cls-25" d="M167.45,288.08h-7.16c-.11,0-.19-.09-.19-.19s.09-.19,.19-.19h7.16c.11,0,.19,.09,.19,.19s-.09,.19-.19,.19Z"/>
              <path class="cls-25" d="M151.57,289.35h-4.04c-.11,0-.19-.09-.19-.19s.09-.19,.19-.19h4.04c.11,0,.19,.09,.19,.19s-.09,.19-.19,.19Z"/>
              <path class="cls-25" d="M157.29,289.35h-4.41c-.11,0-.19-.09-.19-.19s.09-.19,.19-.19h4.41c.11,0,.2,.09,.2,.19s-.09,.19-.2,.19Z"/>
              <g class="cls-28">
                <path class="cls-25" d="M165.44,289.35h-7.15c-.11,0-.19-.09-.19-.19s.09-.19,.19-.19h7.15c.11,0,.2,.09,.2,.19s-.09,.19-.2,.19Z"/>
              </g>
              <g class="cls-28">
                <path class="cls-25" d="M149.48,290.62h-5.44c-.11,0-.19-.09-.19-.19s.09-.19,.19-.19h5.44c.11,0,.19,.09,.19,.19s-.09,.19-.19,.19Z"/>
              </g>
              <path class="cls-23" d="M149.94,291.9h-6.12c-.11,0-.19-.09-.19-.2s.09-.19,.19-.19h6.12c.11,0,.19,.09,.19,.19s-.09,.2-.19,.2Z"/>
              <path class="cls-25" d="M160.16,291.9h-9.22c1.1,0,1.01-.09,1.01-.2s.09-.19,.2-.19h9.22c.11,0,.19,.09,.19,.19s-.09,.2-1.4,.2Z"/>
              <path class="cls-25" d="M166.81,291.9h-5.54c-.11,0-.19-.09-.19-.2s.09-.19,.19-.19h5.54c.11,0,.19,.09,.19,.19s-.09,.2-.19,.2Z"/>
              <g class="cls-28">
                <path class="cls-25" d="M149.08,293.17h-3.5c-.11,0-.19-.09-.19-.19s.09-.19,.19-.19h3.5c.11,0,.19,.09,.19,.19s-.09,.19-.19,.19Z"/>
              </g>
              <g class="cls-28">
                <path class="cls-25" d="M156.99,293.17h-6.72c-.11,0-.19-.09-.19-.19s.09-.19,.19-.19h6.72c.11,0,.19,.09,.19,.19s-.09,.19-.19,.19Z"/>
              </g>
              <path class="cls-25" d="M164.86,293.17h-6.56c1.3,0,1.21-.09,1.21-.19s.09-.19,.19-.19h6.56c.11,0,.19,.09,.19,.19s-.09,.19-1.6,.19Z"/>
              <path class="cls-25" d="M151.41,294.44h-4.13c-.11,0-.19-.09-.19-.19s.09-.19,.19-.19h4.13c.11,0,.19,.09,.19,.19s-.09,.19-.19,.19Z"/>
              <g class="cls-28">
                <path class="cls-25" d="M156.2,294.44h-3.93c-.11,0-.19-.09-.19-.19s.09-.19,.19-.19h3.93c.11,0,.19,.09,.19,.19s-.09,.19-.19,.19Z"/>
              </g>
              <path class="cls-23" d="M164.62,294.44h-7.19c-.11,0-.19-.09-.19-.19s.09-.19,.19-.19h7.19c.11,0,.2,.09,.2,.19s-.09,.19-.2,.19Z"/>
              <g class="cls-28">
                <path class="cls-25" d="M152.1,295.71h-5.05c-.11,0-.2-.09-.2-.19s.09-.19,.2-.19h5.05c.11,0,.19,.09,.19,.19s-.09,.19-.19,.19Z"/>
              </g>
            </g>
          </g>
          <polygon class="cls-16" points="143.74 280.96 140.66 301.45 137.23 301.45 140.71 280.96 143.74 280.96"/>
        </g>
      </g>
      <path class="cls-23" d="M115.64,304.83h39.34c.6,0,1.09-.49,1.09-1.09h0c0-.6-.49-1.09-1.09-1.09h-39.34c-.6,0-1.09,.49-1.09,1.09h0c0,.6,.49,1.09,1.09,1.09Z"/>
      <path class="cls-15" d="M115.64,304.83h39.34c.6,0,1.09-.49,1.09-1.09h0c0-.6-.49-1.09-1.09-1.09h-39.34c-.6,0-1.09,.49-1.09,1.09h0c0,.6,.49,1.09,1.09,1.09Z"/>
      <path class="cls-23" d="M146.68,304.83h20.98c.6,0,1.09-.49,1.09-1.09h0c0-.6-.49-1.09-1.09-1.09h-20.98c-.6,0-1.09,.49-1.09,1.09h0c0,.6,.49,1.09,1.09,1.09Z"/>
      <path class="cls-14" d="M146.68,304.83h20.98c.6,0,1.09-.49,1.09-1.09h0c0-.6-.49-1.09-1.09-1.09h-20.98c-.6,0-1.09,.49-1.09,1.09h0c0,.6,.49,1.09,1.09,1.09Z"/>
    </g>
  </g>
  <g id="Character_3" data-name="Character 3">
    <g>
      <g>
        <path class="cls-19" d="M337.97,193.74l2.14,1.68c.8,.63,1.25,1.62,1.21,2.64l-.23,4.78c-.09,1.91-1.1,3.66-2.71,4.69l-1,.64c-3.74-2.55-5.9-8.06-5.9-8.06l-.79-1.5c-.7-1.34-.26-2.91,1.03-3.6l2.96-1.61c1.02-.55,2.33-.42,3.3,.34Z"/>
        <path class="cls-19" d="M379.79,208.05l-.15,.34-.11,.25c-.07,.16-.15,.31-.22,.45-.14,.29-.29,.57-.44,.84-.3,.54-.6,1.05-.92,1.56-.62,1.01-1.3,1.95-2,2.87-1.4,1.83-2.92,3.52-4.54,5.09-.81,.79-1.64,1.54-2.48,2.28-.86,.72-1.72,1.43-2.61,2.1-1.76,1.36-3.6,2.59-5.48,3.73l-.23,.14c-.18,.11-.38,.2-.57,.28-1.13,.42-2.37,.59-3.48,.53-1.12-.05-2.12-.3-2.99-.62-1.75-.65-3.08-1.53-4.25-2.45-1.17-.92-2.18-1.89-3.12-2.89-.93-1-1.79-2.01-2.6-3.05-.8-1.04-1.56-2.1-2.28-3.16-.72-1.07-1.4-2.16-2.06-3.25-.66-1.09-1.27-2.21-1.87-3.32-.3-.56-.59-1.13-.87-1.7-.28-.58-.55-1.13-.83-1.75-.53-1.19,0-2.58,1.18-3.11,1.01-.46,2.18-.14,2.83,.71l.04,.06,1.09,1.41c.37,.48,.74,.95,1.12,1.42,.74,.94,1.51,1.87,2.27,2.79,.76,.92,1.55,1.81,2.34,2.69,.79,.88,1.59,1.73,2.41,2.54,.82,.81,1.64,1.6,2.48,2.31,.84,.71,1.69,1.36,2.51,1.88,.82,.52,1.64,.91,2.23,1.04,.29,.07,.51,.07,.62,.06,.12-.02,.12-.06,.13-.08l-.8,.42c1.57-1.15,3.06-2.36,4.51-3.62,.73-.63,1.42-1.28,2.11-1.94,.68-.66,1.36-1.32,2-2.01,.32-.34,.64-.69,.95-1.04,.32-.35,.62-.7,.92-1.05,.6-.71,1.17-1.44,1.72-2.17,.55-.73,1.06-1.48,1.55-2.22,.24-.37,.46-.74,.68-1.11,.11-.18,.21-.36,.3-.53l.13-.24,.05-.1,.02-.04h0s0-.02,0,0v.03c1-2.41,3.78-3.53,6.18-2.52s3.53,3.79,2.52,6.2Z"/>
      </g>
      <g>
        <polygon class="cls-25" points="319.99 139.52 320.81 139.28 338.7 198.7 337.4 199.09 319.99 139.52"/>
        <polygon class="cls-17" points="319.99 139.52 320.81 139.28 338.7 198.7 337.4 199.09 319.99 139.52"/>
      </g>
      <polygon class="cls-28" points="359.9 217.44 366.34 223.8 368.95 221.71 361.6 215.69 359.9 217.44"/>
      <g>
        <g>
          <path class="cls-25" d="M388.42,203.11c-1.08,2.65-5.23,15.37-6.4,31.21,.34,1.5,.76,3.01,1.25,4.53,.93-1.39,2.5-2.9,3.54-4.27,.57-14.24,1.89-27.93,3.06-31.32l-1.45-.16Z"/>
          <polygon class="cls-25" points="388.36 205.3 387.33 201.8 389.86 200.91 391.62 202.17 388.36 205.3"/>
        </g>
        <path class="cls-8" d="M389.86,200.91s1.46,2.19,3.2,4.37c2.92-1.26,9.82-4.69,9.87-8.4-.28-1.11-1.65-1.88-1.65-1.88,0,0-4.47,3.59-11.42,5.91Z"/>
        <path class="cls-8" d="M389.86,200.91s-2.35,1.6-3.98,3.76c-1.9-1.58-.18-8.35,.64-9.04,1.72-.9,2.82-.68,2.82-.68,0,0-2.63,4.9,.52,5.97Z"/>
      </g>
      <g>
        <polygon class="cls-6" points="364.94 411.16 358.36 410.26 359.27 394.18 365.84 395.09 364.94 411.16"/>
        <polygon class="cls-26" points="365.84 395.09 359.27 394.18 358.7 404.15 365.33 404.15 365.84 395.09"/>
        <path class="cls-25" d="M357.86,409.47l7.43-.46c.26-.03,.49,.16,.52,.42,0,0,0,0,0,0l.73,5.86c.04,.64-.44,1.19-1.08,1.24-2.6,.12-3.84,.05-7.11,.23-2.01,.12-5.96,.55-8.73,.28-2.77-.27-2.43-3-1.23-3.13,2.84-.32,6.59-2.41,8.37-3.99,.31-.27,.7-.43,1.12-.45Z"/>
        <path class="cls-23" d="M357.7,410.27h0c0-.12-.11-2-.8-2.6-.19-.15-.5-.22-.74-.17-.27,.03-.52,.23-.56,.5-.06,.41,.24,1.01,.65,1.52-.65-.29-1.41-.53-1.84-.34-.18,.09-.31,.26-.33,.46-.09,.31,0,.64,.24,.85,.38,.24,.83,.33,1.26,.25,.59-.05,1.17-.17,1.73-.34,.02,0,.04,.01,.06,0,.02-.01,.02-.03,.03-.05,.02-.02,.16-.04,.17-.06,0,0,.14-.01,.14-.02h0Zm-1.83-2.21c0-.09,.06-.2,.28-.24h.08c.12-.02,.25,.02,.34,.11,.42,.35,.53,1.4,.56,2.03-.04-.02-.09-.05-.14-.08-.56-.49-1.15-1.37-1.11-1.82Zm-1.35,2.19c-.14-.14-.2-.35-.14-.54,0-.1,.07-.18,.16-.23,.42-.2,1.56,.29,2.36,.73-1.17,.31-2.04,.32-2.37,.04Z"/>
      </g>
      <g>
        <polygon class="cls-6" points="413.38 411.16 406.8 410.26 405.89 394.62 412.46 395.53 413.38 411.16"/>
        <polygon class="cls-26" points="412.46 395.53 405.89 394.63 406.44 404.15 412.97 404.15 412.46 395.53"/>
        <path class="cls-25" d="M406.3,409.47l7.43-.46c.26-.03,.49,.16,.52,.42,0,0,0,0,0,0l.73,5.86c.04,.64-.44,1.19-1.08,1.24-2.6,.12-3.84,.05-7.11,.23-2.01,.12-5.96,.55-8.73,.28-2.77-.27-2.43-3-1.23-3.13,2.84-.32,6.59-2.41,8.37-3.99,.31-.27,.7-.43,1.12-.45Z"/>
        <path class="cls-23" d="M406.14,410.27h0c0-.12-.11-2-.8-2.6-.19-.15-.5-.22-.74-.17-.27,.03-.52,.23-.56,.5-.06,.41,.24,1.01,.65,1.52-.65-.29-1.41-.53-1.84-.34-.18,.09-.31,.26-.33,.46-.09,.31,0,.64,.24,.85,.38,.24,.83,.33,1.26,.25,.59-.05,1.17-.17,1.73-.34,.02,0,.04,.01,.06,0,.02-.01,.02-.03,.03-.05,.02-.02,.16-.04,.17-.06,0,0,.14-.01,.14-.02h0Zm-1.83-2.21c0-.09,.06-.2,.28-.24h.08c.12-.02,.25,.02,.34,.11,.42,.35,.53,1.4,.56,2.03-.04-.02-.09-.05-.14-.08-.56-.49-1.15-1.37-1.11-1.82Zm-1.35,2.19c-.14-.14-.2-.35-.14-.54,0-.1,.07-.18,.16-.23,.42-.2,1.56,.29,2.36,.73-1.17,.31-2.04,.32-2.37,.04Z"/>
      </g>
      <path class="cls-23" d="M396.5,257.71v25.66c-7.91,21.11-19.96,55.96-22.05,67.38-2.09,11.42-1.55,25.31-5.27,50.55l-12.96,.31s-.9-28.85,1.02-50.03c1.92-21.18,17.75-93.87,17.75-93.87h21.52Z"/>
      <path class="cls-23" d="M412.89,257.71c1.5,11.38-3.71,87.49-2.41,98.08,1.3,10.59,2.85,20.2,4.51,45.82h-12.2s-6.36-24.28-9.64-45.55c-3.27-21.26-5.15-77.66-2.99-98.35h22.72Z"/>
      <path class="cls-28" d="M383.9,318.73s1.24-11.83,1.57-16.64c.33-4.81,3.5-18.16,3.5-18.16l.54,18.7-5.61,16.11Z"/>
      <path class="cls-28" d="M412.03,224.14c-.51-4.81-1.22-11.41-2.07-15.45,1.53,1.38,2.07,1.63,3.05,2.41"/>
      <g>
        <path class="cls-23" d="M387.66,204.3c.63,6.83-16.12,21.65-16.12,21.65l-11.72-11.42s5.7-8.15,12.4-13.88c6.87-5.88,14.76-3.85,15.45,3.65Z"/>
        <path class="cls-15" d="M387.66,204.3c.63,6.83-16.12,21.65-16.12,21.65l-11.72-11.42s5.7-8.15,12.4-13.88c6.87-5.88,14.76-3.85,15.45,3.65Z"/>
      </g>
      <path class="cls-28" d="M378.31,213.06c-3.38,1.8-7.59,7.21-7.85,11.9l1.05,1.02s7.86-7.09,12.02-12.63c-1.16-1.6-1.35-2.35-5.22-.29Z"/>
      <g>
        <path class="cls-23" d="M415.72,198.21c-1.69,8.01-2.58,16.13-3.01,23.75-.32,5.57-.38,10.88-.32,15.68,.14,11.26,.94,19.81,.79,22.73-5.61-.08-26.78-.39-38.31-.56-7.84-40.35,.72-61.83,.72-61.83,0,0,4.17-1.07,9.06-1.63,.64-.08,1.3-.14,1.97-.19,4.31-.33,11.4-.07,16.29,.24,1.03,.07,2.07,.16,3.08,.26,5.16,.55,9.74,1.55,9.74,1.55Z"/>
        <path class="cls-15" d="M415.72,198.21c-1.69,8.01-2.58,16.13-3.01,23.75-.32,5.57-.38,10.88-.32,15.68,.14,11.26,.94,19.81,.79,22.73-5.61-.08-26.78-.39-38.31-.56-7.84-40.35,.72-61.83,.72-61.83,0,0,4.17-1.07,9.06-1.63,.64-.08,1.3-.14,1.97-.19,4.31-.33,11.4-.07,16.29,.24,1.03,.07,2.07,.16,3.08,.26,5.16,.55,9.74,1.55,9.74,1.55Z"/>
      </g>
      <path class="cls-23" d="M388.82,203.59c-.96,2.85-2.59,5.21-3.77,12.65,.46,1.56,.99,3.12,1.6,4.69,.89-1.52,1.85-3.04,2.86-4.56,.53-7.17-.17-9.07,.84-12.71l-1.53-.07Z"/>
      <polygon class="cls-23" points="388.89 205.9 387.59 202.29 390.19 201.19 392.13 202.41 388.89 205.9"/>
      <path class="cls-25" d="M405.98,196.66c-7.98,8.01-14.52,16.1-19.33,24.28-3.22-8.31-4.36-16.48-2.88-24.48-4.5,.58-8.18,1.52-8.18,1.52,0,0-8.56,21.48-.72,61.83,11.54,.17,32.7,.48,38.31,.56,.15-2.92-.66-11.47-.79-22.73-.06-4.8,0-10.11,.32-15.68,.44-7.62,1.32-15.73,3.01-23.75,0,0-4.58-1-9.74-1.55Z"/>
      <path class="cls-8" d="M390.19,201.19s1.67,2.21,3.64,4.4c2.99-1.51,10.03-5.56,9.84-9.46-.36-1.15-1.85-1.87-1.85-1.87,0,0-4.48,4.06-11.64,6.94Z"/>
      <path class="cls-8" d="M390.19,201.19s-2.37,1.84-3.95,4.21c-2.1-1.54-.72-8.77,.1-9.55,1.75-1.05,2.92-.9,2.92-.9,0,0-2.46,5.32,.93,6.24Z"/>
      <path class="cls-19" d="M420.19,203.77c1.2,2.39,2.19,4.7,3.21,7.09,1.02,2.37,1.92,4.8,2.79,7.26,.84,2.47,1.65,4.98,2.3,7.6,.63,2.64,1.23,5.31,1.34,8.48,.02,.8,.01,1.63-.08,2.55-.05,.46-.12,.94-.23,1.46-.06,.26-.11,.51-.2,.8l-.13,.42-.19,.5c-.53,1.33-1.37,2.43-2.23,3.23-.86,.8-1.74,1.35-2.57,1.78-1.67,.85-3.2,1.27-4.67,1.59-1.47,.3-2.88,.45-4.26,.55-5.52,.33-10.62-.23-15.8-1.27l.48-5.35,3.62-.27c1.21-.1,2.42-.24,3.62-.36,2.39-.27,4.75-.61,6.95-1.09,1.1-.24,2.16-.53,3.11-.87,.95-.32,1.81-.72,2.32-1.1,.26-.18,.41-.36,.44-.43,.03-.08-.07-.02-.16,.13-.01,.02-.02,.04-.03,.06,0,.01,0-.02,0-.03v-.12c.02-.1,.02-.24,.03-.4,0-.33-.02-.75-.07-1.2-.21-1.84-.75-4.08-1.43-6.26-.69-2.2-1.47-4.45-2.34-6.69-1.71-4.46-3.66-9.02-5.62-13.34l9.77-4.71Z"/>
      <path class="cls-19" d="M401.75,240.36l-5.97-4.13-1.54,9.06s5.85,2.38,7.44-.61l.06-4.31Z"/>
      <polygon class="cls-19" points="389.85 236.56 388.92 244.11 394.25 245.28 395.79 236.22 389.85 236.56"/>
      <path class="cls-19" d="M399.77,179.85c-.77,4.43-1.46,12.54,1.69,15.42,0,0-4.05,6.09-10.58,6.37-5.66,.25-3.15-6.08-3.15-6.08,4.9-1.28,4.69-4.94,3.76-8.35l8.27-7.37Z"/>
      <path class="cls-26" d="M396.4,182.85l-4.89,4.36c.23,.79,.39,1.61,.48,2.43,1.88-.31,5.92-4.32,6.08-6.29,.1-.8-1.46,.28-1.66-.5Z"/>
      <g>
        <g>
          <path class="cls-25" d="M388.39,163.3c3.11,2.11,1.69,5.69-5.35,11.29-2.86-3.71-3.33-10.91-1.06-12.72,2.27-1.81,3.69-.4,6.4,1.43Z"/>
          <path class="cls-19" d="M401.78,169.1c-.34,7.61-.15,12.07-3.92,16.03-5.67,5.96-15.11,2.64-17.05-4.91-1.74-6.79-.9-18.09,6.48-21.23,5.26-2.27,11.37,.15,13.65,5.41,.64,1.48,.92,3.09,.84,4.69Z"/>
          <path class="cls-25" d="M390.47,171.37c.01,.62-.31,1.13-.72,1.13-.4,0-.73-.48-.74-1.1-.01-.62,.3-1.12,.7-1.14,.4-.01,.7,.5,.75,1.11Z"/>
          <path class="cls-25" d="M383.44,171.5c.01,.62-.31,1.13-.72,1.13-.4,0-.74-.48-.75-1.11-.01-.63,.31-1.13,.72-1.13,.4,0,.74,.49,.75,1.11Z"/>
          <path class="cls-20" d="M385.74,171.75c-.71,1.9-1.67,3.7-2.87,5.34,1.13,1,2.97,.5,2.97,.5l-.1-5.84Z"/>
          <path class="cls-25" d="M392.35,169.12c.08,0,.16-.01,.23-.05,.16-.12,.19-.35,.07-.51-.7-.94-1.81-1.48-2.98-1.45-.19,0-.34,.17-.33,.37,0,0,0,.02,0,.03,.02,.2,.19,.34,.39,.33h0c.92-.01,1.8,.42,2.34,1.17,.07,.08,.17,.12,.28,.12Z"/>
          <path class="cls-25" d="M380.2,169.18c.14,0,.27-.09,.33-.21,.36-.85,1.11-1.47,2.02-1.68,.2-.03,.34-.22,.31-.41-.03-.2-.21-.33-.41-.31-1.15,.24-2.11,1.02-2.57,2.1-.08,.18,0,.39,.17,.48,0,0,0,0,0,0,.05,.02,.1,.03,.15,.04Z"/>
          <path class="cls-25" d="M398.64,162.41c-3.53,1.28-3.03,5.1,2.42,12.24,3.68-2.9,5.91-9.77,4.14-12.07-1.77-2.3-3.48-1.29-6.56-.18Z"/>
          <path class="cls-19" d="M405.5,175.11c-.5,1.85-1.71,3.43-3.37,4.39-2.21,1.25-3.91-.58-3.81-2.98,.1-2.16,1.36-5.42,3.82-5.68,2.46-.26,3.96,2,3.36,4.27Z"/>
          <g>
            <path class="cls-25" d="M385.83,180.44c3.41-.82,5.72-2.52,5.72-2.52,.39,2.98-1.09,5.03-3.84,5.67l-1.88-3.15Z"/>
            <path class="cls-21" d="M389.07,183.1c1.31-.72,2.1-1.69,2.37-2.91,0,0-1.3,.18-1.96,1.02-.66,.85-.41,1.88-.41,1.88Z"/>
          </g>
        </g>
        <g>
          <path class="cls-25" d="M383.67,173.61h-2.85c-.79,0-1.43-.64-1.43-1.43v-1.8c0-.79,.64-1.43,1.43-1.43h2.85c.79,0,1.43,.64,1.43,1.43v1.8c0,.79-.64,1.43-1.43,1.43Zm-2.85-3.81c-.32,0-.58,.26-.58,.58v1.8c0,.32,.26,.58,.58,.58h2.85c.32,0,.58-.26,.58-.58v-1.8c0-.32-.26-.58-.58-.58h-2.85Z"/>
          <path class="cls-25" d="M390.49,173.61h-2.85c-.79,0-1.43-.64-1.43-1.43v-1.8c0-.79,.64-1.43,1.43-1.43h2.85c.79,0,1.43,.64,1.43,1.43v1.8c0,.79-.64,1.43-1.43,1.43Zm-2.85-3.81c-.32,0-.58,.26-.58,.58v1.8c0,.32,.26,.58,.58,.58h2.85c.32,0,.58-.26,.58-.58v-1.8c0-.32-.26-.58-.58-.58h-2.85Z"/>
          <rect class="cls-25" x="384.68" y="170.85" width="1.96" height=".85"/>
          <rect class="cls-25" x="391.94" y="170.85" width="7.33" height=".85"/>
        </g>
      </g>
      <polygon class="cls-28" points="416.9 224.14 426.95 220.39 427.87 223.4 417.79 226.71 416.9 224.14"/>
      <polygon class="cls-28" points="410.63 220.93 412.38 237.64 412.58 225.98 410.63 220.93"/>
      <g>
        <path class="cls-23" d="M417.81,198.88c6.25,2.85,11.82,22.54,11.82,22.54l-16.74,5.29s-3.75-8.51-5.58-17.19c-1.99-9.46,2.93-14.08,10.5-10.64Z"/>
        <path class="cls-15" d="M417.81,198.88c6.25,2.85,11.82,22.54,11.82,22.54l-16.74,5.29s-3.75-8.51-5.58-17.19c-1.99-9.46,2.93-14.08,10.5-10.64Z"/>
      </g>
    </g>
  </g>
  <g id="Desk_2" data-name="Desk 2">
    <g>
      <g>
        <g>
          <g>
            <polygon class="cls-25" points="357.43 416.8 354.96 416.8 351.79 310.97 355.05 310.97 357.43 416.8"/>
            <polygon class="cls-13" points="357.43 416.8 354.96 416.8 351.79 310.97 355.05 310.97 357.43 416.8"/>
          </g>
          <g>
            <polygon class="cls-25" points="317.66 310.97 317.66 416.8 320.27 416.8 323.34 315.8 354.84 315.8 357.14 416.8 359.73 416.8 359.73 310.97 317.66 310.97"/>
            <polygon class="cls-17" points="317.66 310.97 317.66 416.8 320.27 416.8 323.34 315.8 354.84 315.8 357.14 416.8 359.73 416.8 359.73 310.97 317.66 310.97"/>
          </g>
          <g>
            <polygon class="cls-25" points="317.66 416.8 315.19 416.8 314.4 310.97 317.66 310.97 317.66 416.8"/>
            <polygon class="cls-13" points="317.66 416.8 315.19 416.8 314.4 310.97 317.66 310.97 317.66 416.8"/>
          </g>
        </g>
        <g>
          <g>
            <polygon class="cls-25" points="269.93 416.8 267.47 416.8 264.29 310.97 267.55 310.97 269.93 416.8"/>
            <polygon class="cls-13" points="269.93 416.8 267.47 416.8 264.29 310.97 267.55 310.97 269.93 416.8"/>
          </g>
          <g>
            <polygon class="cls-25" points="230.16 310.97 230.16 416.8 232.77 416.8 235.84 315.8 267.34 315.8 269.65 416.8 272.23 416.8 272.23 310.97 230.16 310.97"/>
            <polygon class="cls-16" points="230.16 310.97 230.16 416.8 232.77 416.8 235.84 315.8 267.34 315.8 269.65 416.8 272.23 416.8 272.23 310.97 230.16 310.97"/>
          </g>
          <g>
            <polygon class="cls-25" points="230.16 416.8 227.7 416.8 226.9 310.97 230.16 310.97 230.16 416.8"/>
            <polygon class="cls-13" points="230.16 416.8 227.7 416.8 226.9 310.97 230.16 310.97 230.16 416.8"/>
          </g>
        </g>
      </g>
      <g>
        <rect class="cls-25" x="222.59" y="304.88" width="93.04" height="6.09"/>
        <rect class="cls-17" x="222.59" y="304.88" width="93.04" height="6.09"/>
        <rect class="cls-25" x="311.83" y="304.88" width="52.21" height="6.09"/>
        <rect class="cls-16" x="311.83" y="304.88" width="52.21" height="6.09"/>
      </g>
    </g>
  </g>
  <g id="Device_2" data-name="Device 2">
    <g>
      <g>
        <path class="cls-23" d="M266.67,304.74h32.5c.86,0,1.65-.7,1.77-1.55l3.28-23.34c.12-.86-.48-1.55-1.34-1.55h-32.5c-.86,0-1.65,.7-1.77,1.55l-3.28,23.34c-.12,.86,.48,1.55,1.34,1.55Z"/>
        <path class="cls-12" d="M266.67,304.74h32.5c.86,0,1.65-.7,1.77-1.55l3.28-23.34c.12-.86-.48-1.55-1.34-1.55h-32.5c-.86,0-1.65,.7-1.77,1.55l-3.28,23.34c-.12,.86,.48,1.55,1.34,1.55Z"/>
        <g>
          <g>
            <path class="cls-25" d="M268.85,301.25l28.88-.13c.79,0,1.52-.64,1.63-1.43l2.57-17.62c.11-.79-.44-1.43-1.23-1.43l-28.88,.13c-.79,0-1.52,.64-1.63,1.43l-2.57,17.62c-.11,.79,.44,1.43,1.23,1.43Z"/>
            <path class="cls-15" d="M268.85,301.25l28.88-.13c.79,0,1.52-.64,1.63-1.43l2.57-17.62c.11-.79-.44-1.43-1.23-1.43l-28.88,.13c-.79,0-1.52,.64-1.63,1.43l-2.57,17.62c-.11,.79,.44,1.43,1.23,1.43Z"/>
          </g>
          <polygon class="cls-16" points="275.11 280.76 272.03 301.25 268.6 301.25 272.08 280.76 275.11 280.76"/>
          <g>
            <g>
              <path class="cls-8" d="M272.7,283.07l-.5,.18,.5,.18v.19l-.72-.27v-.2l.72-.27v.19Z"/>
              <path class="cls-8" d="M273.24,282.51h.21l-.5,1.41h-.21l.5-1.41Z"/>
              <path class="cls-8" d="M274.19,283.15v.2l-.72,.27v-.19l.5-.18-.5-.18v-.19l.72,.27Z"/>
            </g>
            <g class="cls-28">
              <path d="M273.86,285.22h-2.04c-.1,0-.19-.08-.19-.19s.08-.19,.19-.19h2.04c.1,0,.19,.08,.19,.19s-.08,.19-.19,.19Z"/>
              <path d="M273.66,286.44h-2.04c-.1,0-.19-.08-.19-.19s.08-.19,.19-.19h2.04c.1,0,.19,.08,.19,.19s-.08,.19-.19,.19Z"/>
              <path d="M273.54,287.67h-2.04c-.1,0-.19-.08-.19-.19s.08-.19,.19-.19h2.04c.1,0,.19,.08,.19,.19s-.08,.19-.19,.19Z"/>
              <path d="M273.29,288.89h-2.04c-.1,0-.19-.08-.19-.19s.08-.19,.19-.19h2.04c.1,0,.19,.08,.19,.19s-.08,.19-.19,.19Z"/>
              <path d="M273.19,290.12h-2.04c-.1,0-.19-.08-.19-.19s.08-.19,.19-.19h2.04c.1,0,.19,.08,.19,.19s-.08,.19-.19,.19Z"/>
              <path d="M272.97,291.35h-2.04c-.1,0-.19-.08-.19-.19s.08-.19,.19-.19h2.04c.1,0,.19,.08,.19,.19s-.08,.19-.19,.19Z"/>
              <path d="M272.83,292.57h-2.04c-.1,0-.19-.08-.19-.19s.08-.19,.19-.19h2.04c.1,0,.19,.08,.19,.19s-.08,.19-.19,.19Z"/>
              <path d="M272.62,293.8h-2.04c-.1,0-.19-.08-.19-.19s.08-.19,.19-.19h2.04c.1,0,.19,.08,.19,.19s-.08,.19-.19,.19Z"/>
              <path d="M272.35,295.03h-2.04c-.1,0-.19-.08-.19-.19s.08-.19,.19-.19h2.04c.1,0,.19,.08,.19,.19s-.08,.19-.19,.19Z"/>
            </g>
            <path class="cls-23" d="M278.88,291.33h-4.19c-.1,0-.19-.08-.19-.19s.08-.19,.19-.19h4.19c.1,0,.19,.08,.19,.19s-.08,.19-.19,.19Z"/>
            <path class="cls-23" d="M279.77,285.22h-4.19c-.1,0-.19-.08-.19-.19s.08-.19,.19-.19h4.19c.1,0,.19,.08,.19,.19s-.08,.19-.19,.19Z"/>
            <path class="cls-25" d="M290.92,291.33h-10.92c-.1,0-.19-.08-.19-.19s.08-.19,.19-.19h10.92c.1,0,.19,.08,.19,.19s-.08,.19-.19,.19Z"/>
            <g class="cls-28">
              <path class="cls-25" d="M292.97,286.44h-3.16c-.1,0-.19-.08-.19-.19s.08-.19,.19-.19h3.16c.1,0,.19,.08,.19,.19s-.08,.19-.19,.19Z"/>
            </g>
            <path class="cls-25" d="M281.65,292.57h-6.49c-.1,0-.19-.08-.19-.19s.08-.19,.19-.19h6.49c.1,0,.19,.08,.19,.19s-.08,.19-.19,.19Z"/>
            <path class="cls-23" d="M289.38,292.57h-6.39c-.1,0-.19-.08-.19-.19s.08-.19,.19-.19h6.39c.1,0,.19,.08,.19,.19s-.08,.19-.19,.19Z"/>
            <path class="cls-25" d="M297.32,292.57h-6.9c-.1,0-.19-.08-.19-.19s.08-.19,.19-.19h6.9c.1,0,.19,.08,.19,.19s-.08,.19-.19,.19Z"/>
            <g class="cls-28">
              <path class="cls-25" d="M281.97,293.8h-3.9c-.1,0-.19-.08-.19-.19s.08-.19,.19-.19h3.9c.1,0,.19,.08,.19,.19s-.08,.19-.19,.19Z"/>
            </g>
            <path class="cls-25" d="M287.49,293.8h-4.25c-.1,0-.19-.08-.19-.19s.08-.19,.19-.19h4.25c.1,0,.19,.08,.19,.19s-.08,.19-.19,.19Z"/>
            <g class="cls-28">
              <path class="cls-25" d="M295.35,293.8h-6.89c-.1,0-.19-.08-.19-.19s.08-.19,.19-.19h6.89c.1,0,.19,.08,.19,.19s-.08,.19-.19,.19Z"/>
            </g>
            <g class="cls-28">
              <path class="cls-25" d="M281.18,286.44h-5.24c-.1,0-.19-.08-.19-.19s.08-.19,.19-.19h5.24c.1,0,.19,.08,.19,.19s-.08,.19-.19,.19Z"/>
            </g>
            <path class="cls-23" d="M281.71,287.67h-5.9c-.1,0-.19-.08-.19-.19s.08-.19,.19-.19h5.9c.1,0,.19,.08,.19,.19s-.08,.19-.19,.19Z"/>
            <g class="cls-28">
              <path class="cls-25" d="M291.56,287.67h-8.88c-.1,0-.19-.08-.19-.19s.08-.19,.19-.19h8.88c.1,0,.19,.08,.19,.19s-.08,.19-.19,.19Z"/>
            </g>
            <path class="cls-25" d="M297.25,285.22h-8.88c-.1,0-.19-.08-.19-.19s.08-.19,.19-.19h8.88c.1,0,.19,.08,.19,.19s-.08,.19-.19,.19Z"/>
            <path class="cls-25" d="M297.97,287.67h-5.34c-.1,0-.19-.08-.19-.19s.08-.19,.19-.19h5.34c.1,0,.19,.08,.19,.19s-.08,.19-.19,.19Z"/>
            <g class="cls-28">
              <path class="cls-25" d="M280.83,288.89h-3.38c-.1,0-.19-.08-.19-.19s.08-.19,.19-.19h3.38c.1,0,.19,.08,.19,.19s-.08,.19-.19,.19Z"/>
            </g>
            <g class="cls-28">
              <path class="cls-25" d="M288.45,288.89h-6.47c-.1,0-.19-.08-.19-.19s.08-.19,.19-.19h6.47c.1,0,.19,.08,.19,.19s-.08,.19-.19,.19Z"/>
            </g>
            <g class="cls-28">
              <path class="cls-25" d="M287.3,285.22h-6.47c-.1,0-.19-.08-.19-.19s.08-.19,.19-.19h6.47c.1,0,.19,.08,.19,.19s-.08,.19-.19,.19Z"/>
            </g>
            <path class="cls-25" d="M296.04,288.89h-6.32c-.1,0-.19-.08-.19-.19s.08-.19,.19-.19h6.32c.1,0,.19,.08,.19,.19s-.08,.19-.19,.19Z"/>
            <path class="cls-25" d="M288.75,286.44h-6.32c-.1,0-.19-.08-.19-.19s.08-.19,.19-.19h6.32c.1,0,.19,.08,.19,.19s-.08,.19-.19,.19Z"/>
            <path class="cls-25" d="M283.2,290.12h-3.98c-.1,0-.19-.08-.19-.19s.08-.19,.19-.19h3.98c.1,0,.19,.08,.19,.19s-.08,.19-.19,.19Z"/>
            <g class="cls-28">
              <path class="cls-25" d="M287.81,290.12h-3.79c-.1,0-.19-.08-.19-.19s.08-.19,.19-.19h3.79c.1,0,.19,.08,.19,.19s-.08,.19-.19,.19Z"/>
            </g>
            <path class="cls-23" d="M295.93,290.12h-6.93c-.1,0-.19-.08-.19-.19s.08-.19,.19-.19h6.93c.1,0,.19,.08,.19,.19s-.08,.19-.19,.19Z"/>
            <g class="cls-28">
              <path class="cls-25" d="M283.25,295.03h-4.86c-.1,0-.19-.08-.19-.19s.08-.19,.19-.19h4.86c.1,0,.19,.08,.19,.19s-.08,.19-.19,.19Z"/>
            </g>
          </g>
        </g>
      </g>
      <path class="cls-23" d="M246.71,304.83h39.34c.6,0,1.09-.49,1.09-1.09h0c0-.6-.49-1.09-1.09-1.09h-39.34c-.6,0-1.09,.49-1.09,1.09h0c0,.6,.49,1.09,1.09,1.09Z"/>
      <path class="cls-15" d="M246.71,304.83h39.34c.6,0,1.09-.49,1.09-1.09h0c0-.6-.49-1.09-1.09-1.09h-39.34c-.6,0-1.09,.49-1.09,1.09h0c0,.6,.49,1.09,1.09,1.09Z"/>
      <path class="cls-23" d="M277.74,304.83h20.98c.6,0,1.09-.49,1.09-1.09h0c0-.6-.49-1.09-1.09-1.09h-20.98c-.6,0-1.09,.49-1.09,1.09h0c0,.6,.49,1.09,1.09,1.09Z"/>
      <path class="cls-14" d="M277.74,304.83h20.98c.6,0,1.09-.49,1.09-1.09h0c0-.6-.49-1.09-1.09-1.09h-20.98c-.6,0-1.09,.49-1.09,1.09h0c0,.6,.49,1.09,1.09,1.09Z"/>
    </g>
  </g>
  <g id="Character_1" data-name="Character 1">
    <g>
      <g>
        <g>
          <polygon class="cls-2" points="130.71 395.68 132.34 403.34 140.66 402.25 139.45 393.75 130.71 395.68"/>
          <g>
            <path class="cls-23" d="M142.19,402.26c-.09,0-.16-.07-.18-.15-.02-.08,0-.17,.08-.23,.13-.09,3-2.13,4.5-1.87,.28,.04,.53,.19,.7,.42,.22,.25,.26,.61,.1,.9-.31,.5-1.42,.81-2.5,.92-.9,.08-1.8,.09-2.69,.01Zm.64-.34c1.64,.04,3.84-.19,4.19-.8,.05-.08,.09-.21-.09-.45-.1-.15-.26-.24-.43-.25-.13-.02-.27-.03-.4-.01-1.18,.29-2.29,.8-3.27,1.51Z"/>
            <path class="cls-23" d="M142.08,402.26c-.07-.03-.11-.1-.11-.18,0-.11,0-2.49,1.02-3.51,.29-.3,.7-.47,1.12-.47,.57,0,.78,.27,.83,.51,.28,.96-1.63,3.06-2.63,3.63-.03,.02-.06,.02-.09,.02-.05,.02-.1,.02-.14,0Zm1.93-3.75c-.26,.02-.51,.14-.69,.33-.58,.82-.89,1.79-.9,2.79,1.02-.75,2.25-2.36,2.14-2.95-.02-.05-.06-.2-.43-.19l-.12,.02h0Z"/>
            <path class="cls-25" d="M141.18,401.13l-9.53,.93c-.36,.04-.65,.31-.69,.67l-.96,7.92c-.09,.7,.41,1.34,1.11,1.43,.09,.01,.18,.01,.27,0,3.43-.4,6.46-.88,10.74-1.3,5.05-.49,3.82,.24,9.77-.26,3.58-.3,3.83-4.43,2.3-4.48-7.02-.19-7.95-2.22-10.87-4.44-.63-.42-1.39-.59-2.14-.49Z"/>
          </g>
          <polygon class="cls-28" points="140.09 398.22 131.39 398.9 130.71 395.68 139.45 393.75 140.09 398.22"/>
          <polygon class="cls-25" points="133.03 332.29 140.46 396.99 130.71 398.11 113.63 333.82 133.03 332.29"/>
          <polygon class="cls-29" points="133.03 332.29 140.46 396.99 130.71 398.11 113.63 333.82 133.03 332.29"/>
        </g>
        <g>
          <polygon class="cls-2" points="159.51 380.63 163.65 387.54 171.39 383.69 167.36 375.83 159.51 380.63"/>
          <g>
            <path class="cls-23" d="M172.88,383.19c-.09,.02-.18-.02-.23-.09-.05-.07-.05-.17,0-.25,.09-.13,2.21-3.07,3.75-3.32,.29-.05,.58,.01,.82,.17,.3,.17,.46,.5,.4,.84-.14,.59-1.11,1.26-2.13,1.73-.84,.38-1.72,.69-2.62,.92Zm.51-.55c1.61-.51,3.68-1.47,3.81-2.18,.02-.09,.02-.23-.23-.41-.14-.11-.33-.14-.51-.1-.14,.02-.27,.06-.39,.12-1.05,.68-1.96,1.55-2.68,2.56Z"/>
            <path class="cls-23" d="M172.77,383.23c-.08-.01-.14-.06-.17-.14-.04-.11-.83-2.42-.18-3.76,.18-.39,.52-.69,.93-.83,.56-.19,.85,0,.97,.22,.6,.84-.56,3.52-1.34,4.41-.02,.02-.05,.04-.08,.04-.04,.03-.09,.05-.14,.05Zm.62-4.29c-.25,.11-.45,.31-.56,.55-.29,.99-.27,2.04,.06,3.01,.74-1.07,1.4-3.05,1.09-3.58-.04-.04-.12-.17-.49-.04l-.11,.06h0Z"/>
            <path class="cls-25" d="M171.52,382.43l-8.96,4.1c-.34,.15-.52,.52-.45,.89l1.71,8.03c.15,.71,.84,1.17,1.56,1.03,.09-.02,.18-.05,.27-.09,3.2-1.53,5.99-3.02,10.02-4.86,4.74-2.17,3.8-1.05,9.41-3.52,3.38-1.49,2.25-5.59,.74-5.13-6.9,2.16-8.48,.5-12.06-.68-.75-.2-1.55-.11-2.24,.24Z"/>
          </g>
          <polygon class="cls-28" points="161.62 384.14 159.51 380.63 167.36 375.83 169.31 379.63 161.62 384.14"/>
          <path class="cls-25" d="M68.89,308.6s-6.12,7.92-6.85,17.72c-1.21,16.3,12.64,20.53,28.46,19.84l43.82-4.75c1.77,5.94,25.94,42.1,25.94,42.1l9.05-5.2s-12.97-31.5-20.23-50.28c-4.15-10.72-37.07-11.04-49.5-8.84-3.78,1.02-3.05-4.88-3.05-4.88l-27.64-5.72Z"/>
        </g>
        <path class="cls-25" d="M106.15,250.91c-.14,.54,.03,1.06,.38,1.16,.35,.1,.75-.25,.9-.78s-.03-1.06-.38-1.16c-.35-.1-.75,.25-.9,.78Z"/>
        <path class="cls-25" d="M106.88,250.11h1.39s-.93,.82-1.39,0Z"/>
        <path class="cls-3" d="M106.46,251.57s.3,2.58,1.01,4c-.89,.45-2.02-.21-2.02-.21l1.01-3.79Z"/>
        <path class="cls-25" d="M107.83,247.55c-.05,0-.1-.02-.15-.05-1.22-.82-2.34-.4-2.39-.38-.17,.07-.36-.02-.42-.18-.07-.17,.01-.36,.18-.42,.06-.02,1.47-.57,2.99,.44,.15,.1,.19,.3,.09,.45-.07,.1-.19,.16-.3,.14Z"/>
        <path class="cls-18" d="M88.63,254.22c.13,4.19-1.66,10.94-4.94,13.08,0,0,2.12,4.52,9.65,5.98,8.29,1.61,4.64-3.32,4.64-3.32-4.35-1.95-3.68-5.26-2.37-8.25l-6.97-7.49Z"/>
        <path class="cls-18" d="M88.52,244.11c-1.35,6.72-2.06,9.52,.38,13.9,3.67,6.58,12.22,7.02,15.55,.9,3-5.51,4.7-15.56-1.08-20.1-5.69-4.47-13.5-1.41-14.85,5.3Z"/>
        <path class="cls-18" d="M101.36,248.92c-.13,1.24,.28,2.61,.89,3.63,.91,1.54,2.19,1.28,2.62-.01,.39-1.16,.39-3.36-.86-4.49-1.23-1.11-2.5-.55-2.65,.87Z"/>
        <g>
          <path class="cls-18" d="M77.59,276.08l-.08,1.05-.08,1.15c-.05,.77-.08,1.55-.09,2.33-.02,1.56-.04,3.12,.03,4.68,.11,3.12,.43,6.21,.99,9.24l.42,2c-.01,.1,.07,.35,.34,.68,.56,.68,1.73,1.44,3.01,2.07,2.59,1.27,5.75,2.25,8.77,3.07l-.33,4.13c-3.6,.15-7.06-.09-10.73-1.13-1.83-.56-3.72-1.26-5.63-2.84-.94-.79-1.9-1.91-2.48-3.38l-.21-.55-.1-.32-.2-.65-.39-1.3c-.94-3.48-1.51-7.01-1.77-10.55-.11-1.77-.18-3.54-.13-5.32,.02-.89,.06-1.78,.11-2.67,.03-.45,.06-.9,.11-1.35,.05-.47,.1-.88,.17-1.44l8.29,1.12Z"/>
          <path class="cls-18" d="M89.19,302.48l7.55-.21-3.05,4.62s-3.77,.83-4.9-1.86l.4-2.54Z"/>
          <polygon class="cls-18" points="98.66 304.32 98.42 308.2 93.69 306.88 96.74 302.27 98.66 304.32"/>
        </g>
        <path class="cls-23" d="M70.06,267.6c-3.4,3.4-2.24,15.41-2.24,15.41l11.88,1.56s3.69-10.48-.23-16.33c-1.95-2.92-6.06-3.99-9.41-.65Z"/>
        <path class="cls-23" d="M69.62,308.25c5.37,1.04,16.75,3.24,27.76,5.38,13.12-38.62,9.98-39.87,9.98-39.87,0,0-2.78-1.55-6.3-2.93-.13-.05-.26-.1-.38-.14-1.77-.65-2.15-.74-4.53-1.44-4.09-.97-7.9-1.76-12.61-2.44-.3-.04-.61-.09-.9-.12-.85-.11-1.7-.19-2.52-.27-.55-.06-1.1-.1-1.63-.13-.62-.04-1.23-.07-1.79-.1-3.04-.15-5.21-.11-5.21-.11,1.59,24.1,.43,31.02-1.89,42.17Z"/>
        <path class="cls-12" d="M69.62,308.25c5.37,1.04,16.75,3.24,27.76,5.38,13.12-38.62,9.98-39.87,9.98-39.87,0,0-2.78-1.55-6.3-2.93-.13-.05-.26-.1-.38-.14-1.77-.65-2.15-.74-4.53-1.44-4.09-.97-7.9-1.76-12.61-2.44-.3-.04-.61-.09-.9-.12-.85-.11-1.7-.19-2.52-.27-.55-.06-1.1-.1-1.63-.13-.62-.04-1.23-.07-1.79-.1-3.04-.15-5.21-.11-5.21-.11,1.59,24.1,.43,31.02-1.89,42.17Z"/>
        <g>
          <polygon class="cls-18" points="152.88 297.88 155.27 301.44 151.99 302.88 150.46 298 152.88 297.88"/>
          <path class="cls-18" d="M108.53,278.63c1.11,1.74,2.31,3.62,3.53,5.4,1.22,1.8,2.47,3.58,3.74,5.34,1.27,1.76,2.58,3.48,3.92,5.17,.67,.85,1.36,1.67,2.04,2.49,.34,.42,.7,.81,1.05,1.22l.53,.6,.26,.29s.02,.04,.05,.07c.18,.22,.8,.59,1.57,.86,.77,.28,1.69,.5,2.66,.65,1.94,.32,4.05,.46,6.18,.49,4.26,.06,8.71-.16,13.04-.53l.82,4.06c-4.46,1.3-8.91,2.24-13.59,2.73-2.34,.22-4.72,.36-7.23,.18-1.26-.09-2.55-.26-3.93-.61-1.37-.36-2.87-.89-4.4-2.11-.19-.15-.38-.33-.56-.5l-.32-.32-.62-.62c-.41-.41-.84-.82-1.24-1.24-.81-.84-1.61-1.69-2.37-2.56-1.55-1.73-3.04-3.5-4.45-5.33-1.43-1.81-2.79-3.67-4.09-5.57-1.3-1.92-2.55-3.79-3.76-5.88l7.19-4.27Z"/>
          <path class="cls-18" d="M145.94,301.61l4.52-3.61,2.33,4.59s-3.79,4.21-6.73,1.44l-.12-2.42Z"/>
        </g>
        <path class="cls-28" d="M101.75,285.51c-1.08,5.43,.06,9.95,.82,12.11,2.3-7.55,3.61-12.71,4.32-16.25-2.13-.28-4.39,.41-5.14,4.13Z"/>
        <path class="cls-23" d="M107.13,273.63c4.63,3.02,7.58,9.75,8.37,13.6l-10.75,8.76s-5.85-13.07-3.93-16.41c2-3.48,4.56-7.09,6.31-5.95Z"/>
        <path class="cls-23" d="M69.48,306.55l-1.66,2.23c-.13,.17,.07,.41,.39,.47l29.12,5.64c.25,.05,.48-.03,.52-.19l.66-2.42c.05-.17-.15-.35-.42-.41l-28.12-5.45c-.21-.04-.4,0-.49,.12Z"/>
        <path class="cls-28" d="M72.74,310.41l-.75-.15c-.15-.03-.25-.13-.23-.22l.88-3.14c.03-.09,.17-.14,.32-.11l.75,.15c.15,.03,.25,.13,.23,.22l-.88,3.14c-.03,.09-.17,.14-.32,.11Z"/>
        <path class="cls-28" d="M91.75,314.14l-.75-.15c-.15-.03-.25-.13-.23-.22l.88-3.14c.03-.09,.17-.14,.32-.11l.75,.15c.15,.03,.25,.13,.23,.22l-.88,3.14c-.03,.09-.17,.14-.32,.11Z"/>
        <path class="cls-25" d="M87.4,233.26c-2.72,.28-6.51,1.44-8,6.52-1.48,5.08-2.61,11.62-6.15,10.93,.8,.84,2.95,1.57,3.55,1.01-1.84,2.64-1.96,4.54-1.63,9.17,.41,5.79-2.95,5.1-2.95,5.1,0,0,4.72,5.29,17.12,5.26,11.02-.03,15.55-3.3,16.63-5.56-1.57-.22-4.81-5.04-3.33-8.45,1.49-3.41,3.53-12.28,2.36-15.5,1.66,1.83,2.31,5.08,2.81,1.61s.38-7.01-4.37-10.38c-4.24-3.01-15.02-2.95-16.05,.3Z"/>
        <path class="cls-23" d="M88.99,243.01c0,2.95-1.73,5.35-3.86,5.35s-3.86-2.39-3.86-5.35,1.73-5.35,3.86-5.35,3.86,2.39,3.86,5.35Z"/>
        <path class="cls-25" d="M82.89,234.14c-3.38-2.24-9.68,1.12-12.65,4.15-2.97,3.03-7.22,12.53-7.22,12.53-3.16,3.13-6.82,4.99-11.18,5.06,0,0,10.89,5.02,14.37,4.45,3.48-.57,6.16-3.82,6.16-3.82-1.8,3.86-3.88,7.13-6.89,8.35,4.3-1.02,7.64-2.98,10.02-5.76,2.38-2.79,2.54-9.46,2.54-9.46,0,0,4.09,.55,6.45-2.32s1.76-10.94-1.62-13.18Z"/>
      </g>
      <g>
        <polygon class="cls-25" points="81.64 345.56 81.91 357.24 83.14 417.17 87.19 417.17 88.42 357.24 88.69 345.56 81.64 345.56"/>
        <polygon class="cls-11" points="81.64 345.56 81.91 357.24 83.14 417.17 87.19 417.17 88.42 357.24 88.69 345.56 81.64 345.56"/>
        <polygon class="cls-26" points="81.64 345.56 81.91 357.56 88.42 357.56 88.69 345.56 81.64 345.56"/>
        <g>
          <g>
            <polygon class="cls-25" points="59.6 416.99 63.35 346.39 69.48 346.39 64.23 416.99 59.6 416.99"/>
            <polygon class="cls-11" points="64.24 416.99 59.6 416.99 63.01 352.09 63.34 346.31 69.47 346.31 69 352.09 64.24 416.99"/>
            <polygon class="cls-26" points="69.47 346.31 69 352.31 63.01 352.31 63.34 346.31 69.47 346.31"/>
          </g>
          <g>
            <polygon class="cls-25" points="106.1 416.99 100.85 346.39 106.98 346.39 110.73 416.99 106.1 416.99"/>
            <polygon class="cls-11" points="106.09 416.99 101.33 352.09 100.85 346.31 106.98 346.31 107.32 352.09 110.72 416.99 106.09 416.99"/>
            <polygon class="cls-26" points="100.85 346.31 101.33 352.31 107.32 352.31 106.98 346.31 100.85 346.31"/>
          </g>
        </g>
        <path class="cls-25" d="M60.06,339.81h50.2v4.54c0,2.33-1.9,4.23-4.23,4.23h-41.74c-2.33,0-4.23-1.9-4.23-4.23v-4.54h0Z" transform="translate(170.33 688.39) rotate(180)"/>
        <g>
          <rect class="cls-25" x="57.66" y="344.19" width="55.01" height="4.38" rx="1.7" ry="1.7" transform="translate(170.33 692.77) rotate(180)"/>
          <rect class="cls-10" x="57.66" y="344.19" width="55.01" height="4.38" rx="1.7" ry="1.7" transform="translate(170.33 692.77) rotate(180)"/>
        </g>
        <polygon class="cls-25" points="54 291.36 57.24 291.36 66.24 344.19 63.01 344.19 54 291.36"/>
        <polygon class="cls-25" points="78.01 291.36 81.24 291.36 90.25 344.19 87.01 344.19 78.01 291.36"/>
        <polygon class="cls-11" points="54 291.36 57.24 291.36 66.24 344.19 63.01 344.19 54 291.36"/>
        <polygon class="cls-11" points="78.01 291.36 81.24 291.36 90.25 344.19 87.01 344.19 78.01 291.36"/>
        <path class="cls-25" d="M84.21,301.41h-29.8c-2.14,0-3.95-1.78-4.22-4.16l-3.05-12.95c-.33-2.85,1.66-5.36,4.22-5.36h29.8c2.14,0,3.95,1.78,4.22,4.16l3.05,12.95c.33,2.85-1.66,5.36-4.22,5.36Z"/>
        <rect class="cls-10" x="85.79" y="344.12" width="26.76" height="4.38" rx="1.7" ry="1.7" transform="translate(198.34 692.62) rotate(180)"/>
      </g>
    </g>
  </g>
  <g id="Character_2" data-name="Character 2">
    <g>
      <g>
        <polygon class="cls-18" points="192.85 290.38 191.8 296.99 186.51 299.17 186.25 291.65 192.85 290.38"/>
        <path class="cls-25" d="M212.12,226.86c.1,.51,.46,.88,.8,.81,.34-.07,.52-.54,.42-1.06-.1-.51-.46-.88-.8-.81-.34,.07-.52,.54-.42,1.06Z"/>
        <path class="cls-3" d="M212.53,227.75s1.77,2.73,3.35,3.9c-.74,1.04-2.37,.96-2.37,.96l-.99-4.87Z"/>
        <path class="cls-25" d="M209.65,224.39c-.07,0-.15-.03-.21-.08-.13-.12-.13-.31-.02-.44,1.16-1.25,2.56-1.03,2.62-1.02,.17,.03,.28,.19,.25,.36-.03,.17-.19,.28-.35,.25h0s-1.15-.17-2.07,.83c-.06,.07-.14,.1-.23,.1Z"/>
        <path class="cls-18" d="M197.45,234.1c.93,4.77,1.87,13.5-1.47,16.68,0,0,1.3,4.83,10.16,4.83,9.74,0,4.65-4.83,4.65-4.83-5.31-1.27-5.18-5.21-4.25-8.91l-9.09-7.76Z"/>
        <path class="cls-25" d="M194.06,251.66c-.71-1.32-1.5-2.84,.13-3.31,1.78-.52,13.24-1.49,16.61-.51-1.03,1.84,.72,4.1,.72,4.1l-17.45-.28Z"/>
        <g>
          <path class="cls-18" d="M190.21,262.31l-2.56,4.46-2.51,4.55c-1.65,3.04-3.23,6.11-4.67,9.19-.72,1.54-1.4,3.08-2.02,4.63l-.12,.28s-.02,.04-.04,.07c-.04,.05-.05,.08-.08,.12-.05,.08-.08,.15-.12,.25-.07,.2-.04,.54,.11,.99,.28,.92,1.11,2.12,2.14,3.24,1,1.12,2.3,2.27,3.46,3.28l-2.08,4.43c-1.06-.3-1.93-.61-2.87-1.01-.92-.39-1.81-.86-2.71-1.39-1.76-1.09-3.53-2.43-5-4.63-.71-1.1-1.32-2.47-1.56-4.04-.11-.79-.15-1.61-.05-2.41,.04-.4,.1-.8,.2-1.18l.14-.58,.11-.35c.57-1.81,1.16-3.61,1.85-5.34,1.35-3.48,2.87-6.84,4.52-10.12,.83-1.64,1.69-3.26,2.59-4.85,.91-1.61,1.79-3.16,2.83-4.78l8.4,5.19Z"/>
          <path class="cls-18" d="M181.59,292.86l4.66-1.21,.27,7.52s-3.64,.54-5.88-1.69l.95-4.62Z"/>
          <g>
            <path class="cls-23" d="M184.32,252.25c-6.1,1.4-11.14,16.98-11.14,16.98l12.26,9.34s4.5-4.24,6.5-12.04c2.1-8.17-1.38-15.72-7.62-14.29Z"/>
            <path class="cls-27" d="M184.32,252.25c-6.1,1.4-11.14,16.98-11.14,16.98l12.26,9.34s4.5-4.24,6.5-12.04c2.1-8.17-1.38-15.72-7.62-14.29Z"/>
          </g>
          <path class="cls-28" d="M189.56,263.71c-3.32,3.28-4.4,9.26-4.66,14.45l.54,.42s4.5-4.25,6.51-12.04c.12-.49,.23-.98,.32-1.45l-2.71-1.37Z"/>
        </g>
        <g>
          <path class="cls-23" d="M220.81,252.59s6.93,7.83,.39,56.3h-34.84c-.24-5.35,3.12-31.44-2.04-56.64,0,0,5.97-1.2,11.66-1.47,4.45-.21,10.9-.36,14.81,0,5.16,.47,10.02,1.81,10.02,1.81Z"/>
          <path class="cls-24" d="M220.81,252.59s6.93,7.83,.39,56.3h-34.84c-.24-5.35,3.12-31.44-2.04-56.64,0,0,5.97-1.2,11.66-1.47,4.45-.21,10.9-.36,14.81,0,5.16,.47,10.02,1.81,10.02,1.81Z"/>
        </g>
        <path class="cls-18" d="M194.73,229.26c1.67,6.24,2.34,9.98,6.19,12.58,5.8,3.91,13.01-.58,13.24-7.2,.2-5.96-2.57-15.17-9.27-16.43-6.6-1.24-11.83,4.8-10.16,11.04Z"/>
        <path class="cls-25" d="M197.59,239.44c2.66,1.52,12.33-3.56,10.35-11.25,0,0,1.09-1.31,2.01-3.29,.33-.71,.64,3.7,.87,2.85,.32-1.15,.49-7.6,.38-8.89-.42-4.89-3.78-6.76-7.35-5.71-3.15,.93-3.06,2.65-3.06,2.65,0,0-14.89,1.75-11.71,7.8-6.06,6.61,5.18,13.94,8.5,15.84Z"/>
        <path class="cls-25" d="M189.51,224.11s-1.77-3.07-4.36-1.35c1.22,.02,3.21,.23,4.36,1.35Z"/>
        <path class="cls-25" d="M212.86,224.81s.78-11.25-7.05-11.94c3.4,2.32,6.46,6.95,7.05,11.94Z"/>
        <path class="cls-18" d="M205.35,229.52c.43,1.64,1.5,3.05,2.63,3.89,1.7,1.26,2.96,.02,2.84-1.9-.11-1.73-1.12-4.46-2.99-4.98-1.84-.5-2.96,1.11-2.48,2.99Z"/>
        <path class="cls-13" d="M220.7,252.59s6.93,7.83,.39,56.3h-34.84c-.24-5.35,3.12-31.44-2.04-56.64,0,0,5.97-1.2,11.66-1.47,4.45-.21,10.9-.36,14.81,0,5.16,.47,10.02,1.81,10.02,1.81Z"/>
        <path class="cls-28" d="M223.46,269.52l-.13-.12-7.92,1.9c-.45,5.36,5.05,11.76,7.89,14.68,.39-6.84,.38-12.23,.16-16.47Z"/>
        <path class="cls-18" d="M224.03,258.53c1,1.56,2.14,3.31,3.28,4.93,1.16,1.63,2.32,3.26,3.55,4.83,2.42,3.14,4.99,6.16,7.76,8.66,.69,.63,1.39,1.22,2.1,1.76l.53,.4s-.22-.08-.31-.11c-.23-.04-.34,0-.28,.03,.13,.07,.78-.04,1.46-.34,.69-.29,1.47-.69,2.24-1.16,3.12-1.93,6.34-4.63,9.37-7.26l3.8,3.07c-2.36,3.8-4.96,7.24-8.53,10.4-.91,.78-1.88,1.55-3.05,2.24-1.18,.68-2.51,1.37-4.47,1.66-.98,.13-2.17,.1-3.39-.29-.6-.18-1.23-.49-1.72-.8l-.77-.49c-1.01-.66-1.98-1.35-2.9-2.07-3.67-2.91-6.73-6.18-9.55-9.59-1.39-1.72-2.74-3.46-3.98-5.26-1.26-1.82-2.45-3.57-3.63-5.6l8.49-5.04Z"/>
        <g>
          <path class="cls-23" d="M211.23,262.44c-2.08,8.73,13.72,17.29,13.72,17.29l10.26-12.02s-4.67-7.08-10.49-12.66c-7.18-6.89-11.91,.75-13.5,7.4Z"/>
          <path class="cls-27" d="M211.23,262.44c-2.08,8.73,13.72,17.29,13.72,17.29l10.26-12.02s-4.67-7.08-10.49-12.66c-7.18-6.89-11.91,.75-13.5,7.4Z"/>
        </g>
        <path class="cls-18" d="M252.68,272.1l2.42-7.78,6.37,3.18s-.93,5.68-5.57,6.66l-3.23-2.06Z"/>
        <polygon class="cls-18" points="257.66 262.16 263.41 263.74 261.48 267.5 255.11 264.32 257.66 262.16"/>
        <path class="cls-25" d="M200.8,215.8s-1.23-1.94-4.82-.74c-2.27,.73-2.75,2.57-2.75,2.57l3.94,2.88,3.63-4.71Z"/>
        <g>
          <g>
            <polygon class="cls-2" points="256.41 392.93 258.09 400.84 266.68 399.71 265.43 390.93 256.41 392.93"/>
            <g>
              <path class="cls-23" d="M268.27,399.72c-.09-.01-.16-.07-.19-.16-.02-.09,0-.18,.08-.23,.13-.09,3.1-2.2,4.64-1.93,.29,.05,.55,.2,.72,.43,.23,.25,.27,.63,.11,.93-.32,.52-1.46,.84-2.58,.95-.93,.09-1.86,.09-2.78,.01Zm.66-.35c1.7,.04,3.97-.19,4.33-.82,.05-.08,.1-.21-.09-.46-.1-.15-.27-.24-.45-.26-.14-.02-.28-.03-.41-.01-1.21,.3-2.36,.83-3.38,1.56Z"/>
              <path class="cls-23" d="M268.15,399.72c-.07-.04-.11-.11-.11-.18,0-.11,0-2.57,1.06-3.63,.3-.31,.72-.48,1.15-.48,.59,0,.81,.28,.85,.52,.29,.99-1.68,3.16-2.71,3.75-.03,.02-.06,.02-.09,.02-.05,.02-.1,.02-.15,0Zm1.99-3.87c-.27,.02-.52,.14-.71,.34-.6,.84-.92,1.85-.93,2.88,1.05-.77,2.32-2.44,2.21-3.04-.02-.05-.06-.21-.45-.2l-.12,.02h0Z"/>
              <path class="cls-25" d="M267.22,398.55l-9.84,.97c-.37,.04-.67,.32-.71,.69l-.99,8.18c-.09,.73,.42,1.39,1.14,1.48,.09,.01,.19,.01,.28,0,3.54-.41,6.68-.91,11.09-1.34,5.21-.51,3.95,.24,10.09-.27,3.7-.31,3.96-4.58,2.38-4.63-7.25-.2-8.21-2.29-11.22-4.58-.65-.43-1.43-.61-2.21-.51Z"/>
            </g>
            <polygon class="cls-28" points="266.09 395.54 257.11 396.25 256.41 392.93 265.43 390.93 266.09 395.54"/>
            <polygon class="cls-23" points="258.81 327.45 267.29 389.76 254.11 390.79 238.77 329.02 258.81 327.45"/>
            <polygon class="cls-29" points="258.81 327.45 267.29 389.76 254.11 390.79 238.77 329.02 258.81 327.45"/>
            <path class="cls-23" d="M252.9,389.88l15.87-1.26s1.38,2.07-.13,3.92l-15.33,1.38s-1.51-.87-.41-4.04Z"/>
          </g>
          <g>
            <path class="cls-23" d="M186.26,309.06s-.91,9.04-.78,12.22c.68,16.87,16.66,22.83,29.4,20.49l45.26-4.91c1.83,6.13,23.16,39.89,23.16,39.89l11.21-6.44s-11.62-27.87-19.13-47.26c-4.28-11.07-38.29-11.41-51.13-9.13-3.9,1.05-3.15-5.04-3.15-5.04l-34.84,.17Z"/>
            <polygon class="cls-2" points="286.15 377.38 290.43 384.52 298.42 380.54 294.27 372.42 286.15 377.38"/>
            <g>
              <path class="cls-23" d="M299.96,380.02c-.09,.02-.18-.02-.24-.09-.05-.08-.05-.18,0-.25,.1-.13,2.28-3.18,3.87-3.43,.3-.05,.6,.01,.85,.18,.31,.17,.47,.52,.41,.87-.14,.61-1.14,1.3-2.2,1.79-.87,.39-1.78,.71-2.7,.95Zm.53-.57c1.67-.53,3.8-1.52,3.94-2.25,.03-.09,.02-.24-.24-.42-.15-.11-.34-.15-.52-.1-.14,.02-.28,.06-.41,.13-1.08,.7-2.02,1.6-2.77,2.64Z"/>
              <path class="cls-23" d="M299.85,380.06c-.08-.01-.15-.07-.17-.14-.04-.11-.86-2.5-.18-3.88,.19-.4,.54-.71,.96-.85,.58-.2,.88,0,1,.22,.62,.87-.58,3.64-1.39,4.55-.02,.02-.05,.04-.08,.05-.04,.04-.09,.05-.14,.05Zm.64-4.43c-.26,.11-.46,.32-.58,.57-.3,1.02-.28,2.11,.06,3.11,.77-1.1,1.44-3.15,1.13-3.7-.04-.04-.13-.18-.5-.04l-.11,.06h0Z"/>
              <path class="cls-25" d="M298.56,379.23l-9.25,4.23c-.35,.16-.54,.54-.46,.91l1.77,8.29c.15,.74,.87,1.21,1.61,1.06,.09-.02,.19-.05,.28-.09,3.31-1.58,6.19-3.12,10.35-5.02,4.9-2.24,3.93-1.08,9.72-3.64,3.49-1.54,2.32-5.78,.76-5.3-7.12,2.23-8.75,.52-12.46-.7-.78-.2-1.6-.12-2.32,.25Z"/>
            </g>
            <polygon class="cls-28" points="288.33 381.01 286.15 377.38 294.27 372.42 296.27 376.34 288.33 381.01"/>
            <path class="cls-23" d="M281.51,377.34l13.9-8.67s2.24,1.23,1.74,3.64l-13.35,8.53s-1.8-.08-2.29-3.5Z"/>
          </g>
        </g>
      </g>
      <g>
        <polygon class="cls-25" points="206.99 345.34 207.26 357.02 208.49 416.95 212.55 416.95 213.77 357.02 214.04 345.34 206.99 345.34"/>
        <polygon class="cls-11" points="206.99 345.34 207.26 357.02 208.49 416.95 212.55 416.95 213.77 357.02 214.04 345.34 206.99 345.34"/>
        <polygon class="cls-26" points="206.99 345.34 207.26 357.34 213.77 357.34 214.04 345.34 206.99 345.34"/>
        <g>
          <g>
            <polygon class="cls-25" points="184.95 416.76 188.7 346.17 194.83 346.17 189.58 416.76 184.95 416.76"/>
            <polygon class="cls-11" points="189.59 416.76 184.95 416.76 188.36 351.87 188.69 346.09 194.82 346.09 194.35 351.87 189.59 416.76"/>
            <polygon class="cls-26" points="194.82 346.09 194.35 352.09 188.36 352.09 188.69 346.09 194.82 346.09"/>
          </g>
          <g>
            <polygon class="cls-25" points="231.45 416.76 226.2 346.17 232.33 346.17 236.08 416.76 231.45 416.76"/>
            <polygon class="cls-11" points="231.44 416.76 226.68 351.87 226.21 346.09 232.33 346.09 232.67 351.87 236.07 416.76 231.44 416.76"/>
            <polygon class="cls-26" points="226.2 346.09 226.68 352.09 232.67 352.09 232.33 346.09 226.2 346.09"/>
          </g>
        </g>
        <path class="cls-25" d="M185.41,339.59h50.2v4.54c0,2.33-1.9,4.23-4.23,4.23h-41.74c-2.33,0-4.23-1.9-4.23-4.23v-4.54h0Z" transform="translate(421.03 687.95) rotate(180)"/>
        <g>
          <rect class="cls-25" x="183.01" y="343.97" width="55.01" height="4.38" rx="1.7" ry="1.7" transform="translate(421.03 692.33) rotate(180)"/>
          <rect class="cls-10" x="183.01" y="343.97" width="55.01" height="4.38" rx="1.7" ry="1.7" transform="translate(421.03 692.33) rotate(180)"/>
        </g>
        <polygon class="cls-25" points="179.35 291.14 182.59 291.14 191.59 343.97 188.36 343.97 179.35 291.14"/>
        <polygon class="cls-25" points="203.36 291.14 206.59 291.14 215.6 343.97 212.36 343.97 203.36 291.14"/>
        <polygon class="cls-11" points="179.35 291.14 182.59 291.14 191.59 343.97 188.36 343.97 179.35 291.14"/>
        <polygon class="cls-11" points="203.36 291.14 206.59 291.14 215.6 343.97 212.36 343.97 203.36 291.14"/>
        <path class="cls-25" d="M209.56,301.18h-29.8c-2.14,0-3.95-1.78-4.22-4.16l-3.05-12.95c-.33-2.85,1.66-5.36,4.22-5.36h29.8c2.14,0,3.95,1.78,4.22,4.16l3.05,12.95c.33,2.85-1.66,5.36-4.22,5.36Z"/>
        <rect class="cls-10" x="211.14" y="343.9" width="26.76" height="4.38" rx="1.7" ry="1.7" transform="translate(449.04 692.18) rotate(180)"/>
      </g>
    </g>
  </g>
  <g id="Screen_1" data-name="Screen 1">
    <g>
      <g>
        <rect class="cls-23" x="135.64" y="145.26" width="13.13" height="9.48"/>
        <g>
          <rect class="cls-23" x="75.35" y="149.1" width="73.42" height="53.15"/>
          <rect class="cls-9" x="75.35" y="149.1" width="73.42" height="53.15"/>
          <rect class="cls-1" x="75.35" y="149.1" width="10.23" height="53.15"/>
        </g>
        <rect class="cls-23" x="75.35" y="148.98" width="73.42" height="4.97"/>
        <g>
          <circle class="cls-8" cx="145.61" cy="147.68" r="1.03"/>
          <circle class="cls-8" cx="142.01" cy="147.68" r="1.03"/>
          <circle class="cls-8" cx="138.41" cy="147.68" r="1.03"/>
        </g>
      </g>
      <g>
        <path class="cls-25" d="M97.34,173.36c-.56-.23-1.01-.57-1.36-1.01l1.43-1.7c.49,.64,1.03,.97,1.6,.97,.38,0,.67-.11,.87-.34,.2-.23,.3-.56,.3-1.01v-3.99h-3.2v-2.03h5.8v5.85c0,1.2-.3,2.1-.91,2.7-.61,.6-1.49,.9-2.67,.9-.68,0-1.3-.12-1.85-.35Z"/>
        <path class="cls-25" d="M110.56,171.73h-3.92l-.73,1.8h-2.67l4.09-9.27h2.58l4.11,9.27h-2.73l-.73-1.8Zm-.77-1.93l-1.19-2.97-1.19,2.97h2.38Z"/>
        <path class="cls-25" d="M123.64,164.26l-3.97,9.27h-2.58l-3.96-9.27h2.83l2.52,6.04,2.57-6.04h2.6Z"/>
        <path class="cls-25" d="M130.08,171.73h-3.92l-.73,1.8h-2.67l4.09-9.27h2.58l4.11,9.27h-2.73l-.73-1.8Zm-.77-1.93l-1.19-2.97-1.19,2.97h2.38Z"/>
        <path class="cls-25" d="M95.97,189.33c-.71-.19-1.28-.43-1.72-.74l.86-1.93c.41,.27,.9,.49,1.44,.66,.55,.17,1.09,.25,1.62,.25,1.01,0,1.51-.25,1.51-.75,0-.27-.14-.46-.43-.59-.29-.13-.75-.26-1.38-.4-.7-.15-1.28-.31-1.75-.48-.47-.17-.87-.45-1.2-.83-.34-.38-.5-.89-.5-1.54,0-.56,.15-1.07,.46-1.53,.31-.45,.77-.81,1.38-1.08,.61-.27,1.37-.4,2.26-.4,.61,0,1.21,.07,1.8,.21,.59,.14,1.11,.34,1.56,.6l-.81,1.95c-.88-.48-1.74-.72-2.57-.72-.52,0-.9,.08-1.14,.23-.24,.15-.36,.36-.36,.6s.14,.43,.42,.56c.28,.12,.74,.25,1.36,.38,.71,.15,1.29,.31,1.75,.48,.46,.17,.86,.45,1.2,.82,.34,.38,.51,.89,.51,1.53,0,.56-.15,1.06-.46,1.51-.31,.45-.77,.81-1.39,1.08-.62,.27-1.37,.4-2.25,.4-.75,0-1.48-.09-2.19-.28Z"/>
        <path class="cls-25" d="M104.88,189.06c-.63-.32-1.11-.76-1.46-1.32-.35-.56-.52-1.21-.52-1.92s.17-1.35,.52-1.91c.35-.56,.84-1,1.46-1.31,.63-.31,1.34-.47,2.13-.47s1.51,.17,2.11,.52c.59,.35,1.01,.83,1.26,1.45l-1.95,.99c-.33-.64-.8-.97-1.43-.97-.45,0-.82,.15-1.12,.45-.3,.3-.44,.72-.44,1.24s.15,.96,.44,1.26c.3,.31,.67,.46,1.12,.46,.63,0,1.1-.32,1.43-.97l1.95,.99c-.25,.62-.67,1.1-1.26,1.45-.59,.35-1.29,.52-2.11,.52s-1.51-.16-2.13-.48Z"/>
        <path class="cls-25" d="M114.73,182.37c.41-.16,.88-.24,1.41-.24v2.26c-.23-.03-.42-.04-.57-.04-.54,0-.96,.15-1.26,.44-.3,.29-.46,.74-.46,1.34v3.3h-2.52v-7.18h2.4v.86c.26-.33,.59-.57,1-.73Z"/>
        <path class="cls-25" d="M117.31,181.07c-.28-.26-.42-.57-.42-.95s.14-.7,.42-.95c.28-.26,.65-.38,1.11-.38s.83,.12,1.11,.36c.28,.24,.42,.55,.42,.93s-.14,.73-.42,.99c-.28,.26-.65,.39-1.11,.39s-.83-.13-1.11-.38Zm-.15,1.18h2.52v7.18h-2.52v-7.18Z"/>
        <path class="cls-25" d="M127.61,182.58c.53,.31,.96,.74,1.27,1.3,.31,.56,.47,1.21,.47,1.95s-.16,1.39-.47,1.95c-.31,.56-.74,.99-1.27,1.3-.53,.3-1.13,.46-1.78,.46-.84,0-1.51-.25-2-.76v3.21h-2.52v-9.75h2.4v.72c.47-.56,1.17-.83,2.12-.83,.65,0,1.25,.15,1.78,.46Zm-1.22,4.5c.28-.3,.42-.72,.42-1.25s-.14-.95-.42-1.25c-.28-.3-.64-.46-1.09-.46s-.8,.15-1.09,.46c-.28,.3-.42,.72-.42,1.25s.14,.95,.42,1.25c.28,.31,.64,.46,1.09,.46s.8-.15,1.09-.46Z"/>
        <path class="cls-25" d="M135.47,189.13c-.21,.13-.47,.23-.77,.3-.3,.07-.63,.11-.97,.11-.94,0-1.66-.23-2.16-.69-.5-.46-.76-1.14-.76-2.05v-2.41h-1.05v-1.88h1.05v-1.87h2.52v1.87h1.64v1.88h-1.64v2.38c0,.26,.07,.46,.21,.6,.14,.15,.32,.22,.55,.22,.29,0,.55-.07,.77-.23l.62,1.76Z"/>
      </g>
    </g>
  </g>
  <g id="Screen_2" data-name="Screen 2">
    <g>
      <g>
        <rect class="cls-23" x="177.09" y="81.3" width="11.65" height="8.41"/>
        <g>
          <rect class="cls-23" x="123.62" y="84.7" width="65.12" height="47.14"/>
          <rect class="cls-9" x="123.62" y="84.7" width="65.12" height="47.14"/>
          <rect class="cls-1" x="123.62" y="84.7" width="9.07" height="47.14"/>
        </g>
        <rect class="cls-23" x="123.62" y="84.6" width="65.12" height="4.41"/>
        <g>
          <path class="cls-8" d="M185.03,83.45c0,.5,.41,.91,.91,.91s.91-.41,.91-.91-.41-.91-.91-.91-.91,.41-.91,.91Z"/>
          <path class="cls-8" d="M181.83,83.45c0,.5,.41,.91,.91,.91s.91-.41,.91-.91-.41-.91-.91-.91-.91,.41-.91,.91Z"/>
          <path class="cls-8" d="M178.64,83.45c0,.5,.41,.91,.91,.91s.91-.41,.91-.91-.41-.91-.91-.91-.91,.41-.91,.91Z"/>
        </g>
      </g>
      <g>
        <path class="cls-25" d="M144.81,105.5l-3.71,1.31,3.71,1.31v1.7l-5.73-2.12v-1.79l5.73-2.12v1.7Z"/>
        <path class="cls-25" d="M152.19,105.18c.48,.47,.72,1.17,.72,2.11v3.61h-2.21v-3.25c0-.86-.34-1.29-1.04-1.29-.38,0-.68,.12-.91,.37-.23,.25-.34,.62-.34,1.12v3.05h-2.21v-8.63h2.21v2.91c.24-.22,.52-.4,.85-.51,.33-.12,.67-.17,1.05-.17,.78,0,1.41,.23,1.89,.7Z"/>
        <path class="cls-25" d="M160.8,108.3h-4.58c.09,.33,.27,.58,.54,.75,.27,.17,.6,.26,1.01,.26,.3,0,.56-.04,.79-.13,.22-.09,.44-.22,.67-.42l1.16,1.21c-.61,.68-1.51,1.02-2.69,1.02-.74,0-1.38-.14-1.94-.42-.56-.28-.99-.67-1.3-1.16-.31-.5-.46-1.06-.46-1.69s.15-1.18,.45-1.67c.3-.49,.71-.88,1.24-1.16,.53-.28,1.12-.42,1.78-.42s1.2,.13,1.71,.39c.51,.26,.92,.64,1.22,1.13s.45,1.08,.45,1.75c0,.02-.01,.2-.03,.55Zm-4.18-1.95c-.23,.19-.37,.46-.44,.79h2.58c-.06-.33-.21-.6-.44-.79-.23-.19-.51-.29-.85-.29s-.63,.1-.86,.29Z"/>
        <path class="cls-25" d="M166.76,105.2c.55,.48,.83,1.21,.83,2.19v3.5h-2.06v-.81c-.32,.61-.94,.92-1.86,.92-.49,0-.91-.09-1.27-.26-.36-.17-.63-.4-.81-.69-.18-.29-.27-.62-.27-.99,0-.6,.23-1.06,.69-1.39,.46-.33,1.16-.49,2.12-.49h1.26c-.04-.67-.48-1-1.34-1-.3,0-.61,.05-.92,.15-.31,.1-.57,.23-.79,.4l-.74-1.5c.35-.23,.77-.41,1.27-.54,.5-.13,1-.19,1.51-.19,1.05,0,1.85,.24,2.4,.72Zm-1.8,4.22c.19-.12,.33-.31,.42-.55v-.55h-.95c-.64,0-.97,.21-.97,.64,0,.19,.07,.35,.22,.47,.15,.12,.35,.17,.6,.17s.48-.06,.67-.19Z"/>
        <path class="cls-25" d="M175.78,102.26v8.63h-2.11v-.63c-.41,.49-1.03,.73-1.85,.73-.57,0-1.1-.13-1.57-.4-.47-.27-.85-.65-1.12-1.15-.28-.5-.41-1.07-.41-1.72s.14-1.22,.41-1.72c.27-.49,.65-.87,1.12-1.13,.47-.26,1-.4,1.57-.4,.75,0,1.33,.22,1.74,.65v-2.87h2.21Zm-2.55,6.58c.25-.27,.37-.64,.37-1.11s-.12-.83-.37-1.09c-.24-.26-.56-.4-.95-.4s-.71,.13-.95,.4c-.25,.26-.37,.63-.37,1.09s.12,.84,.37,1.11c.25,.27,.57,.4,.95,.4s.69-.13,.94-.4Z"/>
        <path class="cls-25" d="M182.9,105.92v1.79l-5.73,2.12v-1.7l3.71-1.31-3.71-1.31v-1.7l5.73,2.12Z"/>
      </g>
    </g>
  </g>
  <g id="Screen_3" data-name="Screen 3">
    <g>
      <g>
        <rect class="cls-23" x="295.45" y="224.75" width="7.42" height="5.36"/>
        <g>
          <rect class="cls-23" x="261.36" y="226.92" width="41.51" height="30.05"/>
          <rect class="cls-9" x="261.36" y="226.92" width="41.51" height="30.05"/>
          <rect class="cls-1" x="261.36" y="226.92" width="5.78" height="30.05"/>
        </g>
        <rect class="cls-23" x="261.36" y="226.86" width="41.51" height="2.81"/>
        <g>
          <circle class="cls-8" cx="301.08" cy="226.12" r=".58"/>
          <circle class="cls-8" cx="299.05" cy="226.12" r=".58"/>
          <circle class="cls-8" cx="297.02" cy="226.12" r=".58"/>
        </g>
      </g>
      <g>
        <path class="cls-25" d="M277.42,240.36l-1.96,.7,1.96,.7v.9l-3.04-1.12v-.95l3.04-1.12v.9Z"/>
        <path class="cls-25" d="M278.21,238.9h2.04c.47,0,.89,.09,1.26,.26,.37,.18,.65,.43,.85,.75,.2,.32,.3,.7,.3,1.14s-.1,.82-.3,1.14c-.2,.32-.48,.57-.85,.75-.37,.18-.78,.26-1.26,.26h-2.04v-4.31Zm1.99,3.34c.37,0,.67-.1,.89-.31,.22-.21,.34-.5,.34-.87s-.11-.66-.34-.87c-.22-.21-.52-.31-.89-.31h-.77v2.36h.77Z"/>
        <path class="cls-25" d="M283.29,238.9h1.22v4.31h-1.22v-4.31Z"/>
        <path class="cls-25" d="M289.74,238.9l-1.85,4.31h-1.2l-1.84-4.31h1.32l1.17,2.81,1.19-2.81h1.21Z"/>
        <path class="cls-25" d="M293.05,240.58v.95l-3.04,1.12v-.9l1.96-.7-1.96-.7v-.9l3.04,1.12Z"/>
      </g>
    </g>
  </g>
  <g id="Screen_4" data-name="Screen 4">
    <g>
      <g>
        <rect class="cls-23" x="372.36" y="75.95" width="14.91" height="10.76"/>
        <rect class="cls-23" x="303.91" y="80.3" width="83.36" height="60.34"/>
        <rect class="cls-9" x="303.91" y="80.3" width="83.36" height="60.34"/>
        <rect class="cls-1" x="303.91" y="80.3" width="11.61" height="60.34"/>
        <rect class="cls-23" x="303.91" y="80.17" width="83.36" height="5.64"/>
        <g>
          <circle class="cls-8" cx="383.67" cy="78.7" r="1.17"/>
          <circle class="cls-8" cx="379.59" cy="78.7" r="1.17"/>
          <circle class="cls-8" cx="375.5" cy="78.7" r="1.17"/>
        </g>
      </g>
      <g>
        <path class="cls-25" d="M335.82,105.21c1.05,.47,1.86,1.15,2.44,2.03,.57,.88,.86,1.91,.86,3.1s-.29,2.22-.86,3.09c-.57,.87-1.38,1.54-2.44,2.02-1.05,.47-2.29,.71-3.72,.71h-2.75v4.13h-4.47v-15.79h7.22c1.43,0,2.67,.24,3.72,.71Zm-1.92,6.83c.47-.4,.7-.97,.7-1.7s-.23-1.31-.7-1.71c-.47-.41-1.16-.61-2.08-.61h-2.48v4.62h2.48c.92,0,1.61-.2,2.08-.6Z"/>
        <path class="cls-25" d="M356.3,104.5v15.79h-4.47v-6.16h-6.09v6.16h-4.47v-15.79h4.47v5.93h6.09v-5.93h4.47Z"/>
        <path class="cls-25" d="M370.4,105.21c1.05,.47,1.86,1.15,2.44,2.03,.57,.88,.86,1.91,.86,3.1s-.29,2.22-.86,3.09c-.57,.87-1.38,1.54-2.44,2.02-1.05,.47-2.29,.71-3.72,.71h-2.75v4.13h-4.47v-15.79h7.22c1.43,0,2.67,.24,3.72,.71Zm-1.92,6.83c.47-.4,.7-.97,.7-1.7s-.23-1.31-.7-1.71c-.47-.41-1.16-.61-2.08-.61h-2.48v4.62h2.48c.92,0,1.61-.2,2.08-.6Z"/>
      </g>
    </g>
  </g>
</svg>