<?xml version="1.0" encoding="UTF-8"?>
<svg xmlns="http://www.w3.org/2000/svg" viewBox="0 0 443.04 474.68">
  <defs>
    <style>
      .cls-1 {
        opacity: .1;
      }

      .cls-2 {
        fill: #fab27b;
      }

      .cls-3 {
        fill: #ed847e;
      }

      .cls-4 {
        fill: #ebebeb;
      }

      .cls-5 {
        fill: #f0f0f0;
      }

      .cls-6 {
        fill: #ebb376;
      }

      .cls-7 {
        fill: #f5f5f5;
      }

      .cls-8, .cls-9, .cls-10, .cls-11, .cls-12, .cls-13, .cls-14, .cls-15, .cls-16, .cls-17 {
        fill: #fff;
      }

      .cls-18 {
        fill: #ffc3bd;
      }

      .cls-19 {
        fill: #e6ae76;
      }

      .cls-20 {
        fill: #d08245;
      }

      .cls-21 {
        fill: #de5753;
      }

      .cls-22 {
        fill: #e0e0e0;
      }

      .cls-23, .cls-24 {
        fill: #407bff;
      }

      .cls-25 {
        fill: #263238;
      }

      .cls-9, .cls-10, .cls-11, .cls-26 {
        isolation: isolate;
      }

      .cls-9, .cls-15 {
        opacity: .7;
      }

      .cls-10, .cls-27, .cls-13, .cls-24 {
        opacity: .6;
      }

      .cls-11, .cls-17 {
        opacity: .4;
      }

      .cls-12, .cls-28, .cls-26 {
        opacity: .2;
      }

      .cls-29, .cls-16 {
        opacity: .3;
      }

      .cls-27 {
        fill: #fafafa;
      }

      .cls-14 {
        opacity: .5;
      }
    </style>
  </defs>
  <g id="Background_Complete" data-name="Background Complete">
    <g>
      <rect class="cls-4" x="-27.82" y="373.16" width="500" height=".25"/>
      <rect class="cls-4" x="388.96" y="389.26" width="33.12" height=".25"/>
      <rect class="cls-4" x="294.71" y="391.97" width="8.69" height=".25"/>
      <rect class="cls-4" x="368.76" y="379.97" width="19.19" height=".25"/>
      <rect class="cls-4" x="24.64" y="381.65" width="43.19" height=".25"/>
      <rect class="cls-4" x="76.73" y="381.65" width="6.33" height=".25"/>
      <rect class="cls-4" x="103.65" y="385.87" width="93.68" height=".25"/>
      <path class="cls-4" d="M209.19,328.56H16.09c-3.15,0-5.71-2.56-5.71-5.71V51.42c0-3.15,2.56-5.71,5.71-5.71H209.19c3.15,0,5.71,2.56,5.71,5.71V322.86c0,3.15-2.56,5.71-5.71,5.71ZM16.09,45.97c-3.01,0-5.46,2.45-5.46,5.46V322.86c0,3.01,2.45,5.46,5.46,5.46H209.19c3.01,0,5.46-2.45,5.46-5.46V51.42c0-3.01-2.45-5.46-5.46-5.46H16.09Z"/>
      <path class="cls-4" d="M425.49,328.56H232.39c-3.15,0-5.71-2.56-5.71-5.71V51.42c0-3.15,2.56-5.71,5.71-5.71h193.1c3.15,0,5.71,2.56,5.71,5.71V322.86c0,3.15-2.56,5.71-5.71,5.71ZM232.39,45.97c-3.01,0-5.46,2.45-5.46,5.46V322.86c0,3.01,2.45,5.46,5.46,5.46h193.1c3.01,0,5.46-2.45,5.46-5.46V51.42c0-3.01-2.45-5.46-5.46-5.46H232.39Z"/>
    </g>
    <g>
      <path class="cls-22" d="M379.96,335.15s11.93-17.08,3.71-36.68c-8.23-19.6-3.39-27.07-3.39-27.07l7.97,15.87s7.5-11.73,4.55-25.5c-2.95-13.77,3.84-36.92,3.84-36.92,0,0-2.44,26.81,1.84,37.45,0,0,6.26-10.32,8.49-20.74,2.24-10.42,9.07-31,9.07-31l-10.48,63.8,22.96-28.79s-23.41,39-26.53,46.61l25.44-12.69s-12.47,19.56-22.33,23.3c-9.87,3.74-20.58,34.24-20.58,34.24l-4.56-1.87Z"/>
      <path class="cls-5" d="M388.45,342.82s-10.36-20.96,2.07-41.33c12.43-20.36,8.33-29.46,8.33-29.46l-11.52,16.27s-6.34-14.28-.75-29.05c5.59-14.78,1.97-41.61,1.97-41.61,0,0-1.81,30.15-8.35,41.24,0,0-5.2-12.51-5.93-24.44-.72-11.94-4.84-35.93-4.84-35.93l.88,72.56-20.62-35.82s19.4,47.21,21.58,56.18l-26.08-18.37c1.64-.66,16.41,21.44,20.85,29.61,5.65,10.4,17.06,41.45,17.06,41.45l5.37-1.3Z"/>
      <polygon class="cls-7" points="353.99 333.71 415.81 333.71 410.81 373.38 359 373.38 353.99 333.71"/>
    </g>
    <g>
      <path class="cls-22" d="M356.29,143.57c-2.14-1.12-3.82-2.68-5.03-4.69-1.22-2.01-1.82-4.29-1.82-6.84s.61-4.83,1.82-6.83c1.21-2.01,2.89-3.57,5.03-4.69,2.14-1.12,4.54-1.68,7.21-1.68,2.45,0,4.64,.43,6.56,1.3,1.92,.87,3.51,2.12,4.76,3.75l-5.37,4.8c-1.56-1.97-3.4-2.96-5.52-2.96-1.78,0-3.21,.57-4.29,1.71-1.08,1.14-1.62,2.68-1.62,4.6s.54,3.46,1.62,4.6c1.08,1.14,2.51,1.71,4.29,1.71,2.12,0,3.95-.98,5.52-2.96l5.37,4.8c-1.25,1.63-2.84,2.89-4.76,3.75-1.92,.87-4.11,1.3-6.56,1.3-2.67,0-5.07-.56-7.21-1.68Z"/>
      <path class="cls-22" d="M395.23,135.11h-5.95v5.77h-6.49v-5.77h-5.95v-6.13h5.95v-5.77h6.49v5.77h5.95v6.13Z"/>
    </g>
    <g>
      <path class="cls-22" d="M86.78,217.2c-1.32-.69-2.35-1.65-3.1-2.89-.75-1.24-1.12-2.64-1.12-4.21s.37-2.97,1.12-4.21c.75-1.24,1.78-2.2,3.1-2.89,1.32-.69,2.8-1.03,4.44-1.03,1.51,0,2.86,.27,4.04,.8s2.16,1.3,2.93,2.31l-3.31,2.96c-.96-1.21-2.1-1.82-3.4-1.82-1.1,0-1.98,.35-2.64,1.06-.67,.7-1,1.65-1,2.83s.33,2.13,1,2.83c.67,.7,1.55,1.06,2.64,1.06,1.3,0,2.44-.61,3.4-1.82l3.31,2.96c-.77,1.01-1.75,1.78-2.93,2.31-1.19,.53-2.53,.8-4.04,.8-1.64,0-3.13-.34-4.44-1.03Z"/>
      <path class="cls-22" d="M110.77,211.99h-3.67v3.56h-4v-3.56h-3.67v-3.78h3.67v-3.55h4v3.55h3.67v3.78Z"/>
    </g>
    <g>
      <path class="cls-22" d="M234.69,78.63c-1.16-.61-2.07-1.45-2.73-2.54-.66-1.09-.99-2.33-.99-3.71s.33-2.62,.99-3.71c.66-1.09,1.57-1.94,2.73-2.54,1.16-.61,2.47-.91,3.91-.91,1.33,0,2.52,.23,3.56,.7,1.04,.47,1.9,1.15,2.58,2.04l-2.92,2.6c-.85-1.07-1.85-1.6-2.99-1.6-.97,0-1.74,.31-2.33,.93-.59,.62-.88,1.45-.88,2.49s.29,1.88,.88,2.5c.59,.62,1.36,.93,2.33,.93,1.15,0,2.15-.53,2.99-1.6l2.92,2.6c-.68,.89-1.54,1.57-2.58,2.03-1.04,.47-2.23,.7-3.56,.7-1.45,0-2.75-.3-3.91-.91Z"/>
      <path class="cls-22" d="M247.67,79.16c-1.08-.25-1.96-.6-2.65-1.03l1.49-3.37c.65,.38,1.38,.68,2.19,.91,.81,.23,1.58,.34,2.33,.34,.64,0,1.1-.06,1.37-.19,.27-.12,.41-.31,.41-.56,0-.29-.18-.5-.54-.65-.36-.14-.95-.3-1.77-.47-1.06-.22-1.94-.46-2.64-.71-.7-.25-1.32-.67-1.84-1.25-.52-.58-.78-1.37-.78-2.36,0-.86,.24-1.64,.72-2.35,.48-.7,1.2-1.26,2.16-1.66,.96-.4,2.12-.61,3.49-.61,.94,0,1.86,.1,2.77,.3,.91,.2,1.71,.5,2.4,.89l-1.39,3.35c-1.34-.68-2.62-1.02-3.82-1.02s-1.78,.29-1.78,.86c0,.27,.18,.48,.53,.62,.35,.14,.93,.28,1.74,.44,1.04,.2,1.92,.42,2.64,.68,.72,.25,1.34,.67,1.87,1.24,.53,.57,.79,1.36,.79,2.35,0,.86-.24,1.64-.72,2.34-.48,.7-1.2,1.25-2.16,1.66-.96,.41-2.12,.62-3.49,.62-1.13,0-2.24-.13-3.32-.38Z"/>
      <path class="cls-22" d="M260.53,79.16c-1.08-.25-1.96-.6-2.65-1.03l1.49-3.37c.65,.38,1.38,.68,2.19,.91,.81,.23,1.58,.34,2.33,.34,.64,0,1.1-.06,1.37-.19,.27-.12,.41-.31,.41-.56,0-.29-.18-.5-.54-.65-.36-.14-.95-.3-1.77-.47-1.06-.22-1.94-.46-2.64-.71-.7-.25-1.32-.67-1.84-1.25-.52-.58-.78-1.37-.78-2.36,0-.86,.24-1.64,.72-2.35,.48-.7,1.2-1.26,2.16-1.66,.96-.4,2.12-.61,3.49-.61,.94,0,1.86,.1,2.77,.3,.91,.2,1.71,.5,2.4,.89l-1.39,3.35c-1.34-.68-2.62-1.02-3.82-1.02s-1.78,.29-1.78,.86c0,.27,.18,.48,.53,.62,.35,.14,.93,.28,1.74,.44,1.04,.2,1.92,.42,2.64,.68,.72,.25,1.34,.67,1.87,1.24,.53,.57,.79,1.36,.79,2.35,0,.86-.24,1.64-.72,2.34-.48,.7-1.2,1.25-2.16,1.66-.96,.41-2.12,.62-3.49,.62-1.13,0-2.24-.13-3.32-.38Z"/>
    </g>
    <g>
      <path class="cls-22" d="M125.27,252.67c-.58-.3-1.04-.73-1.36-1.27-.33-.54-.49-1.16-.49-1.85s.16-1.31,.49-1.85c.33-.54,.78-.97,1.36-1.27,.58-.3,1.23-.45,1.96-.45,.67,0,1.26,.12,1.78,.35,.52,.23,.95,.57,1.29,1.02l-1.46,1.3c-.42-.53-.92-.8-1.5-.8-.48,0-.87,.15-1.16,.46-.29,.31-.44,.73-.44,1.25s.15,.94,.44,1.25c.29,.31,.68,.46,1.16,.46,.57,0,1.07-.27,1.5-.8l1.46,1.3c-.34,.44-.77,.78-1.29,1.02-.52,.23-1.12,.35-1.78,.35-.72,0-1.38-.15-1.96-.45Z"/>
      <path class="cls-22" d="M131.76,252.94c-.54-.13-.98-.3-1.33-.51l.74-1.68c.33,.19,.69,.34,1.1,.45,.4,.11,.79,.17,1.16,.17,.32,0,.55-.03,.69-.09,.14-.06,.21-.15,.21-.28,0-.14-.09-.25-.27-.32-.18-.07-.47-.15-.89-.23-.53-.11-.97-.23-1.32-.36-.35-.13-.66-.34-.92-.63-.26-.29-.39-.68-.39-1.18,0-.43,.12-.82,.36-1.17,.24-.35,.6-.63,1.08-.83,.48-.2,1.06-.3,1.75-.3,.47,0,.93,.05,1.38,.15s.85,.25,1.2,.45l-.69,1.67c-.67-.34-1.31-.51-1.91-.51s-.89,.14-.89,.43c0,.14,.09,.24,.26,.31,.18,.07,.47,.14,.87,.22,.52,.1,.96,.21,1.32,.34,.36,.13,.67,.33,.93,.62,.26,.29,.4,.68,.4,1.17,0,.43-.12,.82-.36,1.17-.24,.35-.6,.63-1.08,.83-.48,.21-1.06,.31-1.75,.31-.57,0-1.12-.06-1.66-.19Z"/>
      <path class="cls-22" d="M138.19,252.94c-.54-.13-.98-.3-1.33-.51l.74-1.68c.33,.19,.69,.34,1.1,.45,.4,.11,.79,.17,1.16,.17,.32,0,.55-.03,.69-.09,.14-.06,.21-.15,.21-.28,0-.14-.09-.25-.27-.32-.18-.07-.47-.15-.89-.23-.53-.11-.97-.23-1.32-.36-.35-.13-.66-.34-.92-.63-.26-.29-.39-.68-.39-1.18,0-.43,.12-.82,.36-1.17,.24-.35,.6-.63,1.08-.83,.48-.2,1.06-.3,1.75-.3,.47,0,.93,.05,1.38,.15,.45,.1,.85,.25,1.2,.45l-.69,1.67c-.67-.34-1.31-.51-1.91-.51s-.89,.14-.89,.43c0,.14,.09,.24,.26,.31,.18,.07,.47,.14,.87,.22,.52,.1,.96,.21,1.32,.34,.36,.13,.67,.33,.93,.62,.26,.29,.4,.68,.4,1.17,0,.43-.12,.82-.36,1.17-.24,.35-.6,.63-1.08,.83-.48,.21-1.06,.31-1.75,.31-.57,0-1.12-.06-1.66-.19Z"/>
    </g>
    <g>
      <path class="cls-22" d="M180.48,72.76c.58,.26,1.02,.62,1.33,1.1,.31,.48,.47,1.04,.47,1.68s-.16,1.2-.47,1.68c-.31,.48-.76,.85-1.33,1.1-.58,.26-1.25,.38-2.03,.38h-1.21v2.06h-2.83v-8.4h4.04c.78,0,1.45,.13,2.03,.38Zm-1.34,3.51c.19-.17,.29-.41,.29-.73s-.1-.55-.29-.73c-.19-.17-.48-.26-.86-.26h-1.03v1.97h1.03c.38,0,.67-.09,.86-.26Z"/>
      <path class="cls-22" d="M191.48,72.38v8.4h-2.83v-3.1h-2.62v3.1h-2.83v-8.4h2.83v2.98h2.62v-2.98h2.83Z"/>
      <path class="cls-22" d="M198.92,72.76c.58,.26,1.02,.62,1.33,1.1,.31,.48,.47,1.04,.47,1.68s-.16,1.2-.47,1.68c-.31,.48-.76,.85-1.33,1.1-.58,.26-1.25,.38-2.03,.38h-1.21v2.06h-2.83v-8.4h4.04c.78,0,1.45,.13,2.03,.38Zm-1.34,3.51c.19-.17,.29-.41,.29-.73s-.1-.55-.29-.73c-.19-.17-.48-.26-.86-.26h-1.03v1.97h1.03c.38,0,.67-.09,.86-.26Z"/>
    </g>
    <g>
      <path class="cls-22" d="M293.23,263.67v12.83h-4.33v-4.73h-4v4.73h-4.33v-12.83h4.33v4.55h4v-4.55h4.33Z"/>
      <path class="cls-22" d="M302.58,276.15c-.62,.35-1.47,.53-2.55,.53-1.41,0-2.49-.34-3.24-1.02-.76-.68-1.14-1.7-1.14-3.05v-2.57h-1.37v-3.02h1.37v-2.8h4.14v2.8h2.05v3.02h-2.05v2.53c0,.3,.08,.54,.24,.71,.16,.17,.37,.26,.62,.26,.35,0,.67-.09,.94-.28l.99,2.88Z"/>
      <path class="cls-22" d="M319.8,267.41c.73,.75,1.09,1.87,1.09,3.37v5.72h-4.14v-5c0-1.15-.37-1.72-1.12-1.72-.39,0-.71,.15-.94,.44-.24,.29-.36,.76-.36,1.39v4.89h-4.14v-5c0-1.15-.37-1.72-1.12-1.72-.39,0-.71,.15-.94,.44-.24,.29-.36,.76-.36,1.39v4.89h-4.14v-10.03h3.94v.93c.75-.75,1.69-1.12,2.84-1.12,.67,0,1.28,.13,1.81,.38,.54,.25,.98,.63,1.32,1.15,.4-.49,.89-.86,1.47-1.13,.57-.26,1.2-.39,1.89-.39,1.21,0,2.18,.37,2.91,1.12Z"/>
      <path class="cls-22" d="M322.69,262.9h4.14v13.6h-4.14v-13.6Z"/>
    </g>
    <g>
      <path class="cls-22" d="M80.68,121.45v8.26h-2.78v-3.04h-2.57v3.04h-2.78v-8.26h2.78v2.93h2.57v-2.93h2.78Z"/>
      <path class="cls-22" d="M86.7,129.48c-.4,.23-.95,.34-1.64,.34-.9,0-1.6-.22-2.09-.65-.49-.44-.73-1.09-.73-1.96v-1.65h-.88v-1.95h.88v-1.81h2.67v1.81h1.32v1.95h-1.32v1.63c0,.2,.05,.35,.15,.46,.1,.11,.24,.17,.4,.17,.23,0,.43-.06,.6-.18l.64,1.85Z"/>
      <path class="cls-22" d="M97.78,123.86c.47,.48,.7,1.2,.7,2.17v3.68h-2.67v-3.22c0-.74-.24-1.11-.72-1.11-.25,0-.45,.09-.61,.28-.15,.19-.23,.49-.23,.9v3.15h-2.67v-3.22c0-.74-.24-1.11-.72-1.11-.25,0-.45,.09-.61,.28-.15,.19-.23,.49-.23,.9v3.15h-2.67v-6.45h2.54v.6c.48-.48,1.09-.72,1.83-.72,.43,0,.82,.08,1.17,.24s.63,.41,.85,.74c.26-.31,.57-.56,.94-.73,.37-.17,.77-.25,1.22-.25,.78,0,1.4,.24,1.87,.72Z"/>
      <path class="cls-22" d="M99.64,120.95h2.67v8.75h-2.67v-8.75Z"/>
    </g>
  </g>
  <g id="Shadow">
    <ellipse id="_Path_" data-name="&amp;lt;Path&amp;gt;" class="cls-7" cx="222.18" cy="407" rx="193.89" ry="11.32"/>
  </g>
  <g id="Board">
    <g>
      <g>
        <g>
          <g>
            <rect class="cls-25" x="110.59" y="102.48" width="220.92" height="137.1"/>
            <rect class="cls-14" x="110.59" y="102.48" width="220.92" height="137.1"/>
          </g>
          <rect class="cls-7" x="112.95" y="105.06" width="216.21" height="131.94"/>
        </g>
        <g>
          <rect class="cls-25" x="105.44" y="239.58" width="230.44" height="3.86"/>
          <rect class="cls-16" x="105.44" y="239.58" width="230.44" height="3.86"/>
        </g>
      </g>
      <g>
        <g>
          <path class="cls-23" d="M184.55,136.7c-.97-.51-1.72-1.23-2.28-2.14-.55-.92-.83-1.95-.83-3.11s.28-2.2,.83-3.11c.55-.92,1.31-1.63,2.28-2.14,.97-.51,2.06-.77,3.27-.77,1.06,0,2.01,.19,2.86,.56,.85,.38,1.56,.92,2.12,1.62l-2.09,1.89c-.75-.9-1.66-1.36-2.73-1.36-.63,0-1.19,.14-1.68,.41-.49,.28-.87,.66-1.14,1.17-.27,.5-.41,1.08-.41,1.73s.13,1.23,.41,1.73c.27,.5,.65,.89,1.14,1.17,.49,.28,1.05,.41,1.68,.41,1.07,0,1.98-.45,2.73-1.36l2.09,1.89c-.56,.71-1.27,1.25-2.12,1.62-.85,.38-1.8,.56-2.86,.56-1.21,0-2.3-.26-3.27-.77Z"/>
          <path class="cls-23" d="M196.55,136.69c-.98-.52-1.74-1.24-2.3-2.15s-.84-1.95-.84-3.1,.28-2.18,.84-3.1,1.32-1.63,2.3-2.15c.98-.52,2.08-.78,3.3-.78s2.33,.26,3.3,.78c.98,.52,1.74,1.24,2.3,2.15s.84,1.95,.84,3.1-.28,2.18-.84,3.1-1.32,1.63-2.3,2.15-2.08,.78-3.3,.78-2.33-.26-3.3-.78Zm4.89-2.35c.47-.28,.85-.66,1.13-1.17,.28-.5,.41-1.08,.41-1.73s-.14-1.23-.41-1.73c-.28-.5-.65-.89-1.13-1.17-.47-.28-1-.41-1.59-.41s-1.11,.14-1.59,.41c-.47,.28-.85,.66-1.13,1.17-.28,.5-.41,1.08-.41,1.73s.14,1.23,.41,1.73c.28,.5,.65,.89,1.13,1.17,.47,.28,1,.41,1.59,.41s1.11-.14,1.59-.41Z"/>
          <path class="cls-23" d="M208.01,125.65h5.48c1.27,0,2.39,.24,3.38,.71,.98,.47,1.74,1.15,2.28,2.02,.54,.87,.81,1.89,.81,3.06s-.27,2.19-.81,3.06c-.54,.87-1.3,1.55-2.28,2.02-.98,.47-2.11,.71-3.38,.71h-5.48v-11.59Zm5.35,8.97c.99,0,1.79-.28,2.39-.84,.6-.56,.9-1.34,.9-2.33s-.3-1.77-.9-2.33c-.6-.56-1.4-.84-2.39-.84h-2.07v6.36h2.07Z"/>
          <path class="cls-23" d="M221.69,125.65h3.28v11.59h-3.28v-11.59Z"/>
          <path class="cls-23" d="M238.32,125.65v11.59h-2.7l-5.12-6.17v6.17h-3.21v-11.59h2.7l5.12,6.17v-6.17h3.21Z"/>
          <path class="cls-23" d="M248.41,131.19h2.9v4.8c-.66,.47-1.42,.84-2.28,1.09-.86,.25-1.72,.38-2.58,.38-1.21,0-2.31-.26-3.28-.77-.97-.51-1.73-1.23-2.28-2.14-.55-.92-.83-1.95-.83-3.11s.28-2.2,.83-3.11c.55-.92,1.32-1.63,2.3-2.14,.98-.51,2.09-.77,3.33-.77,1.08,0,2.05,.18,2.91,.55,.86,.36,1.58,.89,2.15,1.57l-2.09,1.89c-.78-.86-1.72-1.29-2.81-1.29-.99,0-1.79,.3-2.4,.9-.61,.6-.91,1.4-.91,2.41,0,.64,.14,1.21,.41,1.71,.28,.5,.66,.89,1.16,1.18,.5,.28,1.07,.42,1.71,.42s1.22-.13,1.77-.38v-3.18Z"/>
        </g>
        <g class="cls-28">
          <path class="cls-8" d="M184.55,136.7c-.97-.51-1.72-1.23-2.28-2.14-.55-.92-.83-1.95-.83-3.11s.28-2.2,.83-3.11c.55-.92,1.31-1.63,2.28-2.14,.97-.51,2.06-.77,3.27-.77,1.06,0,2.01,.19,2.86,.56,.85,.38,1.56,.92,2.12,1.62l-2.09,1.89c-.75-.9-1.66-1.36-2.73-1.36-.63,0-1.19,.14-1.68,.41-.49,.28-.87,.66-1.14,1.17-.27,.5-.41,1.08-.41,1.73s.13,1.23,.41,1.73c.27,.5,.65,.89,1.14,1.17,.49,.28,1.05,.41,1.68,.41,1.07,0,1.98-.45,2.73-1.36l2.09,1.89c-.56,.71-1.27,1.25-2.12,1.62-.85,.38-1.8,.56-2.86,.56-1.21,0-2.3-.26-3.27-.77Z"/>
          <path class="cls-8" d="M196.55,136.69c-.98-.52-1.74-1.24-2.3-2.15s-.84-1.95-.84-3.1,.28-2.18,.84-3.1,1.32-1.63,2.3-2.15c.98-.52,2.08-.78,3.3-.78s2.33,.26,3.3,.78c.98,.52,1.74,1.24,2.3,2.15s.84,1.95,.84,3.1-.28,2.18-.84,3.1-1.32,1.63-2.3,2.15-2.08,.78-3.3,.78-2.33-.26-3.3-.78Zm4.89-2.35c.47-.28,.85-.66,1.13-1.17,.28-.5,.41-1.08,.41-1.73s-.14-1.23-.41-1.73c-.28-.5-.65-.89-1.13-1.17-.47-.28-1-.41-1.59-.41s-1.11,.14-1.59,.41c-.47,.28-.85,.66-1.13,1.17-.28,.5-.41,1.08-.41,1.73s.14,1.23,.41,1.73c.28,.5,.65,.89,1.13,1.17,.47,.28,1,.41,1.59,.41s1.11-.14,1.59-.41Z"/>
          <path class="cls-8" d="M208.01,125.65h5.48c1.27,0,2.39,.24,3.38,.71,.98,.47,1.74,1.15,2.28,2.02,.54,.87,.81,1.89,.81,3.06s-.27,2.19-.81,3.06c-.54,.87-1.3,1.55-2.28,2.02-.98,.47-2.11,.71-3.38,.71h-5.48v-11.59Zm5.35,8.97c.99,0,1.79-.28,2.39-.84,.6-.56,.9-1.34,.9-2.33s-.3-1.77-.9-2.33c-.6-.56-1.4-.84-2.39-.84h-2.07v6.36h2.07Z"/>
          <path class="cls-8" d="M221.69,125.65h3.28v11.59h-3.28v-11.59Z"/>
          <path class="cls-8" d="M238.32,125.65v11.59h-2.7l-5.12-6.17v6.17h-3.21v-11.59h2.7l5.12,6.17v-6.17h3.21Z"/>
          <path class="cls-8" d="M248.41,131.19h2.9v4.8c-.66,.47-1.42,.84-2.28,1.09-.86,.25-1.72,.38-2.58,.38-1.21,0-2.31-.26-3.28-.77-.97-.51-1.73-1.23-2.28-2.14-.55-.92-.83-1.95-.83-3.11s.28-2.2,.83-3.11c.55-.92,1.32-1.63,2.3-2.14,.98-.51,2.09-.77,3.33-.77,1.08,0,2.05,.18,2.91,.55,.86,.36,1.58,.89,2.15,1.57l-2.09,1.89c-.78-.86-1.72-1.29-2.81-1.29-.99,0-1.79,.3-2.4,.9-.61,.6-.91,1.4-.91,2.41,0,.64,.14,1.21,.41,1.71,.28,.5,.66,.89,1.16,1.18,.5,.28,1.07,.42,1.71,.42s1.22-.13,1.77-.38v-3.18Z"/>
        </g>
      </g>
      <g>
        <g>
          <rect class="cls-23" x="241.37" y="148.27" width="28.01" height="3.6" rx="1.76" ry="1.76"/>
          <rect class="cls-23" x="241.37" y="156.67" width="68.96" height="3.6" rx="1.76" ry="1.76"/>
          <path class="cls-23" d="M243.13,163.87h63.41c.97,0,1.76,.79,1.76,1.76v.08c0,.97-.79,1.76-1.76,1.76h-63.41c-.97,0-1.76-.79-1.76-1.76v-.08c0-.97,.79-1.76,1.76-1.76Z"/>
          <path class="cls-23" d="M243.13,171.07h70.16c.97,0,1.76,.79,1.76,1.76v.08c0,.97-.79,1.76-1.76,1.76h-70.16c-.97,0-1.76-.79-1.76-1.76v-.07c0-.97,.79-1.76,1.76-1.76Z"/>
          <rect class="cls-23" x="241.37" y="178.27" width="67.39" height="3.6" rx="1.76" ry="1.76"/>
          <rect class="cls-23" x="241.37" y="185.47" width="67.39" height="3.6" rx="1.76" ry="1.76"/>
          <path class="cls-23" d="M243.13,192.67h67.94c.97,0,1.76,.79,1.76,1.76v.08c0,.97-.79,1.76-1.76,1.76h-67.94c-.97,0-1.76-.79-1.76-1.76v-.08c0-.97,.79-1.76,1.76-1.76Z"/>
          <path class="cls-23" d="M298.32,203.47h-55.19c-.97,0-1.76-.79-1.76-1.76h0c0-.97,.79-1.76,1.76-1.76h55.19c.97,0,1.76,.79,1.76,1.76h0c0,.97-.79,1.76-1.76,1.76Z"/>
        </g>
        <g class="cls-29">
          <rect class="cls-8" x="241.37" y="148.27" width="28.01" height="3.6" rx="1.76" ry="1.76"/>
          <rect class="cls-8" x="241.37" y="156.67" width="68.96" height="3.6" rx="1.76" ry="1.76"/>
          <path class="cls-8" d="M243.13,163.87h63.41c.97,0,1.76,.79,1.76,1.76v.08c0,.97-.79,1.76-1.76,1.76h-63.41c-.97,0-1.76-.79-1.76-1.76v-.08c0-.97,.79-1.76,1.76-1.76Z"/>
          <path class="cls-8" d="M243.13,171.07h70.16c.97,0,1.76,.79,1.76,1.76v.08c0,.97-.79,1.76-1.76,1.76h-70.16c-.97,0-1.76-.79-1.76-1.76v-.07c0-.97,.79-1.76,1.76-1.76Z"/>
          <rect class="cls-8" x="241.37" y="178.27" width="67.39" height="3.6" rx="1.76" ry="1.76"/>
          <rect class="cls-8" x="241.37" y="185.47" width="67.39" height="3.6" rx="1.76" ry="1.76"/>
          <path class="cls-8" d="M243.13,192.67h67.94c.97,0,1.76,.79,1.76,1.76v.08c0,.97-.79,1.76-1.76,1.76h-67.94c-.97,0-1.76-.79-1.76-1.76v-.08c0-.97,.79-1.76,1.76-1.76Z"/>
          <path class="cls-8" d="M298.32,203.47h-55.19c-.97,0-1.76-.79-1.76-1.76h0c0-.97,.79-1.76,1.76-1.76h55.19c.97,0,1.76,.79,1.76,1.76h0c0,.97-.79,1.76-1.76,1.76Z"/>
        </g>
      </g>
      <g>
        <path class="cls-23" d="M141.75,194.52c18.22-2.19,36.65-4.22,55.14-4.77,3.63-.11,7.27-.15,10.9-.06-.01,0,.05-1.78,0-1.78-15.95-.4-32.05,1.15-47.8,2.78-6.09,.63-12.17,1.32-18.24,2.05-.15,.02,.12,1.77,0,1.78h0Z"/>
        <path class="cls-23" d="M150.51,197.97c11.53-2.27,23.19-4.37,34.9-4.94,2.3-.11,4.6-.15,6.9-.06,0,0,.03-1.84,0-1.84-10.09-.41-20.28,1.19-30.25,2.88-3.85,.65-7.7,1.37-11.54,2.12-.1,.02,.07,1.83,0,1.84h0Z"/>
      </g>
      <g>
        <g>
          <path class="cls-23" d="M128.21,146.65l-1.75,.64,1.75,.64v.66l-2.5-.95v-.68l2.5-.95v.65Z"/>
          <path class="cls-23" d="M130.09,144.7h.73l-1.73,4.95h-.73l1.73-4.95Z"/>
          <path class="cls-23" d="M133.42,146.95v.68l-2.5,.95v-.66l1.75-.64-1.75-.64v-.65l2.5,.95Z"/>
        </g>
        <g class="cls-28">
          <path d="M133.05,154.16h-7.15c-.36,0-.66-.29-.66-.66s.29-.66,.66-.66h7.15c.36,0,.66,.29,.66,.66s-.29,.66-.66,.66Z"/>
          <path d="M133.05,158.44h-7.15c-.36,0-.66-.29-.66-.66s.29-.66,.66-.66h7.15c.36,0,.66,.29,.66,.66s-.29,.66-.66,.66Z"/>
          <path d="M133.05,162.73h-7.15c-.36,0-.66-.29-.66-.66s.29-.66,.66-.66h7.15c.36,0,.66,.29,.66,.66s-.29,.66-.66,.66Z"/>
          <path d="M133.05,167.02h-7.15c-.36,0-.66-.29-.66-.66s.29-.66,.66-.66h7.15c.36,0,.66,.29,.66,.66s-.29,.66-.66,.66Z"/>
          <path d="M133.05,171.31h-7.15c-.36,0-.66-.29-.66-.66s.29-.66,.66-.66h7.15c.36,0,.66,.29,.66,.66s-.29,.66-.66,.66Z"/>
          <path d="M133.05,175.6h-7.15c-.36,0-.66-.29-.66-.66s.29-.66,.66-.66h7.15c.36,0,.66,.29,.66,.66s-.29,.66-.66,.66Z"/>
          <path d="M133.05,179.89h-7.15c-.36,0-.66-.29-.66-.66s.29-.66,.66-.66h7.15c.36,0,.66,.29,.66,.66s-.29,.66-.66,.66Z"/>
          <path d="M133.05,184.18h-7.15c-.36,0-.66-.29-.66-.66s.29-.66,.66-.66h7.15c.36,0,.66,.29,.66,.66s-.29,.66-.66,.66Z"/>
          <path d="M133.05,188.47h-7.15c-.36,0-.66-.29-.66-.66s.29-.66,.66-.66h7.15c.36,0,.66,.29,.66,.66s-.29,.66-.66,.66Z"/>
        </g>
        <path class="cls-23" d="M153.72,175.53h-14.66c-.36,0-.66-.29-.66-.66s.29-.66,.66-.66h14.66c.36,0,.66,.29,.66,.66s-.29,.66-.66,.66Z"/>
        <path class="cls-23" d="M153.72,154.16h-14.66c-.36,0-.66-.29-.66-.66s.29-.66,.66-.66h14.66c.36,0,.66,.29,.66,.66s-.29,.66-.66,.66Z"/>
        <path class="cls-25" d="M195.83,175.53h-38.21c-.36,0-.66-.29-.66-.66s.29-.66,.66-.66h38.21c.36,0,.66,.29,.66,.66s-.29,.66-.66,.66Z"/>
        <g class="cls-28">
          <path class="cls-25" d="M200.58,158.44h-11.07c-.36,0-.66-.29-.66-.66s.29-.66,.66-.66h11.07c.36,0,.66,.29,.66,.66s-.29,.66-.66,.66Z"/>
        </g>
        <path class="cls-25" d="M163.72,179.23h-22.7c-.36,0-.66-.29-.66-.66s.29-.66,.66-.66h22.7c.36,0,.66,.29,.66,.66s-.29,.66-.66,.66Z"/>
        <path class="cls-23" d="M190.76,179.23h-22.36c-.36,0-.66-.29-.66-.66s.29-.66,.66-.66h22.36c.36,0,.66,.29,.66,.66s-.29,.66-.66,.66Z"/>
        <path class="cls-25" d="M218.52,179.23h-24.13c-.36,0-.66-.29-.66-.66s.29-.66,.66-.66h24.13c.36,0,.66,.29,.66,.66s-.29,.66-.66,.66Z"/>
        <g class="cls-28">
          <path class="cls-25" d="M165.83,183.52h-13.62c-.36,0-.66-.29-.66-.66s.29-.66,.66-.66h13.62c.36,0,.66,.29,.66,.66s-.29,.66-.66,.66Z"/>
        </g>
        <path class="cls-25" d="M185.12,183.52h-14.87c-.36,0-.66-.29-.66-.66s.29-.66,.66-.66h14.87c.36,0,.66,.29,.66,.66s-.29,.66-.66,.66Z"/>
        <g class="cls-28">
          <path class="cls-25" d="M212.61,183.52h-24.11c-.36,0-.66-.29-.66-.66s.29-.66,.66-.66h24.11c.36,0,.66,.29,.66,.66s-.29,.66-.66,.66Z"/>
        </g>
        <g class="cls-28">
          <path class="cls-25" d="M159.35,158.44h-18.33c-.36,0-.66-.29-.66-.66s.29-.66,.66-.66h18.33c.36,0,.66,.29,.66,.66s-.29,.66-.66,.66Z"/>
        </g>
        <path class="cls-23" d="M161.64,162.73h-20.62c-.36,0-.66-.29-.66-.66s.29-.66,.66-.66h20.62c.36,0,.66,.29,.66,.66s-.29,.66-.66,.66Z"/>
        <g class="cls-28">
          <path class="cls-25" d="M196.09,162.73h-31.06c-.36,0-.66-.29-.66-.66s.29-.66,.66-.66h31.06c.36,0,.66,.29,.66,.66s-.29,.66-.66,.66Z"/>
        </g>
        <path class="cls-25" d="M214.84,154.16h-31.06c-.36,0-.66-.29-.66-.66s.29-.66,.66-.66h31.06c.36,0,.66,.29,.66,.66s-.29,.66-.66,.66Z"/>
        <path class="cls-25" d="M218.52,162.73h-18.67c-.36,0-.66-.29-.66-.66s.29-.66,.66-.66h18.67c.36,0,.66,.29,.66,.66s-.29,.66-.66,.66Z"/>
        <g class="cls-28">
          <path class="cls-25" d="M159.4,167.02h-11.8c-.36,0-.66-.29-.66-.66s.29-.66,.66-.66h11.8c.36,0,.66,.29,.66,.66s-.29,.66-.66,.66Z"/>
        </g>
        <g class="cls-28">
          <path class="cls-25" d="M186.08,167.02h-22.65c-.36,0-.66-.29-.66-.66s.29-.66,.66-.66h22.65c.36,0,.66,.29,.66,.66s-.29,.66-.66,.66Z"/>
        </g>
        <g class="cls-28">
          <path class="cls-25" d="M180.07,154.16h-22.65c-.36,0-.66-.29-.66-.66s.29-.66,.66-.66h22.65c.36,0,.66,.29,.66,.66s-.29,.66-.66,.66Z"/>
        </g>
        <path class="cls-25" d="M212.61,167.02h-22.11c-.36,0-.66-.29-.66-.66s.29-.66,.66-.66h22.11c.36,0,.66,.29,.66,.66s-.29,.66-.66,.66Z"/>
        <path class="cls-25" d="M185.81,158.44h-22.11c-.36,0-.66-.29-.66-.66s.29-.66,.66-.66h22.11c.36,0,.66,.29,.66,.66s-.29,.66-.66,.66Z"/>
        <path class="cls-25" d="M168.09,171.31h-13.91c-.36,0-.66-.29-.66-.66s.29-.66,.66-.66h13.91c.36,0,.66,.29,.66,.66s-.29,.66-.66,.66Z"/>
        <g class="cls-28">
          <path class="cls-25" d="M184.21,171.31h-13.26c-.36,0-.66-.29-.66-.66s.29-.66,.66-.66h13.26c.36,0,.66,.29,.66,.66s-.29,.66-.66,.66Z"/>
        </g>
        <path class="cls-23" d="M212.61,171.31h-24.24c-.36,0-.66-.29-.66-.66s.29-.66,.66-.66h24.24c.36,0,.66,.29,.66,.66s-.29,.66-.66,.66Z"/>
        <g class="cls-28">
          <path class="cls-25" d="M171.18,187.81h-17.01c-.36,0-.66-.29-.66-.66s.29-.66,.66-.66h17.01c.36,0,.66,.29,.66,.66s-.29,.66-.66,.66Z"/>
        </g>
      </g>
    </g>
  </g>
  <g id="Desk_1" data-name="Desk 1">
    <g>
      <g>
        <g>
          <g>
            <polygon class="cls-25" points="201.82 408.07 199.35 408.07 196.18 302.24 199.44 302.24 201.82 408.07"/>
            <polygon class="cls-13" points="201.82 408.07 199.35 408.07 196.18 302.24 199.44 302.24 201.82 408.07"/>
          </g>
          <g>
            <polygon class="cls-25" points="162.05 302.24 162.05 408.07 164.66 408.07 167.73 307.07 199.23 307.07 201.53 408.07 204.11 408.07 204.11 302.24 162.05 302.24"/>
            <polygon class="cls-17" points="162.05 302.24 162.05 408.07 164.66 408.07 167.73 307.07 199.23 307.07 201.53 408.07 204.11 408.07 204.11 302.24 162.05 302.24"/>
          </g>
          <g>
            <polygon class="cls-25" points="162.05 408.07 159.58 408.07 158.79 302.24 162.05 302.24 162.05 408.07"/>
            <polygon class="cls-13" points="162.05 408.07 159.58 408.07 158.79 302.24 162.05 302.24 162.05 408.07"/>
          </g>
        </g>
        <g>
          <g>
            <polygon class="cls-25" points="114.32 408.07 111.86 408.07 108.68 302.24 111.94 302.24 114.32 408.07"/>
            <polygon class="cls-13" points="114.32 408.07 111.86 408.07 108.68 302.24 111.94 302.24 114.32 408.07"/>
          </g>
          <g>
            <polygon class="cls-25" points="74.55 302.24 74.55 408.07 77.16 408.07 80.23 307.07 111.73 307.07 114.04 408.07 116.62 408.07 116.62 302.24 74.55 302.24"/>
            <polygon class="cls-16" points="74.55 302.24 74.55 408.07 77.16 408.07 80.23 307.07 111.73 307.07 114.04 408.07 116.62 408.07 116.62 302.24 74.55 302.24"/>
          </g>
          <g>
            <polygon class="cls-25" points="74.55 408.07 72.09 408.07 71.29 302.24 74.55 302.24 74.55 408.07"/>
            <polygon class="cls-13" points="74.55 408.07 72.09 408.07 71.29 302.24 74.55 302.24 74.55 408.07"/>
          </g>
        </g>
      </g>
      <g>
        <rect class="cls-25" x="66.98" y="296.15" width="93.04" height="6.09"/>
        <rect class="cls-17" x="66.98" y="296.15" width="93.04" height="6.09"/>
        <rect class="cls-25" x="156.22" y="296.15" width="52.21" height="6.09"/>
        <rect class="cls-16" x="156.22" y="296.15" width="52.21" height="6.09"/>
      </g>
    </g>
  </g>
  <g id="Device_1" data-name="Device 1">
    <g>
      <g>
        <path class="cls-23" d="M107.48,295.7h32.5c.86,0,1.65-.7,1.77-1.55l3.28-23.34c.12-.86-.48-1.55-1.34-1.55h-32.5c-.86,0-1.65,.7-1.77,1.55l-3.28,23.34c-.12,.86,.48,1.55,1.34,1.55Z"/>
        <path class="cls-12" d="M107.48,295.7h32.5c.86,0,1.65-.7,1.77-1.55l3.28-23.34c.12-.86-.48-1.55-1.34-1.55h-32.5c-.86,0-1.65,.7-1.77,1.55l-3.28,23.34c-.12,.86,.48,1.55,1.34,1.55Z"/>
        <g>
          <g>
            <path class="cls-25" d="M109.66,292.21l28.88-.13c.79,0,1.52-.64,1.63-1.43l2.57-17.62c.11-.79-.44-1.43-1.23-1.43l-28.88,.13c-.79,0-1.52,.64-1.63,1.43l-2.57,17.62c-.11,.79,.44,1.43,1.23,1.43Z"/>
            <path class="cls-15" d="M109.66,292.21l28.88-.13c.79,0,1.52-.64,1.63-1.43l2.57-17.62c.11-.79-.44-1.43-1.23-1.43l-28.88,.13c-.79,0-1.52,.64-1.63,1.43l-2.57,17.62c-.11,.79,.44,1.43,1.23,1.43Z"/>
          </g>
          <g>
            <g>
              <path class="cls-8" d="M113.41,274.07l-.52,.19,.52,.19v.19l-.74-.28v-.2l.74-.28v.19Z"/>
              <path class="cls-8" d="M113.96,273.49h.22l-.51,1.47h-.22l.51-1.47Z"/>
              <path class="cls-8" d="M114.95,274.16v.2l-.74,.28v-.19l.52-.19-.52-.19v-.19l.74,.28Z"/>
            </g>
            <g class="cls-28">
              <path d="M114.59,276.3h-2.12c-.11,0-.19-.09-.19-.2s.09-.19,.19-.19h2.12c.11,0,.19,.09,.19,.19s-.09,.2-.19,.2Z"/>
              <path d="M114.39,277.57h-2.12c-.11,0-.19-.09-.19-.19s.09-.19,.19-.19h2.12c.11,0,.2,.09,.2,.19s-.09,.19-.2,.19Z"/>
              <path d="M114.27,278.84h-2.12c-.11,0-.19-.09-.19-.19s.09-.19,.19-.19h2.12c.11,0,.19,.09,.19,.19s-.09,.19-.19,.19Z"/>
              <path d="M114.02,280.11h-2.12c-.11,0-.2-.09-.2-.19s.09-.19,.2-.19h2.12c.11,0,.19,.09,.19,.19s-.09,.19-.19,.19Z"/>
              <path d="M113.86,281.39h-2.12c-.11,0-.19-.09-.19-.19s.09-.19,.19-.19h2.12c.11,0,.2,.09,.2,.19s-.09,.19-.2,.19Z"/>
              <path d="M113.63,282.66h-2.12c-.11,0-.19-.09-.19-.2s.09-.19,.19-.19h2.12c.11,0,.19,.09,.19,.19s-.09,.2-.19,.2Z"/>
              <path d="M113.44,283.93h-2.12c-.11,0-.19-.09-.19-.19s.09-.19,.19-.19h2.12c.11,0,.19,.09,.19,.19s-.09,.19-.19,.19Z"/>
              <path d="M113.2,285.2h-2.12c-.11,0-.2-.09-.2-.19s.09-.19,.2-.19h2.12c.11,0,.19,.09,.19,.19s-.09,.19-.19,.19Z"/>
              <path d="M112.96,286.48h-2.12c-.11,0-.19-.09-.19-.19s.09-.19,.19-.19h2.12c.11,0,.19,.09,.19,.19s-.09,.19-.19,.19Z"/>
            </g>
            <g>
              <path class="cls-23" d="M120.72,276.3h-4.35c-.11,0-.19-.09-.19-.2s.09-.19,.19-.19h4.35c.11,0,.19,.09,.19,.19s-.09,.2-.19,.2Z"/>
              <path class="cls-25" d="M133.22,276.3h-11.34c-.11,0-.2-.09-.2-.2s.09-.19,.2-.19h11.34c.11,0,.19,.09,.19,.19s-.09,.2-.19,.2Z"/>
              <g class="cls-28">
                <path class="cls-25" d="M138.39,276.3h-3.28c-.11,0-.19-.09-.19-.2s.09-.19,.19-.19h3.28c.11,0,.19,.09,.19,.19s-.09,.2-.19,.2Z"/>
              </g>
              <g class="cls-28">
                <path class="cls-25" d="M128.12,277.57h-11.36c-.11,0-.19-.09-.19-.19s.09-.19,.19-.19h11.36c.11,0,.19,.09,.19,.19s-.09,.19-.19,.19Z"/>
              </g>
              <path class="cls-23" d="M139.75,277.57h-10.59c-.11,0-.19-.09-.19-.19s.09-.19,.19-.19h10.59c.11,0,.19,.09,.19,.19s-.09,.19-.19,.19Z"/>
              <path class="cls-25" d="M123.37,278.84h-6.73c-.11,0-.19-.09-.19-.19s.09-.19,.19-.19h6.73c.11,0,.19,.09,.19,.19s-.09,.19-.19,.19Z"/>
              <path class="cls-23" d="M131.39,278.84h-6.63c-.11,0-.19-.09-.19-.19s.09-.19,.19-.19h6.63c.11,0,.19,.09,.19,.19s-.09,.19-.19,.19Z"/>
              <path class="cls-25" d="M139.63,278.84h-7.16c-.11,0-.19-.09-.19-.19s.09-.19,.19-.19h7.16c.11,0,.19,.09,.19,.19s-.09,.19-.19,.19Z"/>
              <path class="cls-25" d="M123.74,280.11h-4.04c-.11,0-.19-.09-.19-.19s.09-.19,.19-.19h4.04c.11,0,.19,.09,.19,.19s-.09,.19-.19,.19Z"/>
              <path class="cls-25" d="M129.47,280.11h-4.41c-.11,0-.19-.09-.19-.19s.09-.19,.19-.19h4.41c.11,0,.2,.09,.2,.19s-.09,.19-.2,.19Z"/>
              <g class="cls-28">
                <path class="cls-25" d="M137.62,280.11h-7.15c-.11,0-.19-.09-.19-.19s.09-.19,.19-.19h7.15c.11,0,.2,.09,.2,.19s-.09,.19-.2,.19Z"/>
              </g>
              <g class="cls-28">
                <path class="cls-25" d="M121.66,281.39h-5.44c-.11,0-.19-.09-.19-.19s.09-.19,.19-.19h5.44c.11,0,.19,.09,.19,.19s-.09,.19-.19,.19Z"/>
              </g>
              <path class="cls-23" d="M122.12,282.66h-6.12c-.11,0-.19-.09-.19-.2s.09-.19,.19-.19h6.12c.11,0,.19,.09,.19,.19s-.09,.2-.19,.2Z"/>
              <path class="cls-25" d="M132.33,282.66h-9.22c1.1,0,1.01-.09,1.01-.2s.09-.19,.2-.19h9.22c.11,0,.19,.09,.19,.19s-.09,.2-1.4,.2Z"/>
              <path class="cls-25" d="M138.99,282.66h-5.54c-.11,0-.19-.09-.19-.2s.09-.19,.19-.19h5.54c.11,0,.19,.09,.19,.19s-.09,.2-.19,.2Z"/>
              <g class="cls-28">
                <path class="cls-25" d="M121.25,283.93h-3.5c-.11,0-.19-.09-.19-.19s.09-.19,.19-.19h3.5c.11,0,.19,.09,.19,.19s-.09,.19-.19,.19Z"/>
              </g>
              <g class="cls-28">
                <path class="cls-25" d="M129.17,283.93h-6.72c-.11,0-.19-.09-.19-.19s.09-.19,.19-.19h6.72c.11,0,.19,.09,.19,.19s-.09,.19-.19,.19Z"/>
              </g>
              <path class="cls-25" d="M137.04,283.93h-6.56c1.3,0,1.21-.09,1.21-.19s.09-.19,.19-.19h6.56c.11,0,.19,.09,.19,.19s-.09,.19-1.6,.19Z"/>
              <path class="cls-25" d="M123.59,285.2h-4.13c-.11,0-.19-.09-.19-.19s.09-.19,.19-.19h4.13c.11,0,.19,.09,.19,.19s-.09,.19-.19,.19Z"/>
              <g class="cls-28">
                <path class="cls-25" d="M128.37,285.2h-3.93c-.11,0-.19-.09-.19-.19s.09-.19,.19-.19h3.93c.11,0,.19,.09,.19,.19s-.09,.19-.19,.19Z"/>
              </g>
              <path class="cls-23" d="M136.8,285.2h-7.19c-.11,0-.19-.09-.19-.19s.09-.19,.19-.19h7.19c.11,0,.2,.09,.2,.19s-.09,.19-.2,.19Z"/>
              <g class="cls-28">
                <path class="cls-25" d="M124.27,286.48h-5.05c-.11,0-.2-.09-.2-.19s.09-.19,.2-.19h5.05c.11,0,.19,.09,.19,.19s-.09,.19-.19,.19Z"/>
              </g>
            </g>
          </g>
          <polygon class="cls-16" points="115.92 271.72 112.84 292.21 109.4 292.21 112.89 271.72 115.92 271.72"/>
        </g>
      </g>
      <path class="cls-23" d="M87.82,295.59h39.34c.6,0,1.09-.49,1.09-1.09h0c0-.6-.49-1.09-1.09-1.09h-39.34c-.6,0-1.09,.49-1.09,1.09h0c0,.6,.49,1.09,1.09,1.09Z"/>
      <path class="cls-15" d="M87.82,295.59h39.34c.6,0,1.09-.49,1.09-1.09h0c0-.6-.49-1.09-1.09-1.09h-39.34c-.6,0-1.09,.49-1.09,1.09h0c0,.6,.49,1.09,1.09,1.09Z"/>
      <path class="cls-23" d="M118.86,295.59h20.98c.6,0,1.09-.49,1.09-1.09h0c0-.6-.49-1.09-1.09-1.09h-20.98c-.6,0-1.09,.49-1.09,1.09h0c0,.6,.49,1.09,1.09,1.09Z"/>
      <path class="cls-14" d="M118.86,295.59h20.98c.6,0,1.09-.49,1.09-1.09h0c0-.6-.49-1.09-1.09-1.09h-20.98c-.6,0-1.09,.49-1.09,1.09h0c0,.6,.49,1.09,1.09,1.09Z"/>
    </g>
  </g>
  <g id="Character_3" data-name="Character 3">
    <g>
      <g>
        <path class="cls-19" d="M310.15,184.5l2.14,1.68c.8,.63,1.25,1.62,1.21,2.64l-.23,4.78c-.09,1.91-1.1,3.66-2.71,4.69l-1,.64c-3.74-2.55-5.9-8.06-5.9-8.06l-.79-1.5c-.7-1.34-.26-2.91,1.03-3.6l2.96-1.61c1.02-.55,2.33-.42,3.3,.34Z"/>
        <path class="cls-19" d="M351.97,198.81l-.15,.34-.11,.25c-.07,.16-.15,.31-.22,.45-.14,.29-.29,.57-.44,.84-.3,.54-.6,1.05-.92,1.56-.62,1.01-1.3,1.95-2,2.87-1.4,1.83-2.92,3.52-4.54,5.09-.81,.79-1.64,1.54-2.48,2.28-.86,.72-1.72,1.43-2.61,2.1-1.76,1.36-3.6,2.59-5.48,3.73l-.23,.14c-.18,.11-.38,.2-.57,.28-1.13,.42-2.37,.59-3.48,.53-1.12-.05-2.12-.3-2.99-.62-1.75-.65-3.08-1.53-4.25-2.45-1.17-.92-2.18-1.89-3.12-2.89-.93-1-1.79-2.01-2.6-3.05-.8-1.04-1.56-2.1-2.28-3.16-.72-1.07-1.4-2.16-2.06-3.25-.66-1.09-1.27-2.21-1.87-3.32-.3-.56-.59-1.13-.87-1.7-.28-.58-.55-1.13-.83-1.75-.53-1.19,0-2.58,1.18-3.11,1.01-.46,2.18-.14,2.83,.71l.04,.06,1.09,1.41c.37,.48,.74,.95,1.12,1.42,.74,.94,1.51,1.87,2.27,2.79,.76,.92,1.55,1.81,2.34,2.69,.79,.88,1.59,1.73,2.41,2.54,.82,.81,1.64,1.6,2.48,2.31,.84,.71,1.69,1.36,2.51,1.88,.82,.52,1.64,.91,2.23,1.04,.29,.07,.51,.07,.62,.06,.12-.02,.12-.06,.13-.08l-.8,.42c1.57-1.15,3.06-2.36,4.51-3.62,.73-.63,1.42-1.28,2.11-1.94,.68-.66,1.36-1.32,2-2.01,.32-.34,.64-.69,.95-1.04,.32-.35,.62-.7,.92-1.05,.6-.71,1.17-1.44,1.72-2.17,.55-.73,1.06-1.48,1.55-2.22,.24-.37,.46-.74,.68-1.11,.11-.18,.21-.36,.3-.53l.13-.24,.05-.1,.02-.04h0s0-.02,0,0v.03c1-2.41,3.78-3.53,6.18-2.52s3.53,3.79,2.52,6.2Z"/>
      </g>
      <g>
        <polygon class="cls-25" points="292.17 130.29 292.99 130.04 310.88 189.47 309.58 189.85 292.17 130.29"/>
        <polygon class="cls-17" points="292.17 130.29 292.99 130.04 310.88 189.47 309.58 189.85 292.17 130.29"/>
      </g>
      <polygon class="cls-28" points="332.08 208.2 338.52 214.57 341.13 212.47 333.78 206.45 332.08 208.2"/>
      <g>
        <g>
          <path class="cls-25" d="M360.6,193.87c-1.08,2.65-5.23,15.37-6.4,31.21,.34,1.5,.76,3.01,1.25,4.53,.93-1.39,2.5-2.9,3.54-4.27,.57-14.24,1.89-27.93,3.06-31.32l-1.45-.16Z"/>
          <polygon class="cls-25" points="360.53 196.06 359.51 192.57 362.04 191.68 363.8 192.94 360.53 196.06"/>
        </g>
        <path class="cls-8" d="M362.04,191.68s1.46,2.19,3.2,4.37c2.92-1.26,9.82-4.69,9.87-8.4-.28-1.11-1.65-1.88-1.65-1.88,0,0-4.47,3.59-11.42,5.91Z"/>
        <path class="cls-8" d="M362.04,191.68s-2.35,1.6-3.98,3.76c-1.9-1.58-.18-8.35,.64-9.04,1.72-.9,2.82-.68,2.82-.68,0,0-2.63,4.9,.52,5.97Z"/>
      </g>
      <g>
        <polygon class="cls-6" points="337.11 401.93 330.54 401.02 331.45 384.94 338.02 385.85 337.11 401.93"/>
        <polygon class="cls-26" points="338.02 385.85 331.45 384.95 330.88 394.91 337.51 394.91 338.02 385.85"/>
        <path class="cls-25" d="M330.04,400.23l7.43-.46c.26-.03,.49,.16,.52,.42,0,0,0,0,0,0l.73,5.86c.04,.64-.44,1.19-1.08,1.24-2.6,.12-3.84,.05-7.11,.23-2.01,.12-5.96,.55-8.73,.28-2.77-.27-2.43-3-1.23-3.13,2.84-.32,6.59-2.41,8.37-3.99,.31-.27,.7-.43,1.12-.45Z"/>
        <path class="cls-23" d="M329.88,401.03h0c0-.12-.11-2-.8-2.6-.19-.15-.5-.22-.74-.17-.27,.03-.52,.23-.56,.5-.06,.41,.24,1.01,.65,1.52-.65-.29-1.41-.53-1.84-.34-.18,.09-.31,.26-.33,.46-.09,.31,0,.64,.24,.85,.38,.24,.83,.33,1.26,.25,.59-.05,1.17-.17,1.73-.34,.02,0,.04,.01,.06,0,.02-.01,.02-.03,.03-.05,.02-.02,.16-.04,.17-.06,0,0,.14-.01,.14-.02h0Zm-1.83-2.21c0-.09,.06-.2,.28-.24h.08c.12-.02,.25,.02,.34,.11,.42,.35,.53,1.4,.56,2.03-.04-.02-.09-.05-.14-.08-.56-.49-1.15-1.37-1.11-1.82Zm-1.35,2.19c-.14-.14-.2-.35-.14-.54,0-.1,.07-.18,.16-.23,.42-.2,1.56,.29,2.36,.73-1.17,.31-2.04,.32-2.37,.04Z"/>
      </g>
      <g>
        <polygon class="cls-6" points="385.56 401.93 378.98 401.02 378.07 385.39 384.64 386.3 385.56 401.93"/>
        <polygon class="cls-26" points="384.64 386.3 378.07 385.39 378.62 394.91 385.15 394.91 384.64 386.3"/>
        <path class="cls-25" d="M378.48,400.23l7.43-.46c.26-.03,.49,.16,.52,.42,0,0,0,0,0,0l.73,5.86c.04,.64-.44,1.19-1.08,1.24-2.6,.12-3.84,.05-7.11,.23-2.01,.12-5.96,.55-8.73,.28-2.77-.27-2.43-3-1.23-3.13,2.84-.32,6.59-2.41,8.37-3.99,.31-.27,.7-.43,1.12-.45Z"/>
        <path class="cls-23" d="M378.32,401.03h0c0-.12-.11-2-.8-2.6-.19-.15-.5-.22-.74-.17-.27,.03-.52,.23-.56,.5-.06,.41,.24,1.01,.65,1.52-.65-.29-1.41-.53-1.84-.34-.18,.09-.31,.26-.33,.46-.09,.31,0,.64,.24,.85,.38,.24,.83,.33,1.26,.25,.59-.05,1.17-.17,1.73-.34,.02,0,.04,.01,.06,0,.02-.01,.02-.03,.03-.05,.02-.02,.16-.04,.17-.06,0,0,.14-.01,.14-.02h0Zm-1.83-2.21c0-.09,.06-.2,.28-.24h.08c.12-.02,.25,.02,.34,.11,.42,.35,.53,1.4,.56,2.03-.04-.02-.09-.05-.14-.08-.56-.49-1.15-1.37-1.11-1.82Zm-1.35,2.19c-.14-.14-.2-.35-.14-.54,0-.1,.07-.18,.16-.23,.42-.2,1.56,.29,2.36,.73-1.17,.31-2.04,.32-2.37,.04Z"/>
      </g>
      <path class="cls-23" d="M368.68,248.48v25.66c-7.91,21.11-19.96,55.96-22.05,67.38-2.09,11.42-1.55,25.31-5.27,50.55l-12.96,.31s-.9-28.85,1.02-50.03c1.92-21.18,17.75-93.87,17.75-93.87h21.52Z"/>
      <path class="cls-23" d="M385.07,248.48c1.5,11.38-3.71,87.49-2.41,98.08,1.3,10.59,2.85,20.2,4.51,45.82h-12.2s-6.36-24.28-9.64-45.55c-3.27-21.26-5.15-77.66-2.99-98.35h22.72Z"/>
      <path class="cls-28" d="M356.08,309.49s1.24-11.83,1.57-16.64c.33-4.81,3.5-18.16,3.5-18.16l.54,18.7-5.61,16.11Z"/>
      <path class="cls-28" d="M384.21,214.91c-.51-4.81-1.22-11.41-2.07-15.45,1.53,1.38,2.07,1.63,3.05,2.41"/>
      <g>
        <path class="cls-23" d="M359.84,195.07c.63,6.83-16.12,21.65-16.12,21.65l-11.72-11.42s5.7-8.15,12.4-13.88c6.87-5.88,14.76-3.85,15.45,3.65Z"/>
        <path class="cls-15" d="M359.84,195.07c.63,6.83-16.12,21.65-16.12,21.65l-11.72-11.42s5.7-8.15,12.4-13.88c6.87-5.88,14.76-3.85,15.45,3.65Z"/>
      </g>
      <path class="cls-28" d="M350.49,203.82c-3.38,1.8-7.59,7.21-7.85,11.9l1.05,1.02s7.86-7.09,12.02-12.63c-1.16-1.6-1.35-2.35-5.22-.29Z"/>
      <g>
        <path class="cls-23" d="M387.89,188.97c-1.69,8.01-2.58,16.13-3.01,23.75-.32,5.57-.38,10.88-.32,15.68,.14,11.26,.94,19.81,.79,22.73-5.61-.08-26.78-.39-38.31-.56-7.84-40.35,.72-61.83,.72-61.83,0,0,4.17-1.07,9.06-1.63,.64-.08,1.3-.14,1.97-.19,4.31-.33,11.4-.07,16.29,.24,1.03,.07,2.07,.16,3.08,.26,5.16,.55,9.74,1.55,9.74,1.55Z"/>
        <path class="cls-15" d="M387.89,188.97c-1.69,8.01-2.58,16.13-3.01,23.75-.32,5.57-.38,10.88-.32,15.68,.14,11.26,.94,19.81,.79,22.73-5.61-.08-26.78-.39-38.31-.56-7.84-40.35,.72-61.83,.72-61.83,0,0,4.17-1.07,9.06-1.63,.64-.08,1.3-.14,1.97-.19,4.31-.33,11.4-.07,16.29,.24,1.03,.07,2.07,.16,3.08,.26,5.16,.55,9.74,1.55,9.74,1.55Z"/>
      </g>
      <path class="cls-23" d="M361,194.36c-.96,2.85-2.59,5.21-3.77,12.65,.46,1.56,.99,3.12,1.6,4.69,.89-1.52,1.85-3.04,2.86-4.56,.53-7.17-.17-9.07,.84-12.71l-1.53-.07Z"/>
      <polygon class="cls-23" points="361.07 196.66 359.77 193.05 362.37 191.96 364.3 193.17 361.07 196.66"/>
      <path class="cls-25" d="M378.16,187.42c-7.98,8.01-14.52,16.1-19.33,24.28-3.22-8.31-4.36-16.48-2.88-24.48-4.5,.58-8.18,1.52-8.18,1.52,0,0-8.56,21.48-.72,61.83,11.54,.17,32.7,.48,38.31,.56,.15-2.92-.66-11.47-.79-22.73-.06-4.8,0-10.11,.32-15.68,.44-7.62,1.32-15.73,3.01-23.75,0,0-4.58-1-9.74-1.55Z"/>
      <path class="cls-8" d="M362.37,191.96s1.67,2.21,3.64,4.4c2.99-1.51,10.03-5.56,9.84-9.46-.36-1.15-1.85-1.87-1.85-1.87,0,0-4.48,4.06-11.64,6.94Z"/>
      <path class="cls-8" d="M362.37,191.96s-2.37,1.84-3.95,4.21c-2.1-1.54-.72-8.77,.1-9.55,1.75-1.05,2.92-.9,2.92-.9,0,0-2.46,5.32,.93,6.24Z"/>
      <path class="cls-19" d="M392.36,194.54c1.2,2.39,2.19,4.7,3.21,7.09,1.02,2.37,1.92,4.8,2.79,7.26,.84,2.47,1.65,4.98,2.3,7.6,.63,2.64,1.23,5.31,1.34,8.48,.02,.8,.01,1.63-.08,2.55-.05,.46-.12,.94-.23,1.46-.06,.26-.11,.51-.2,.8l-.13,.42-.19,.5c-.53,1.33-1.37,2.43-2.23,3.23-.86,.8-1.74,1.35-2.57,1.78-1.67,.85-3.2,1.27-4.67,1.59-1.47,.3-2.88,.45-4.26,.55-5.52,.33-10.62-.23-15.8-1.27l.48-5.35,3.62-.27c1.21-.1,2.42-.24,3.62-.36,2.39-.27,4.75-.61,6.95-1.09,1.1-.24,2.16-.53,3.11-.87,.95-.32,1.81-.72,2.32-1.1,.26-.18,.41-.36,.44-.43,.03-.08-.07-.02-.16,.13-.01,.02-.02,.04-.03,.06,0,.01,0-.02,0-.03v-.12c.02-.1,.02-.24,.03-.4,0-.33-.02-.75-.07-1.2-.21-1.84-.75-4.08-1.43-6.26-.69-2.2-1.47-4.45-2.34-6.69-1.71-4.46-3.66-9.02-5.62-13.34l9.77-4.71Z"/>
      <path class="cls-19" d="M373.93,231.12l-5.97-4.13-1.54,9.06s5.85,2.38,7.44-.61l.06-4.31Z"/>
      <polygon class="cls-19" points="362.02 227.33 361.1 234.87 366.43 236.04 367.97 226.99 362.02 227.33"/>
      <path class="cls-19" d="M371.95,170.61c-.77,4.43-1.46,12.54,1.69,15.42,0,0-4.05,6.09-10.58,6.37-5.66,.25-3.15-6.08-3.15-6.08,4.9-1.28,4.69-4.94,3.76-8.35l8.27-7.37Z"/>
      <path class="cls-26" d="M368.58,173.62l-4.89,4.36c.23,.79,.39,1.61,.48,2.43,1.88-.31,5.92-4.32,6.08-6.29,.1-.8-1.46,.28-1.66-.5Z"/>
      <g>
        <g>
          <path class="cls-25" d="M360.57,154.06c3.11,2.11,1.69,5.69-5.35,11.29-2.86-3.71-3.33-10.91-1.06-12.72,2.27-1.81,3.69-.4,6.4,1.43Z"/>
          <path class="cls-19" d="M373.95,159.86c-.34,7.61-.15,12.07-3.92,16.03-5.67,5.96-15.11,2.64-17.05-4.91-1.74-6.79-.9-18.09,6.48-21.23,5.26-2.27,11.37,.15,13.65,5.41,.64,1.48,.92,3.09,.84,4.69Z"/>
          <path class="cls-25" d="M362.65,162.13c.01,.62-.31,1.13-.72,1.13-.4,0-.73-.48-.74-1.1-.01-.62,.3-1.12,.7-1.14,.4-.01,.7,.5,.75,1.11Z"/>
          <path class="cls-25" d="M355.62,162.26c.01,.62-.31,1.13-.72,1.13-.4,0-.74-.48-.75-1.11-.01-.63,.31-1.13,.72-1.13,.4,0,.74,.49,.75,1.11Z"/>
          <path class="cls-20" d="M357.92,162.52c-.71,1.9-1.67,3.7-2.87,5.34,1.13,1,2.97,.5,2.97,.5l-.1-5.84Z"/>
          <path class="cls-25" d="M364.53,159.89c.08,0,.16-.01,.23-.05,.16-.12,.19-.35,.07-.51-.7-.94-1.81-1.48-2.98-1.45-.19,0-.34,.17-.33,.37,0,0,0,.02,0,.03,.02,.2,.19,.34,.39,.33h0c.92-.01,1.8,.42,2.34,1.17,.07,.08,.17,.12,.28,.12Z"/>
          <path class="cls-25" d="M352.38,159.95c.14,0,.27-.09,.33-.21,.36-.85,1.11-1.47,2.02-1.68,.2-.03,.34-.22,.31-.41-.03-.2-.21-.33-.41-.31-1.15,.24-2.11,1.02-2.57,2.1-.08,.18,0,.39,.17,.48,0,0,0,0,0,0,.05,.02,.1,.03,.15,.04Z"/>
          <path class="cls-25" d="M370.81,153.18c-3.53,1.28-3.03,5.1,2.42,12.24,3.68-2.9,5.91-9.77,4.14-12.07-1.77-2.3-3.48-1.29-6.56-.18Z"/>
          <path class="cls-19" d="M377.68,165.87c-.5,1.85-1.71,3.43-3.37,4.39-2.21,1.25-3.91-.58-3.81-2.98,.1-2.16,1.36-5.42,3.82-5.68,2.46-.26,3.96,2,3.36,4.27Z"/>
          <g>
            <path class="cls-25" d="M358,171.2c3.41-.82,5.72-2.52,5.72-2.52,.39,2.98-1.09,5.03-3.84,5.67l-1.88-3.15Z"/>
            <path class="cls-21" d="M361.25,173.87c1.31-.72,2.1-1.69,2.37-2.91,0,0-1.3,.18-1.96,1.02-.66,.85-.41,1.88-.41,1.88Z"/>
          </g>
        </g>
        <g>
          <path class="cls-25" d="M355.85,164.37h-2.85c-.79,0-1.43-.64-1.43-1.43v-1.8c0-.79,.64-1.43,1.43-1.43h2.85c.79,0,1.43,.64,1.43,1.43v1.8c0,.79-.64,1.43-1.43,1.43Zm-2.85-3.81c-.32,0-.58,.26-.58,.58v1.8c0,.32,.26,.58,.58,.58h2.85c.32,0,.58-.26,.58-.58v-1.8c0-.32-.26-.58-.58-.58h-2.85Z"/>
          <path class="cls-25" d="M362.67,164.37h-2.85c-.79,0-1.43-.64-1.43-1.43v-1.8c0-.79,.64-1.43,1.43-1.43h2.85c.79,0,1.43,.64,1.43,1.43v1.8c0,.79-.64,1.43-1.43,1.43Zm-2.85-3.81c-.32,0-.58,.26-.58,.58v1.8c0,.32,.26,.58,.58,.58h2.85c.32,0,.58-.26,.58-.58v-1.8c0-.32-.26-.58-.58-.58h-2.85Z"/>
          <rect class="cls-25" x="356.86" y="161.61" width="1.96" height=".85"/>
          <rect class="cls-25" x="364.12" y="161.61" width="7.33" height=".85"/>
        </g>
      </g>
      <polygon class="cls-28" points="389.08 214.91 399.13 211.16 400.05 214.16 389.97 217.47 389.08 214.91"/>
      <polygon class="cls-28" points="382.81 211.7 384.56 228.4 384.76 216.74 382.81 211.7"/>
      <g>
        <path class="cls-23" d="M389.98,189.64c6.25,2.85,11.82,22.54,11.82,22.54l-16.74,5.29s-3.75-8.51-5.58-17.19c-1.99-9.46,2.93-14.08,10.5-10.64Z"/>
        <path class="cls-15" d="M389.98,189.64c6.25,2.85,11.82,22.54,11.82,22.54l-16.74,5.29s-3.75-8.51-5.58-17.19c-1.99-9.46,2.93-14.08,10.5-10.64Z"/>
      </g>
    </g>
  </g>
  <g id="Desk_2" data-name="Desk 2">
    <g>
      <g>
        <g>
          <g>
            <polygon class="cls-25" points="329.61 407.56 327.14 407.56 323.97 301.73 327.23 301.73 329.61 407.56"/>
            <polygon class="cls-13" points="329.61 407.56 327.14 407.56 323.97 301.73 327.23 301.73 329.61 407.56"/>
          </g>
          <g>
            <polygon class="cls-25" points="289.83 301.73 289.83 407.56 292.45 407.56 295.52 306.57 327.02 306.57 329.32 407.56 331.9 407.56 331.9 301.73 289.83 301.73"/>
            <polygon class="cls-17" points="289.83 301.73 289.83 407.56 292.45 407.56 295.52 306.57 327.02 306.57 329.32 407.56 331.9 407.56 331.9 301.73 289.83 301.73"/>
          </g>
          <g>
            <polygon class="cls-25" points="289.83 407.56 287.37 407.56 286.57 301.73 289.83 301.73 289.83 407.56"/>
            <polygon class="cls-13" points="289.83 407.56 287.37 407.56 286.57 301.73 289.83 301.73 289.83 407.56"/>
          </g>
        </g>
        <g>
          <g>
            <polygon class="cls-25" points="242.11 407.56 239.65 407.56 236.47 301.73 239.73 301.73 242.11 407.56"/>
            <polygon class="cls-13" points="242.11 407.56 239.65 407.56 236.47 301.73 239.73 301.73 242.11 407.56"/>
          </g>
          <g>
            <polygon class="cls-25" points="202.34 301.73 202.34 407.56 204.95 407.56 208.02 306.57 239.52 306.57 241.82 407.56 244.41 407.56 244.41 301.73 202.34 301.73"/>
            <polygon class="cls-16" points="202.34 301.73 202.34 407.56 204.95 407.56 208.02 306.57 239.52 306.57 241.82 407.56 244.41 407.56 244.41 301.73 202.34 301.73"/>
          </g>
          <g>
            <polygon class="cls-25" points="202.34 407.56 199.87 407.56 199.08 301.73 202.34 301.73 202.34 407.56"/>
            <polygon class="cls-13" points="202.34 407.56 199.87 407.56 199.08 301.73 202.34 301.73 202.34 407.56"/>
          </g>
        </g>
      </g>
      <g>
        <rect class="cls-25" x="194.77" y="295.64" width="93.04" height="6.09"/>
        <rect class="cls-17" x="194.77" y="295.64" width="93.04" height="6.09"/>
        <rect class="cls-25" x="284.01" y="295.64" width="52.21" height="6.09"/>
        <rect class="cls-16" x="284.01" y="295.64" width="52.21" height="6.09"/>
      </g>
    </g>
  </g>
  <g id="Device_2" data-name="Device 2">
    <g>
      <g>
        <path class="cls-23" d="M238.85,295.5h32.5c.86,0,1.65-.7,1.77-1.55l3.28-23.34c.12-.86-.48-1.55-1.34-1.55h-32.5c-.86,0-1.65,.7-1.77,1.55l-3.28,23.34c-.12,.86,.48,1.55,1.34,1.55Z"/>
        <path class="cls-12" d="M238.85,295.5h32.5c.86,0,1.65-.7,1.77-1.55l3.28-23.34c.12-.86-.48-1.55-1.34-1.55h-32.5c-.86,0-1.65,.7-1.77,1.55l-3.28,23.34c-.12,.86,.48,1.55,1.34,1.55Z"/>
        <g>
          <g>
            <path class="cls-25" d="M241.03,292.01l28.88-.13c.79,0,1.52-.64,1.63-1.43l2.57-17.62c.11-.79-.44-1.43-1.23-1.43l-28.88,.13c-.79,0-1.52,.64-1.63,1.43l-2.57,17.62c-.11,.79,.44,1.43,1.23,1.43Z"/>
            <path class="cls-15" d="M241.03,292.01l28.88-.13c.79,0,1.52-.64,1.63-1.43l2.57-17.62c.11-.79-.44-1.43-1.23-1.43l-28.88,.13c-.79,0-1.52,.64-1.63,1.43l-2.57,17.62c-.11,.79,.44,1.43,1.23,1.43Z"/>
          </g>
          <polygon class="cls-16" points="247.29 271.52 244.2 292.01 240.77 292.01 244.26 271.52 247.29 271.52"/>
          <g>
            <g>
              <path class="cls-8" d="M244.88,273.83l-.5,.18,.5,.18v.19l-.72-.27v-.2l.72-.27v.19Z"/>
              <path class="cls-8" d="M245.42,273.28h.21l-.5,1.41h-.21l.5-1.41Z"/>
              <path class="cls-8" d="M246.37,273.92v.2l-.72,.27v-.19l.5-.18-.5-.18v-.19l.72,.27Z"/>
            </g>
            <g class="cls-28">
              <path d="M246.04,275.98h-2.04c-.1,0-.19-.08-.19-.19s.08-.19,.19-.19h2.04c.1,0,.19,.08,.19,.19s-.08,.19-.19,.19Z"/>
              <path d="M245.84,277.21h-2.04c-.1,0-.19-.08-.19-.19s.08-.19,.19-.19h2.04c.1,0,.19,.08,.19,.19s-.08,.19-.19,.19Z"/>
              <path d="M245.71,278.43h-2.04c-.1,0-.19-.08-.19-.19s.08-.19,.19-.19h2.04c.1,0,.19,.08,.19,.19s-.08,.19-.19,.19Z"/>
              <path d="M245.47,279.66h-2.04c-.1,0-.19-.08-.19-.19s.08-.19,.19-.19h2.04c.1,0,.19,.08,.19,.19s-.08,.19-.19,.19Z"/>
              <path d="M245.36,280.88h-2.04c-.1,0-.19-.08-.19-.19s.08-.19,.19-.19h2.04c.1,0,.19,.08,.19,.19s-.08,.19-.19,.19Z"/>
              <path d="M245.15,282.11h-2.04c-.1,0-.19-.08-.19-.19s.08-.19,.19-.19h2.04c.1,0,.19,.08,.19,.19s-.08,.19-.19,.19Z"/>
              <path d="M245.01,283.34h-2.04c-.1,0-.19-.08-.19-.19s.08-.19,.19-.19h2.04c.1,0,.19,.08,.19,.19s-.08,.19-.19,.19Z"/>
              <path d="M244.8,284.56h-2.04c-.1,0-.19-.08-.19-.19s.08-.19,.19-.19h2.04c.1,0,.19,.08,.19,.19s-.08,.19-.19,.19Z"/>
              <path d="M244.53,285.79h-2.04c-.1,0-.19-.08-.19-.19s.08-.19,.19-.19h2.04c.1,0,.19,.08,.19,.19s-.08,.19-.19,.19Z"/>
            </g>
            <path class="cls-23" d="M251.06,282.09h-4.19c-.1,0-.19-.08-.19-.19s.08-.19,.19-.19h4.19c.1,0,.19,.08,.19,.19s-.08,.19-.19,.19Z"/>
            <path class="cls-23" d="M251.95,275.98h-4.19c-.1,0-.19-.08-.19-.19s.08-.19,.19-.19h4.19c.1,0,.19,.08,.19,.19s-.08,.19-.19,.19Z"/>
            <path class="cls-25" d="M263.1,282.09h-10.92c-.1,0-.19-.08-.19-.19s.08-.19,.19-.19h10.92c.1,0,.19,.08,.19,.19s-.08,.19-.19,.19Z"/>
            <g class="cls-28">
              <path class="cls-25" d="M265.15,277.21h-3.16c-.1,0-.19-.08-.19-.19s.08-.19,.19-.19h3.16c.1,0,.19,.08,.19,.19s-.08,.19-.19,.19Z"/>
            </g>
            <path class="cls-25" d="M253.83,283.34h-6.49c-.1,0-.19-.08-.19-.19s.08-.19,.19-.19h6.49c.1,0,.19,.08,.19,.19s-.08,.19-.19,.19Z"/>
            <path class="cls-23" d="M261.56,283.34h-6.39c-.1,0-.19-.08-.19-.19s.08-.19,.19-.19h6.39c.1,0,.19,.08,.19,.19s-.08,.19-.19,.19Z"/>
            <path class="cls-25" d="M269.5,283.34h-6.9c-.1,0-.19-.08-.19-.19s.08-.19,.19-.19h6.9c.1,0,.19,.08,.19,.19s-.08,.19-.19,.19Z"/>
            <g class="cls-28">
              <path class="cls-25" d="M254.15,284.56h-3.9c-.1,0-.19-.08-.19-.19s.08-.19,.19-.19h3.9c.1,0,.19,.08,.19,.19s-.08,.19-.19,.19Z"/>
            </g>
            <path class="cls-25" d="M259.67,284.56h-4.25c-.1,0-.19-.08-.19-.19s.08-.19,.19-.19h4.25c.1,0,.19,.08,.19,.19s-.08,.19-.19,.19Z"/>
            <g class="cls-28">
              <path class="cls-25" d="M267.53,284.56h-6.89c-.1,0-.19-.08-.19-.19s.08-.19,.19-.19h6.89c.1,0,.19,.08,.19,.19s-.08,.19-.19,.19Z"/>
            </g>
            <g class="cls-28">
              <path class="cls-25" d="M253.36,277.21h-5.24c-.1,0-.19-.08-.19-.19s.08-.19,.19-.19h5.24c.1,0,.19,.08,.19,.19s-.08,.19-.19,.19Z"/>
            </g>
            <path class="cls-23" d="M253.89,278.43h-5.9c-.1,0-.19-.08-.19-.19s.08-.19,.19-.19h5.9c.1,0,.19,.08,.19,.19s-.08,.19-.19,.19Z"/>
            <g class="cls-28">
              <path class="cls-25" d="M263.74,278.43h-8.88c-.1,0-.19-.08-.19-.19s.08-.19,.19-.19h8.88c.1,0,.19,.08,.19,.19s-.08,.19-.19,.19Z"/>
            </g>
            <path class="cls-25" d="M269.42,275.98h-8.88c-.1,0-.19-.08-.19-.19s.08-.19,.19-.19h8.88c.1,0,.19,.08,.19,.19s-.08,.19-.19,.19Z"/>
            <path class="cls-25" d="M270.15,278.43h-5.34c-.1,0-.19-.08-.19-.19s.08-.19,.19-.19h5.34c.1,0,.19,.08,.19,.19s-.08,.19-.19,.19Z"/>
            <g class="cls-28">
              <path class="cls-25" d="M253.01,279.66h-3.38c-.1,0-.19-.08-.19-.19s.08-.19,.19-.19h3.38c.1,0,.19,.08,.19,.19s-.08,.19-.19,.19Z"/>
            </g>
            <g class="cls-28">
              <path class="cls-25" d="M260.63,279.66h-6.47c-.1,0-.19-.08-.19-.19s.08-.19,.19-.19h6.47c.1,0,.19,.08,.19,.19s-.08,.19-.19,.19Z"/>
            </g>
            <g class="cls-28">
              <path class="cls-25" d="M259.48,275.98h-6.47c-.1,0-.19-.08-.19-.19s.08-.19,.19-.19h6.47c.1,0,.19,.08,.19,.19s-.08,.19-.19,.19Z"/>
            </g>
            <path class="cls-25" d="M268.22,279.66h-6.32c-.1,0-.19-.08-.19-.19s.08-.19,.19-.19h6.32c.1,0,.19,.08,.19,.19s-.08,.19-.19,.19Z"/>
            <path class="cls-25" d="M260.93,277.21h-6.32c-.1,0-.19-.08-.19-.19s.08-.19,.19-.19h6.32c.1,0,.19,.08,.19,.19s-.08,.19-.19,.19Z"/>
            <path class="cls-25" d="M255.38,280.88h-3.98c-.1,0-.19-.08-.19-.19s.08-.19,.19-.19h3.98c.1,0,.19,.08,.19,.19s-.08,.19-.19,.19Z"/>
            <g class="cls-28">
              <path class="cls-25" d="M259.99,280.88h-3.79c-.1,0-.19-.08-.19-.19s.08-.19,.19-.19h3.79c.1,0,.19,.08,.19,.19s-.08,.19-.19,.19Z"/>
            </g>
            <path class="cls-23" d="M268.11,280.88h-6.93c-.1,0-.19-.08-.19-.19s.08-.19,.19-.19h6.93c.1,0,.19,.08,.19,.19s-.08,.19-.19,.19Z"/>
            <g class="cls-28">
              <path class="cls-25" d="M255.43,285.79h-4.86c-.1,0-.19-.08-.19-.19s.08-.19,.19-.19h4.86c.1,0,.19,.08,.19,.19s-.08,.19-.19,.19Z"/>
            </g>
          </g>
        </g>
      </g>
      <path class="cls-23" d="M218.89,295.59h39.34c.6,0,1.09-.49,1.09-1.09h0c0-.6-.49-1.09-1.09-1.09h-39.34c-.6,0-1.09,.49-1.09,1.09h0c0,.6,.49,1.09,1.09,1.09Z"/>
      <path class="cls-15" d="M218.89,295.59h39.34c.6,0,1.09-.49,1.09-1.09h0c0-.6-.49-1.09-1.09-1.09h-39.34c-.6,0-1.09,.49-1.09,1.09h0c0,.6,.49,1.09,1.09,1.09Z"/>
      <path class="cls-23" d="M249.92,295.59h20.98c.6,0,1.09-.49,1.09-1.09h0c0-.6-.49-1.09-1.09-1.09h-20.98c-.6,0-1.09,.49-1.09,1.09h0c0,.6,.49,1.09,1.09,1.09Z"/>
      <path class="cls-14" d="M249.92,295.59h20.98c.6,0,1.09-.49,1.09-1.09h0c0-.6-.49-1.09-1.09-1.09h-20.98c-.6,0-1.09,.49-1.09,1.09h0c0,.6,.49,1.09,1.09,1.09Z"/>
    </g>
  </g>
  <g id="Character_1" data-name="Character 1">
    <g>
      <g>
        <g>
          <polygon class="cls-2" points="102.89 386.45 104.52 394.11 112.84 393.01 111.63 384.51 102.89 386.45"/>
          <g>
            <path class="cls-23" d="M114.37,393.03c-.09,0-.16-.07-.18-.15-.02-.08,0-.17,.08-.23,.13-.09,3-2.13,4.5-1.87,.28,.04,.53,.19,.7,.42,.22,.25,.26,.61,.1,.9-.31,.5-1.42,.81-2.5,.92-.9,.08-1.8,.09-2.69,.01Zm.64-.34c1.64,.04,3.84-.19,4.19-.8,.05-.08,.09-.21-.09-.45-.1-.15-.26-.24-.43-.25-.13-.02-.27-.03-.4-.01-1.18,.29-2.29,.8-3.27,1.51Z"/>
            <path class="cls-23" d="M114.26,393.02c-.07-.03-.11-.1-.11-.18,0-.11,0-2.49,1.02-3.51,.29-.3,.7-.47,1.12-.47,.57,0,.78,.27,.83,.51,.28,.96-1.63,3.06-2.63,3.63-.03,.02-.06,.02-.09,.02-.05,.02-.1,.02-.14,0Zm1.93-3.75c-.26,.02-.51,.14-.69,.33-.58,.82-.89,1.79-.9,2.79,1.02-.75,2.25-2.36,2.14-2.95-.02-.05-.06-.2-.43-.19l-.12,.02h0Z"/>
            <path class="cls-25" d="M113.36,391.89l-9.53,.93c-.36,.04-.65,.31-.69,.67l-.96,7.92c-.09,.7,.41,1.34,1.11,1.43,.09,.01,.18,.01,.27,0,3.43-.4,6.46-.88,10.74-1.3,5.05-.49,3.82,.24,9.77-.26,3.58-.3,3.83-4.43,2.3-4.48-7.02-.19-7.95-2.22-10.87-4.44-.63-.42-1.39-.59-2.14-.49Z"/>
          </g>
          <polygon class="cls-28" points="112.26 388.98 103.57 389.66 102.89 386.45 111.63 384.51 112.26 388.98"/>
          <polygon class="cls-25" points="105.21 323.06 112.64 387.75 102.89 388.87 85.81 324.58 105.21 323.06"/>
          <polygon class="cls-29" points="105.21 323.06 112.64 387.75 102.89 388.87 85.81 324.58 105.21 323.06"/>
        </g>
        <g>
          <polygon class="cls-2" points="131.69 371.4 135.83 378.3 143.56 374.46 139.54 366.59 131.69 371.4"/>
          <g>
            <path class="cls-23" d="M145.06,373.96c-.09,.02-.18-.02-.23-.09-.05-.07-.05-.17,0-.25,.09-.13,2.21-3.07,3.75-3.32,.29-.05,.58,.01,.82,.17,.3,.17,.46,.5,.4,.84-.14,.59-1.11,1.26-2.13,1.73-.84,.38-1.72,.69-2.62,.92Zm.51-.55c1.61-.51,3.68-1.47,3.81-2.18,.02-.09,.02-.23-.23-.41-.14-.11-.33-.14-.51-.1-.14,.02-.27,.06-.39,.12-1.05,.68-1.96,1.55-2.68,2.56Z"/>
            <path class="cls-23" d="M144.95,373.99c-.08-.01-.14-.06-.17-.14-.04-.11-.83-2.42-.18-3.76,.18-.39,.52-.69,.93-.83,.56-.19,.85,0,.97,.22,.6,.84-.56,3.52-1.34,4.41-.02,.02-.05,.04-.08,.04-.04,.03-.09,.05-.14,.05Zm.62-4.29c-.25,.11-.45,.31-.56,.55-.29,.99-.27,2.04,.06,3.01,.74-1.07,1.4-3.05,1.09-3.58-.04-.04-.12-.17-.49-.04l-.11,.06h0Z"/>
            <path class="cls-25" d="M143.7,373.19l-8.96,4.1c-.34,.15-.52,.52-.45,.89l1.71,8.03c.15,.71,.84,1.17,1.56,1.03,.09-.02,.18-.05,.27-.09,3.2-1.53,5.99-3.02,10.02-4.86,4.74-2.17,3.8-1.05,9.41-3.52,3.38-1.49,2.25-5.59,.74-5.13-6.9,2.16-8.48,.5-12.06-.68-.75-.2-1.55-.11-2.24,.24Z"/>
          </g>
          <polygon class="cls-28" points="133.79 374.91 131.69 371.4 139.54 366.59 141.49 370.39 133.79 374.91"/>
          <path class="cls-25" d="M41.07,299.36s-6.12,7.92-6.85,17.72c-1.21,16.3,12.64,20.53,28.46,19.84l43.82-4.75c1.77,5.94,25.94,42.1,25.94,42.1l9.05-5.2s-12.97-31.5-20.23-50.28c-4.15-10.72-37.07-11.04-49.5-8.84-3.78,1.02-3.05-4.88-3.05-4.88l-27.64-5.72Z"/>
        </g>
        <path class="cls-25" d="M78.33,241.68c-.14,.54,.03,1.06,.38,1.16,.35,.1,.75-.25,.9-.78s-.03-1.06-.38-1.16c-.35-.1-.75,.25-.9,.78Z"/>
        <path class="cls-25" d="M79.06,240.88h1.39s-.93,.82-1.39,0Z"/>
        <path class="cls-3" d="M78.64,242.33s.3,2.58,1.01,4c-.89,.45-2.02-.21-2.02-.21l1.01-3.79Z"/>
        <path class="cls-25" d="M80.01,238.31c-.05,0-.1-.02-.15-.05-1.22-.82-2.34-.4-2.39-.38-.17,.07-.36-.02-.42-.18-.07-.17,.01-.36,.18-.42,.06-.02,1.47-.57,2.99,.44,.15,.1,.19,.3,.09,.45-.07,.1-.19,.16-.3,.14Z"/>
        <path class="cls-18" d="M60.81,244.98c.13,4.19-1.66,10.94-4.94,13.08,0,0,2.12,4.52,9.65,5.98,8.29,1.61,4.64-3.32,4.64-3.32-4.35-1.95-3.68-5.26-2.37-8.25l-6.97-7.49Z"/>
        <path class="cls-18" d="M60.7,234.87c-1.35,6.72-2.06,9.52,.38,13.9,3.67,6.58,12.22,7.02,15.55,.9,3-5.51,4.7-15.56-1.08-20.1-5.69-4.47-13.5-1.41-14.85,5.3Z"/>
        <path class="cls-18" d="M73.54,239.68c-.13,1.24,.28,2.61,.89,3.63,.91,1.54,2.19,1.28,2.62-.01,.39-1.16,.39-3.36-.86-4.49-1.23-1.11-2.5-.55-2.65,.87Z"/>
        <g>
          <path class="cls-18" d="M49.77,266.84l-.08,1.05-.08,1.15c-.05,.77-.08,1.55-.09,2.33-.02,1.56-.04,3.12,.03,4.68,.11,3.12,.43,6.21,.99,9.24l.42,2c-.01,.1,.07,.35,.34,.68,.56,.68,1.73,1.44,3.01,2.07,2.59,1.27,5.75,2.25,8.77,3.07l-.33,4.13c-3.6,.15-7.06-.09-10.73-1.13-1.83-.56-3.72-1.26-5.63-2.84-.94-.79-1.9-1.91-2.48-3.38l-.21-.55-.1-.32-.2-.65-.39-1.3c-.94-3.48-1.51-7.01-1.77-10.55-.11-1.77-.18-3.54-.13-5.32,.02-.89,.06-1.78,.11-2.67,.03-.45,.06-.9,.11-1.35,.05-.47,.1-.88,.17-1.44l8.29,1.12Z"/>
          <path class="cls-18" d="M61.37,293.25l7.55-.21-3.05,4.62s-3.77,.83-4.9-1.86l.4-2.54Z"/>
          <polygon class="cls-18" points="70.84 295.08 70.6 298.97 65.87 297.65 68.92 293.03 70.84 295.08"/>
        </g>
        <path class="cls-23" d="M42.23,258.37c-3.4,3.4-2.24,15.41-2.24,15.41l11.88,1.56s3.69-10.48-.23-16.33c-1.95-2.92-6.06-3.99-9.41-.65Z"/>
        <path class="cls-23" d="M41.8,299.02c5.37,1.04,16.75,3.24,27.76,5.38,13.12-38.62,9.98-39.87,9.98-39.87,0,0-2.78-1.55-6.3-2.93-.13-.05-.26-.1-.38-.14-1.77-.65-2.15-.74-4.53-1.44-4.09-.97-7.9-1.76-12.61-2.44-.3-.04-.61-.09-.9-.12-.85-.11-1.7-.19-2.52-.27-.55-.06-1.1-.1-1.63-.13-.62-.04-1.23-.07-1.79-.1-3.04-.15-5.21-.11-5.21-.11,1.59,24.1,.43,31.02-1.89,42.17Z"/>
        <path class="cls-12" d="M41.8,299.02c5.37,1.04,16.75,3.24,27.76,5.38,13.12-38.62,9.98-39.87,9.98-39.87,0,0-2.78-1.55-6.3-2.93-.13-.05-.26-.1-.38-.14-1.77-.65-2.15-.74-4.53-1.44-4.09-.97-7.9-1.76-12.61-2.44-.3-.04-.61-.09-.9-.12-.85-.11-1.7-.19-2.52-.27-.55-.06-1.1-.1-1.63-.13-.62-.04-1.23-.07-1.79-.1-3.04-.15-5.21-.11-5.21-.11,1.59,24.1,.43,31.02-1.89,42.17Z"/>
        <g>
          <polygon class="cls-18" points="125.06 288.64 127.45 292.2 124.17 293.64 122.64 288.76 125.06 288.64"/>
          <path class="cls-18" d="M80.7,269.4c1.11,1.74,2.31,3.62,3.53,5.4,1.22,1.8,2.47,3.58,3.74,5.34,1.27,1.76,2.58,3.48,3.92,5.17,.67,.85,1.36,1.67,2.04,2.49,.34,.42,.7,.81,1.05,1.22l.53,.6,.26,.29s.02,.04,.05,.07c.18,.22,.8,.59,1.57,.86,.77,.28,1.69,.5,2.66,.65,1.94,.32,4.05,.46,6.18,.49,4.26,.06,8.71-.16,13.04-.53l.82,4.06c-4.46,1.3-8.91,2.24-13.59,2.73-2.34,.22-4.72,.36-7.23,.18-1.26-.09-2.55-.26-3.93-.61-1.37-.36-2.87-.89-4.4-2.11-.19-.15-.38-.33-.56-.5l-.32-.32-.62-.62c-.41-.41-.84-.82-1.24-1.24-.81-.84-1.61-1.69-2.37-2.56-1.55-1.73-3.04-3.5-4.45-5.33-1.43-1.81-2.79-3.67-4.09-5.57-1.3-1.92-2.55-3.79-3.76-5.88l7.19-4.27Z"/>
          <path class="cls-18" d="M118.12,292.38l4.52-3.61,2.33,4.59s-3.79,4.21-6.73,1.44l-.12-2.42Z"/>
        </g>
        <path class="cls-28" d="M73.93,276.28c-1.08,5.43,.06,9.95,.82,12.11,2.3-7.55,3.61-12.71,4.32-16.25-2.13-.28-4.39,.41-5.14,4.13Z"/>
        <path class="cls-23" d="M79.31,264.4c4.63,3.02,7.58,9.75,8.37,13.6l-10.75,8.76s-5.85-13.07-3.93-16.41c2-3.48,4.56-7.09,6.31-5.95Z"/>
        <path class="cls-23" d="M41.65,297.32l-1.66,2.23c-.13,.17,.07,.41,.39,.47l29.12,5.64c.25,.05,.48-.03,.52-.19l.66-2.42c.05-.17-.15-.35-.42-.41l-28.12-5.45c-.21-.04-.4,0-.49,.12Z"/>
        <path class="cls-28" d="M44.91,301.17l-.75-.15c-.15-.03-.25-.13-.23-.22l.88-3.14c.03-.09,.17-.14,.32-.11l.75,.15c.15,.03,.25,.13,.23,.22l-.88,3.14c-.03,.09-.17,.14-.32,.11Z"/>
        <path class="cls-28" d="M63.93,304.9l-.75-.15c-.15-.03-.25-.13-.23-.22l.88-3.14c.03-.09,.17-.14,.32-.11l.75,.15c.15,.03,.25,.13,.23,.22l-.88,3.14c-.03,.09-.17,.14-.32,.11Z"/>
        <path class="cls-25" d="M59.58,224.02c-2.72,.28-6.51,1.44-8,6.52-1.48,5.08-2.61,11.62-6.15,10.93,.8,.84,2.95,1.57,3.55,1.01-1.84,2.64-1.96,4.54-1.63,9.17,.41,5.79-2.95,5.1-2.95,5.1,0,0,4.72,5.29,17.12,5.26,11.02-.03,15.55-3.3,16.63-5.56-1.57-.22-4.81-5.04-3.33-8.45,1.49-3.41,3.53-12.28,2.36-15.5,1.66,1.83,2.31,5.08,2.81,1.61s.38-7.01-4.37-10.38c-4.24-3.01-15.02-2.95-16.05,.3Z"/>
        <path class="cls-23" d="M61.17,233.78c0,2.95-1.73,5.35-3.86,5.35s-3.86-2.39-3.86-5.35,1.73-5.35,3.86-5.35,3.86,2.39,3.86,5.35Z"/>
        <path class="cls-25" d="M55.06,224.91c-3.38-2.24-9.68,1.12-12.65,4.15-2.97,3.03-7.22,12.53-7.22,12.53-3.16,3.13-6.82,4.99-11.18,5.06,0,0,10.89,5.02,14.37,4.45,3.48-.57,6.16-3.82,6.16-3.82-1.8,3.86-3.88,7.13-6.89,8.35,4.3-1.02,7.64-2.98,10.02-5.76,2.38-2.79,2.54-9.46,2.54-9.46,0,0,4.09,.55,6.45-2.32s1.76-10.94-1.62-13.18Z"/>
      </g>
      <g>
        <polygon class="cls-25" points="53.81 336.32 54.08 348 55.31 407.94 59.37 407.94 60.6 348 60.87 336.32 53.81 336.32"/>
        <polygon class="cls-11" points="53.81 336.32 54.08 348 55.31 407.94 59.37 407.94 60.6 348 60.87 336.32 53.81 336.32"/>
        <polygon class="cls-26" points="53.81 336.32 54.08 348.33 60.6 348.33 60.87 336.32 53.81 336.32"/>
        <g>
          <g>
            <polygon class="cls-25" points="31.78 407.75 35.52 337.15 41.65 337.15 36.4 407.75 31.78 407.75"/>
            <polygon class="cls-11" points="36.42 407.75 31.78 407.75 35.18 342.85 35.52 337.07 41.65 337.07 41.18 342.85 36.42 407.75"/>
            <polygon class="cls-26" points="41.65 337.07 41.18 343.08 35.18 343.08 35.52 337.07 41.65 337.07"/>
          </g>
          <g>
            <polygon class="cls-25" points="78.28 407.75 73.03 337.15 79.16 337.15 82.91 407.75 78.28 407.75"/>
            <polygon class="cls-11" points="78.27 407.75 73.51 342.85 73.03 337.07 79.16 337.07 79.5 342.85 82.9 407.75 78.27 407.75"/>
            <polygon class="cls-26" points="73.03 337.07 73.51 343.08 79.5 343.08 79.16 337.07 73.03 337.07"/>
          </g>
        </g>
        <path class="cls-25" d="M32.24,330.57h50.2v4.54c0,2.33-1.9,4.23-4.23,4.23H36.47c-2.33,0-4.23-1.9-4.23-4.23v-4.54h0Z" transform="translate(114.68 669.91) rotate(180)"/>
        <g>
          <rect class="cls-25" x="29.84" y="334.96" width="55.01" height="4.38" rx="1.7" ry="1.7" transform="translate(114.68 674.3) rotate(180)"/>
          <rect class="cls-10" x="29.84" y="334.96" width="55.01" height="4.38" rx="1.7" ry="1.7" transform="translate(114.68 674.3) rotate(180)"/>
        </g>
        <polygon class="cls-25" points="26.18 282.13 29.42 282.13 38.42 334.96 35.18 334.96 26.18 282.13"/>
        <polygon class="cls-25" points="50.19 282.13 53.42 282.13 62.42 334.96 59.19 334.96 50.19 282.13"/>
        <polygon class="cls-11" points="26.18 282.13 29.42 282.13 38.42 334.96 35.18 334.96 26.18 282.13"/>
        <polygon class="cls-11" points="50.19 282.13 53.42 282.13 62.42 334.96 59.19 334.96 50.19 282.13"/>
        <path class="cls-25" d="M56.39,292.17H26.58c-2.14,0-3.95-1.78-4.22-4.16l-3.05-12.95c-.33-2.85,1.66-5.36,4.22-5.36h29.8c2.14,0,3.95,1.78,4.22,4.16l3.05,12.95c.33,2.85-1.66,5.36-4.22,5.36Z"/>
        <rect class="cls-10" x="57.97" y="334.88" width="26.76" height="4.38" rx="1.7" ry="1.7" transform="translate(142.7 674.15) rotate(180)"/>
      </g>
    </g>
  </g>
  <g id="Character_2" data-name="Character 2">
    <g>
      <g>
        <polygon class="cls-18" points="165.03 281.15 163.98 287.75 158.69 289.94 158.43 282.42 165.03 281.15"/>
        <path class="cls-25" d="M184.3,217.62c.1,.51,.46,.88,.8,.81,.34-.07,.52-.54,.42-1.06-.1-.51-.46-.88-.8-.81-.34,.07-.52,.54-.42,1.06Z"/>
        <path class="cls-3" d="M184.71,218.51s1.77,2.73,3.35,3.9c-.74,1.04-2.37,.96-2.37,.96l-.99-4.87Z"/>
        <path class="cls-25" d="M181.83,215.15c-.07,0-.15-.03-.21-.08-.13-.12-.13-.31-.02-.44,1.16-1.25,2.56-1.03,2.62-1.02,.17,.03,.28,.19,.25,.36-.03,.17-.19,.28-.35,.25h0s-1.15-.17-2.07,.83c-.06,.07-.14,.1-.23,.1Z"/>
        <path class="cls-18" d="M169.63,224.87c.93,4.77,1.87,13.5-1.47,16.68,0,0,1.3,4.83,10.16,4.83,9.74,0,4.65-4.83,4.65-4.83-5.31-1.27-5.18-5.21-4.25-8.91l-9.09-7.76Z"/>
        <path class="cls-25" d="M166.24,242.43c-.71-1.32-1.5-2.84,.13-3.31,1.78-.52,13.24-1.49,16.61-.51-1.03,1.84,.72,4.1,.72,4.1l-17.45-.28Z"/>
        <g>
          <path class="cls-18" d="M162.38,253.07l-2.56,4.46-2.51,4.55c-1.65,3.04-3.23,6.11-4.67,9.19-.72,1.54-1.4,3.08-2.02,4.63l-.12,.28s-.02,.04-.04,.07c-.04,.05-.05,.08-.08,.12-.05,.08-.08,.15-.12,.25-.07,.2-.04,.54,.11,.99,.28,.92,1.11,2.12,2.14,3.24,1,1.12,2.3,2.27,3.46,3.28l-2.08,4.43c-1.06-.3-1.93-.61-2.87-1.01-.92-.39-1.81-.86-2.71-1.39-1.76-1.09-3.53-2.43-5-4.63-.71-1.1-1.32-2.47-1.56-4.04-.11-.79-.15-1.61-.05-2.41,.04-.4,.1-.8,.2-1.18l.14-.58,.11-.35c.57-1.81,1.16-3.61,1.85-5.34,1.35-3.48,2.87-6.84,4.52-10.12,.83-1.64,1.69-3.26,2.59-4.85,.91-1.61,1.79-3.16,2.83-4.78l8.4,5.19Z"/>
          <path class="cls-18" d="M153.77,283.63l4.66-1.21,.27,7.52s-3.64,.54-5.88-1.69l.95-4.62Z"/>
          <g>
            <path class="cls-23" d="M156.5,243.02c-6.1,1.4-11.14,16.98-11.14,16.98l12.26,9.34s4.5-4.24,6.5-12.04c2.1-8.17-1.38-15.72-7.62-14.29Z"/>
            <path class="cls-27" d="M156.5,243.02c-6.1,1.4-11.14,16.98-11.14,16.98l12.26,9.34s4.5-4.24,6.5-12.04c2.1-8.17-1.38-15.72-7.62-14.29Z"/>
          </g>
          <path class="cls-28" d="M161.73,254.48c-3.32,3.28-4.4,9.26-4.66,14.45l.54,.42s4.5-4.25,6.51-12.04c.12-.49,.23-.98,.32-1.45l-2.71-1.37Z"/>
        </g>
        <g>
          <path class="cls-23" d="M192.99,243.35s6.93,7.83,.39,56.3h-34.84c-.24-5.35,3.12-31.44-2.04-56.64,0,0,5.97-1.2,11.66-1.47,4.45-.21,10.9-.36,14.81,0,5.16,.47,10.02,1.81,10.02,1.81Z"/>
          <path class="cls-24" d="M192.99,243.35s6.93,7.83,.39,56.3h-34.84c-.24-5.35,3.12-31.44-2.04-56.64,0,0,5.97-1.2,11.66-1.47,4.45-.21,10.9-.36,14.81,0,5.16,.47,10.02,1.81,10.02,1.81Z"/>
        </g>
        <path class="cls-18" d="M166.9,220.02c1.67,6.24,2.34,9.98,6.19,12.58,5.8,3.91,13.01-.58,13.24-7.2,.2-5.96-2.57-15.17-9.27-16.43-6.6-1.24-11.83,4.8-10.16,11.04Z"/>
        <path class="cls-25" d="M169.77,230.21c2.66,1.52,12.33-3.56,10.35-11.25,0,0,1.09-1.31,2.01-3.29,.33-.71,.64,3.7,.87,2.85,.32-1.15,.49-7.6,.38-8.89-.42-4.89-3.78-6.76-7.35-5.71-3.15,.93-3.06,2.65-3.06,2.65,0,0-14.89,1.75-11.71,7.8-6.06,6.61,5.18,13.94,8.5,15.84Z"/>
        <path class="cls-25" d="M161.69,214.87s-1.77-3.07-4.36-1.35c1.22,.02,3.21,.23,4.36,1.35Z"/>
        <path class="cls-25" d="M185.04,215.58s.78-11.25-7.05-11.94c3.4,2.32,6.46,6.95,7.05,11.94Z"/>
        <path class="cls-18" d="M177.53,220.29c.43,1.64,1.5,3.05,2.63,3.89,1.7,1.26,2.96,.02,2.84-1.9-.11-1.73-1.12-4.46-2.99-4.98-1.84-.5-2.96,1.11-2.48,2.99Z"/>
        <path class="cls-13" d="M192.88,243.35s6.93,7.83,.39,56.3h-34.84c-.24-5.35,3.12-31.44-2.04-56.64,0,0,5.97-1.2,11.66-1.47,4.45-.21,10.9-.36,14.81,0,5.16,.47,10.02,1.81,10.02,1.81Z"/>
        <path class="cls-28" d="M195.64,260.29l-.13-.12-7.92,1.9c-.45,5.36,5.05,11.76,7.89,14.68,.39-6.84,.38-12.23,.16-16.47Z"/>
        <path class="cls-18" d="M196.21,249.29c1,1.56,2.14,3.31,3.28,4.93,1.16,1.63,2.32,3.26,3.55,4.83,2.42,3.14,4.99,6.16,7.76,8.66,.69,.63,1.39,1.22,2.1,1.76l.53,.4s-.22-.08-.31-.11c-.23-.04-.34,0-.28,.03,.13,.07,.78-.04,1.46-.34,.69-.29,1.47-.69,2.24-1.16,3.12-1.93,6.34-4.63,9.37-7.26l3.8,3.07c-2.36,3.8-4.96,7.24-8.53,10.4-.91,.78-1.88,1.55-3.05,2.24-1.18,.68-2.51,1.37-4.47,1.66-.98,.13-2.17,.1-3.39-.29-.6-.18-1.23-.49-1.72-.8l-.77-.49c-1.01-.66-1.98-1.35-2.9-2.07-3.67-2.91-6.73-6.18-9.55-9.59-1.39-1.72-2.74-3.46-3.98-5.26-1.26-1.82-2.45-3.57-3.63-5.6l8.49-5.04Z"/>
        <g>
          <path class="cls-23" d="M183.41,253.2c-2.08,8.73,13.72,17.29,13.72,17.29l10.26-12.02s-4.67-7.08-10.49-12.66c-7.18-6.89-11.91,.75-13.5,7.4Z"/>
          <path class="cls-27" d="M183.41,253.2c-2.08,8.73,13.72,17.29,13.72,17.29l10.26-12.02s-4.67-7.08-10.49-12.66c-7.18-6.89-11.91,.75-13.5,7.4Z"/>
        </g>
        <path class="cls-18" d="M224.86,262.86l2.42-7.78,6.37,3.18s-.93,5.68-5.57,6.66l-3.23-2.06Z"/>
        <polygon class="cls-18" points="229.84 252.93 235.59 254.51 233.66 258.26 227.29 255.08 229.84 252.93"/>
        <path class="cls-25" d="M172.98,206.57s-1.23-1.94-4.82-.74c-2.27,.73-2.75,2.57-2.75,2.57l3.94,2.88,3.63-4.71Z"/>
        <g>
          <g>
            <polygon class="cls-2" points="228.59 383.69 230.27 391.6 238.86 390.47 237.61 381.69 228.59 383.69"/>
            <g>
              <path class="cls-23" d="M240.44,390.49c-.09-.01-.16-.07-.19-.16-.02-.09,0-.18,.08-.23,.13-.09,3.1-2.2,4.64-1.93,.29,.05,.55,.2,.72,.43,.23,.25,.27,.63,.11,.93-.32,.52-1.46,.84-2.58,.95-.93,.09-1.86,.09-2.78,.01Zm.66-.35c1.7,.04,3.97-.19,4.33-.82,.05-.08,.1-.21-.09-.46-.1-.15-.27-.24-.45-.26-.14-.02-.28-.03-.41-.01-1.21,.3-2.36,.83-3.38,1.56Z"/>
              <path class="cls-23" d="M240.33,390.48c-.07-.04-.11-.11-.11-.18,0-.11,0-2.57,1.06-3.63,.3-.31,.72-.48,1.15-.48,.59,0,.81,.28,.85,.52,.29,.99-1.68,3.16-2.71,3.75-.03,.02-.06,.02-.09,.02-.05,.02-.1,.02-.15,0Zm1.99-3.87c-.27,.02-.52,.14-.71,.34-.6,.84-.92,1.85-.93,2.88,1.05-.77,2.32-2.44,2.21-3.04-.02-.05-.06-.21-.45-.2l-.12,.02h0Z"/>
              <path class="cls-25" d="M239.4,389.31l-9.84,.97c-.37,.04-.67,.32-.71,.69l-.99,8.18c-.09,.73,.42,1.39,1.14,1.48,.09,.01,.19,.01,.28,0,3.54-.41,6.68-.91,11.09-1.34,5.21-.51,3.95,.24,10.09-.27,3.7-.31,3.96-4.58,2.38-4.63-7.25-.2-8.21-2.29-11.22-4.58-.65-.43-1.43-.61-2.21-.51Z"/>
            </g>
            <polygon class="cls-28" points="238.27 386.31 229.29 387.01 228.59 383.69 237.61 381.69 238.27 386.31"/>
            <polygon class="cls-23" points="230.98 318.22 239.46 380.52 226.29 381.56 210.95 319.79 230.98 318.22"/>
            <polygon class="cls-29" points="230.98 318.22 239.46 380.52 226.29 381.56 210.95 319.79 230.98 318.22"/>
            <path class="cls-23" d="M225.08,380.64l15.87-1.26s1.38,2.07-.13,3.92l-15.33,1.38s-1.51-.87-.41-4.04Z"/>
          </g>
          <g>
            <path class="cls-23" d="M158.43,299.82s-.91,9.04-.78,12.22c.68,16.87,16.66,22.83,29.4,20.49l45.26-4.91c1.83,6.13,23.16,39.89,23.16,39.89l11.21-6.44s-11.62-27.87-19.13-47.26c-4.28-11.07-38.29-11.41-51.13-9.13-3.9,1.05-3.15-5.04-3.15-5.04l-34.84,.17Z"/>
            <polygon class="cls-2" points="258.33 368.14 262.61 375.28 270.6 371.31 266.44 363.18 258.33 368.14"/>
            <g>
              <path class="cls-23" d="M272.14,370.79c-.09,.02-.18-.02-.24-.09-.05-.08-.05-.18,0-.25,.1-.13,2.28-3.18,3.87-3.43,.3-.05,.6,.01,.85,.18,.31,.17,.47,.52,.41,.87-.14,.61-1.14,1.3-2.2,1.79-.87,.39-1.78,.71-2.7,.95Zm.53-.57c1.67-.53,3.8-1.52,3.94-2.25,.03-.09,.02-.24-.24-.42-.15-.11-.34-.15-.52-.1-.14,.02-.28,.06-.41,.13-1.08,.7-2.02,1.6-2.77,2.64Z"/>
              <path class="cls-23" d="M272.03,370.83c-.08-.01-.15-.07-.17-.14-.04-.11-.86-2.5-.18-3.88,.19-.4,.54-.71,.96-.85,.58-.2,.88,0,1,.22,.62,.87-.58,3.64-1.39,4.55-.02,.02-.05,.04-.08,.05-.04,.04-.09,.05-.14,.05Zm.64-4.43c-.26,.11-.46,.32-.58,.57-.3,1.02-.28,2.11,.06,3.11,.77-1.1,1.44-3.15,1.13-3.7-.04-.04-.13-.18-.5-.04l-.11,.06h0Z"/>
              <path class="cls-25" d="M270.73,370l-9.25,4.23c-.35,.16-.54,.54-.46,.91l1.77,8.29c.15,.74,.87,1.21,1.61,1.06,.09-.02,.19-.05,.28-.09,3.31-1.58,6.19-3.12,10.35-5.02,4.9-2.24,3.93-1.08,9.72-3.64,3.49-1.54,2.32-5.78,.76-5.3-7.12,2.23-8.75,.52-12.46-.7-.78-.2-1.6-.12-2.32,.25Z"/>
            </g>
            <polygon class="cls-28" points="260.51 371.77 258.33 368.14 266.44 363.18 268.45 367.11 260.51 371.77"/>
            <path class="cls-23" d="M253.69,368.1l13.9-8.67s2.24,1.23,1.74,3.64l-13.35,8.53s-1.8-.08-2.29-3.5Z"/>
          </g>
        </g>
      </g>
      <g>
        <polygon class="cls-25" points="179.16 336.1 179.43 347.78 180.67 407.72 184.72 407.72 185.95 347.78 186.22 336.1 179.16 336.1"/>
        <polygon class="cls-11" points="179.16 336.1 179.43 347.78 180.67 407.72 184.72 407.72 185.95 347.78 186.22 336.1 179.16 336.1"/>
        <polygon class="cls-26" points="179.16 336.1 179.43 348.11 185.95 348.11 186.22 336.1 179.16 336.1"/>
        <g>
          <g>
            <polygon class="cls-25" points="157.13 407.53 160.87 336.93 167 336.93 161.75 407.53 157.13 407.53"/>
            <polygon class="cls-11" points="161.77 407.53 157.13 407.53 160.53 342.63 160.87 336.85 167 336.85 166.53 342.63 161.77 407.53"/>
            <polygon class="cls-26" points="167 336.85 166.53 342.85 160.53 342.85 160.87 336.85 167 336.85"/>
          </g>
          <g>
            <polygon class="cls-25" points="203.63 407.53 198.38 336.93 204.51 336.93 208.26 407.53 203.63 407.53"/>
            <polygon class="cls-11" points="203.62 407.53 198.86 342.63 198.38 336.85 204.51 336.85 204.85 342.63 208.25 407.53 203.62 407.53"/>
            <polygon class="cls-26" points="198.38 336.85 198.86 342.85 204.85 342.85 204.51 336.85 198.38 336.85"/>
          </g>
        </g>
        <path class="cls-25" d="M157.59,330.35h50.2v4.54c0,2.33-1.9,4.23-4.23,4.23h-41.74c-2.33,0-4.23-1.9-4.23-4.23v-4.54h0Z" transform="translate(365.38 669.47) rotate(180)"/>
        <g>
          <rect class="cls-25" x="155.19" y="334.74" width="55.01" height="4.38" rx="1.7" ry="1.7" transform="translate(365.38 673.86) rotate(180)"/>
          <rect class="cls-10" x="155.19" y="334.74" width="55.01" height="4.38" rx="1.7" ry="1.7" transform="translate(365.38 673.86) rotate(180)"/>
        </g>
        <polygon class="cls-25" points="151.53 281.91 154.77 281.91 163.77 334.74 160.53 334.74 151.53 281.91"/>
        <polygon class="cls-25" points="175.54 281.91 178.77 281.91 187.77 334.74 184.54 334.74 175.54 281.91"/>
        <polygon class="cls-11" points="151.53 281.91 154.77 281.91 163.77 334.74 160.53 334.74 151.53 281.91"/>
        <polygon class="cls-11" points="175.54 281.91 178.77 281.91 187.77 334.74 184.54 334.74 175.54 281.91"/>
        <path class="cls-25" d="M181.74,291.95h-29.8c-2.14,0-3.95-1.78-4.22-4.16l-3.05-12.95c-.33-2.85,1.66-5.36,4.22-5.36h29.8c2.14,0,3.95,1.78,4.22,4.16l3.05,12.95c.33,2.85-1.66,5.36-4.22,5.36Z"/>
        <rect class="cls-10" x="183.32" y="334.66" width="26.76" height="4.38" rx="1.7" ry="1.7" transform="translate(393.4 673.71) rotate(180)"/>
      </g>
    </g>
  </g>
  <g id="Screen_1" data-name="Screen 1">
    <g>
      <g>
        <rect class="cls-23" x="107.82" y="136.03" width="13.13" height="9.48"/>
        <g>
          <rect class="cls-23" x="47.53" y="139.86" width="73.42" height="53.15"/>
          <rect class="cls-9" x="47.53" y="139.86" width="73.42" height="53.15"/>
          <rect class="cls-1" x="47.53" y="139.86" width="10.23" height="53.15"/>
        </g>
        <rect class="cls-23" x="47.53" y="139.74" width="73.42" height="4.97"/>
        <g>
          <circle class="cls-8" cx="117.79" cy="138.45" r="1.03"/>
          <circle class="cls-8" cx="114.19" cy="138.45" r="1.03"/>
          <circle class="cls-8" cx="110.59" cy="138.45" r="1.03"/>
        </g>
      </g>
      <g>
        <path class="cls-25" d="M69.52,164.13c-.56-.23-1.01-.57-1.36-1.01l1.43-1.7c.49,.64,1.03,.97,1.6,.97,.38,0,.67-.11,.87-.34,.2-.23,.3-.56,.3-1.01v-3.99h-3.2v-2.03h5.8v5.85c0,1.2-.3,2.1-.91,2.7-.61,.6-1.49,.9-2.67,.9-.68,0-1.3-.12-1.85-.35Z"/>
        <path class="cls-25" d="M82.74,162.49h-3.92l-.73,1.8h-2.67l4.09-9.27h2.58l4.11,9.27h-2.73l-.73-1.8Zm-.77-1.93l-1.19-2.97-1.19,2.97h2.38Z"/>
        <path class="cls-25" d="M95.82,155.02l-3.97,9.27h-2.58l-3.96-9.27h2.83l2.52,6.04,2.57-6.04h2.6Z"/>
        <path class="cls-25" d="M102.26,162.49h-3.92l-.73,1.8h-2.67l4.09-9.27h2.58l4.11,9.27h-2.73l-.73-1.8Zm-.77-1.93l-1.19-2.97-1.19,2.97h2.38Z"/>
        <path class="cls-25" d="M68.15,180.09c-.71-.19-1.28-.43-1.72-.74l.86-1.93c.41,.27,.9,.49,1.44,.66,.55,.17,1.09,.25,1.62,.25,1.01,0,1.51-.25,1.51-.75,0-.27-.14-.46-.43-.59-.29-.13-.75-.26-1.38-.4-.7-.15-1.28-.31-1.75-.48-.47-.17-.87-.45-1.2-.83-.34-.38-.5-.89-.5-1.54,0-.56,.15-1.07,.46-1.53,.31-.45,.77-.81,1.38-1.08,.61-.27,1.37-.4,2.26-.4,.61,0,1.21,.07,1.8,.21,.59,.14,1.11,.34,1.56,.6l-.81,1.95c-.88-.48-1.74-.72-2.57-.72-.52,0-.9,.08-1.14,.23-.24,.15-.36,.36-.36,.6s.14,.43,.42,.56c.28,.12,.74,.25,1.36,.38,.71,.15,1.29,.31,1.75,.48,.46,.17,.86,.45,1.2,.82,.34,.38,.51,.89,.51,1.53,0,.56-.15,1.06-.46,1.51-.31,.45-.77,.81-1.39,1.08-.62,.27-1.37,.4-2.25,.4-.75,0-1.48-.09-2.19-.28Z"/>
        <path class="cls-25" d="M77.06,179.83c-.63-.32-1.11-.76-1.46-1.32-.35-.56-.52-1.21-.52-1.92s.17-1.35,.52-1.91c.35-.56,.84-1,1.46-1.31,.63-.31,1.34-.47,2.13-.47s1.51,.17,2.11,.52c.59,.35,1.01,.83,1.26,1.45l-1.95,.99c-.33-.64-.8-.97-1.43-.97-.45,0-.82,.15-1.12,.45-.3,.3-.44,.72-.44,1.24s.15,.96,.44,1.26c.3,.31,.67,.46,1.12,.46,.63,0,1.1-.32,1.43-.97l1.95,.99c-.25,.62-.67,1.1-1.26,1.45-.59,.35-1.29,.52-2.11,.52s-1.51-.16-2.13-.48Z"/>
        <path class="cls-25" d="M86.9,173.13c.41-.16,.88-.24,1.41-.24v2.26c-.23-.03-.42-.04-.57-.04-.54,0-.96,.15-1.26,.44-.3,.29-.46,.74-.46,1.34v3.3h-2.52v-7.18h2.4v.86c.26-.33,.59-.57,1-.73Z"/>
        <path class="cls-25" d="M89.49,171.83c-.28-.26-.42-.57-.42-.95s.14-.7,.42-.95c.28-.26,.65-.38,1.11-.38s.83,.12,1.11,.36c.28,.24,.42,.55,.42,.93s-.14,.73-.42,.99c-.28,.26-.65,.39-1.11,.39s-.83-.13-1.11-.38Zm-.15,1.18h2.52v7.18h-2.52v-7.18Z"/>
        <path class="cls-25" d="M99.79,173.34c.53,.31,.96,.74,1.27,1.3,.31,.56,.47,1.21,.47,1.95s-.16,1.39-.47,1.95c-.31,.56-.74,.99-1.27,1.3-.53,.3-1.13,.46-1.78,.46-.84,0-1.51-.25-2-.76v3.21h-2.52v-9.75h2.4v.72c.47-.56,1.17-.83,2.12-.83,.65,0,1.25,.15,1.78,.46Zm-1.22,4.5c.28-.3,.42-.72,.42-1.25s-.14-.95-.42-1.25c-.28-.3-.64-.46-1.09-.46s-.8,.15-1.09,.46c-.28,.3-.42,.72-.42,1.25s.14,.95,.42,1.25c.28,.31,.64,.46,1.09,.46s.8-.15,1.09-.46Z"/>
        <path class="cls-25" d="M107.65,179.89c-.21,.13-.47,.23-.77,.3-.3,.07-.63,.11-.97,.11-.94,0-1.66-.23-2.16-.69-.5-.46-.76-1.14-.76-2.05v-2.41h-1.05v-1.88h1.05v-1.87h2.52v1.87h1.64v1.88h-1.64v2.38c0,.26,.07,.46,.21,.6,.14,.15,.32,.22,.55,.22,.29,0,.55-.07,.77-.23l.62,1.76Z"/>
      </g>
    </g>
  </g>
  <g id="Screen_2" data-name="Screen 2">
    <g>
      <g>
        <rect class="cls-23" x="149.27" y="72.07" width="11.65" height="8.41"/>
        <g>
          <rect class="cls-23" x="95.8" y="75.47" width="65.12" height="47.14"/>
          <rect class="cls-9" x="95.8" y="75.47" width="65.12" height="47.14"/>
          <rect class="cls-1" x="95.8" y="75.47" width="9.07" height="47.14"/>
        </g>
        <rect class="cls-23" x="95.8" y="75.37" width="65.12" height="4.41"/>
        <g>
          <path class="cls-8" d="M157.2,74.22c0,.5,.41,.91,.91,.91s.91-.41,.91-.91-.41-.91-.91-.91-.91,.41-.91,.91Z"/>
          <path class="cls-8" d="M154.01,74.22c0,.5,.41,.91,.91,.91s.91-.41,.91-.91-.41-.91-.91-.91-.91,.41-.91,.91Z"/>
          <path class="cls-8" d="M150.82,74.22c0,.5,.41,.91,.91,.91s.91-.41,.91-.91-.41-.91-.91-.91-.91,.41-.91,.91Z"/>
        </g>
      </g>
      <g>
        <path class="cls-25" d="M116.99,96.27l-3.71,1.31,3.71,1.31v1.7l-5.73-2.12v-1.79l5.73-2.12v1.7Z"/>
        <path class="cls-25" d="M124.37,95.94c.48,.47,.72,1.17,.72,2.11v3.61h-2.21v-3.25c0-.86-.34-1.29-1.04-1.29-.38,0-.68,.12-.91,.37-.23,.25-.34,.62-.34,1.12v3.05h-2.21v-8.63h2.21v2.91c.24-.22,.52-.4,.85-.51,.33-.12,.67-.17,1.05-.17,.78,0,1.41,.23,1.89,.7Z"/>
        <path class="cls-25" d="M132.98,99.06h-4.58c.09,.33,.27,.58,.54,.75,.27,.17,.6,.26,1.01,.26,.3,0,.56-.04,.79-.13,.22-.09,.44-.22,.67-.42l1.16,1.21c-.61,.68-1.51,1.02-2.69,1.02-.74,0-1.38-.14-1.94-.42-.56-.28-.99-.67-1.3-1.16-.31-.5-.46-1.06-.46-1.69s.15-1.18,.45-1.67c.3-.49,.71-.88,1.24-1.16,.53-.28,1.12-.42,1.78-.42s1.2,.13,1.71,.39c.51,.26,.92,.64,1.22,1.13s.45,1.08,.45,1.75c0,.02-.01,.2-.03,.55Zm-4.18-1.95c-.23,.19-.37,.46-.44,.79h2.58c-.06-.33-.21-.6-.44-.79-.23-.19-.51-.29-.85-.29s-.63,.1-.86,.29Z"/>
        <path class="cls-25" d="M138.94,95.96c.55,.48,.83,1.21,.83,2.19v3.5h-2.06v-.81c-.32,.61-.94,.92-1.86,.92-.49,0-.91-.09-1.27-.26-.36-.17-.63-.4-.81-.69-.18-.29-.27-.62-.27-.99,0-.6,.23-1.06,.69-1.39,.46-.33,1.16-.49,2.12-.49h1.26c-.04-.67-.48-1-1.34-1-.3,0-.61,.05-.92,.15-.31,.1-.57,.23-.79,.4l-.74-1.5c.35-.23,.77-.41,1.27-.54,.5-.13,1-.19,1.51-.19,1.05,0,1.85,.24,2.4,.72Zm-1.8,4.22c.19-.12,.33-.31,.42-.55v-.55h-.95c-.64,0-.97,.21-.97,.64,0,.19,.07,.35,.22,.47,.15,.12,.35,.17,.6,.17s.48-.06,.67-.19Z"/>
        <path class="cls-25" d="M147.96,93.02v8.63h-2.11v-.63c-.41,.49-1.03,.73-1.85,.73-.57,0-1.1-.13-1.57-.4-.47-.27-.85-.65-1.12-1.15-.28-.5-.41-1.07-.41-1.72s.14-1.22,.41-1.72c.27-.49,.65-.87,1.12-1.13,.47-.26,1-.4,1.57-.4,.75,0,1.33,.22,1.74,.65v-2.87h2.21Zm-2.55,6.58c.25-.27,.37-.64,.37-1.11s-.12-.83-.37-1.09c-.24-.26-.56-.4-.95-.4s-.71,.13-.95,.4c-.25,.26-.37,.63-.37,1.09s.12,.84,.37,1.11c.25,.27,.57,.4,.95,.4s.69-.13,.94-.4Z"/>
        <path class="cls-25" d="M155.08,96.69v1.79l-5.73,2.12v-1.7l3.71-1.31-3.71-1.31v-1.7l5.73,2.12Z"/>
      </g>
    </g>
  </g>
  <g id="Screen_3" data-name="Screen 3">
    <g>
      <g>
        <rect class="cls-23" x="267.63" y="215.52" width="7.42" height="5.36"/>
        <g>
          <rect class="cls-23" x="233.54" y="217.69" width="41.51" height="30.05"/>
          <rect class="cls-9" x="233.54" y="217.69" width="41.51" height="30.05"/>
          <rect class="cls-1" x="233.54" y="217.69" width="5.78" height="30.05"/>
        </g>
        <rect class="cls-23" x="233.54" y="217.62" width="41.51" height="2.81"/>
        <g>
          <circle class="cls-8" cx="273.26" cy="216.89" r=".58"/>
          <circle class="cls-8" cx="271.23" cy="216.89" r=".58"/>
          <circle class="cls-8" cx="269.19" cy="216.89" r=".58"/>
        </g>
      </g>
      <g>
        <path class="cls-25" d="M249.6,231.12l-1.96,.7,1.96,.7v.9l-3.04-1.12v-.95l3.04-1.12v.9Z"/>
        <path class="cls-25" d="M250.38,229.66h2.04c.47,0,.89,.09,1.26,.26,.37,.18,.65,.43,.85,.75,.2,.32,.3,.7,.3,1.14s-.1,.82-.3,1.14c-.2,.32-.48,.57-.85,.75-.37,.18-.78,.26-1.26,.26h-2.04v-4.31Zm1.99,3.34c.37,0,.67-.1,.89-.31,.22-.21,.34-.5,.34-.87s-.11-.66-.34-.87c-.22-.21-.52-.31-.89-.31h-.77v2.36h.77Z"/>
        <path class="cls-25" d="M255.47,229.66h1.22v4.31h-1.22v-4.31Z"/>
        <path class="cls-25" d="M261.92,229.66l-1.85,4.31h-1.2l-1.84-4.31h1.32l1.17,2.81,1.19-2.81h1.21Z"/>
        <path class="cls-25" d="M265.23,231.35v.95l-3.04,1.12v-.9l1.96-.7-1.96-.7v-.9l3.04,1.12Z"/>
      </g>
    </g>
  </g>
  <g id="Screen_4" data-name="Screen 4">
    <g>
      <g>
        <rect class="cls-23" x="344.53" y="66.71" width="14.91" height="10.76"/>
        <rect class="cls-23" x="276.09" y="71.07" width="83.36" height="60.34"/>
        <rect class="cls-9" x="276.09" y="71.07" width="83.36" height="60.34"/>
        <rect class="cls-1" x="276.09" y="71.07" width="11.61" height="60.34"/>
        <rect class="cls-23" x="276.09" y="70.94" width="83.36" height="5.64"/>
        <g>
          <circle class="cls-8" cx="355.85" cy="69.46" r="1.17"/>
          <circle class="cls-8" cx="351.77" cy="69.46" r="1.17"/>
          <circle class="cls-8" cx="347.68" cy="69.46" r="1.17"/>
        </g>
      </g>
      <g>
        <path class="cls-25" d="M308,95.97c1.05,.47,1.86,1.15,2.44,2.03,.57,.88,.86,1.91,.86,3.1s-.29,2.22-.86,3.09c-.57,.87-1.38,1.54-2.44,2.02-1.05,.47-2.29,.71-3.72,.71h-2.75v4.13h-4.47v-15.79h7.22c1.43,0,2.67,.24,3.72,.71Zm-1.92,6.83c.47-.4,.7-.97,.7-1.7s-.23-1.31-.7-1.71c-.47-.41-1.16-.61-2.08-.61h-2.48v4.62h2.48c.92,0,1.61-.2,2.08-.6Z"/>
        <path class="cls-25" d="M328.48,95.26v15.79h-4.47v-6.16h-6.09v6.16h-4.47v-15.79h4.47v5.93h6.09v-5.93h4.47Z"/>
        <path class="cls-25" d="M342.58,95.97c1.05,.47,1.86,1.15,2.44,2.03,.57,.88,.86,1.91,.86,3.1s-.29,2.22-.86,3.09c-.57,.87-1.38,1.54-2.44,2.02-1.05,.47-2.29,.71-3.72,.71h-2.75v4.13h-4.47v-15.79h7.22c1.43,0,2.67,.24,3.72,.71Zm-1.92,6.83c.47-.4,.7-.97,.7-1.7s-.23-1.31-.7-1.71c-.47-.41-1.16-.61-2.08-.61h-2.48v4.62h2.48c.92,0,1.61-.2,2.08-.6Z"/>
      </g>
    </g>
  </g>
</svg>